<?xml version="1.0" standalone="no"?>
<!DOCTYPE svg PUBLIC "-//W3C//DTD SVG 1.1//EN" "http://www.w3.org/Graphics/SVG/1.1/DTD/svg11.dtd" >
<svg>
<metadata>
Created by FontForge 20090914 at Thu Apr 30 08:51:54 2015
 By www-data
Copyright (c) 2003 by Bitstream, Inc. All Rights Reserved.
Copyright (c) 2006 by Tavmjong Bah. All Rights Reserved.
DejaVu changes are in public domain

</metadata>
<defs>
<font id="DejaVuSans" horiz-adv-x="1716" >
  <font-face 
    font-family="DejaVu Sans"
    font-weight="400"
    font-stretch="normal"
    units-per-em="2048"
    panose-1="2 11 6 3 3 8 4 2 2 4"
    ascent="1556"
    descent="-492"
    x-height="1120"
    cap-height="1493"
    bbox="-2090.03 -850.003 3442 2389"
    underline-thickness="90"
    underline-position="-85"
    unicode-range="U+0020-U+1F640"
  />
<missing-glyph horiz-adv-x="1229" 
d="M102 -362v1806h1024v-1806h-1024zM217 -248h795v1577h-795v-1577z" />
    <glyph glyph-name="uni0622" unicode="&#x627;&#x653;" horiz-adv-x="569" 
d="M-75 1784l159.999 123c68.667 -55.333 125.334 -90 170.001 -104c28 -8.66699 60 -13 96 -13c38.667 0 71.667 5.33301 99 16c71.333 27.333 136.333 66.333 195 117v-125c-60 -42.667 -120 -73.667 -180 -93c-44.667 -14.667 -84.667 -22 -120 -22
c-22.667 0 -59.334 5.66699 -110.001 17c-51.333 11.333 -99.666 40.333 -144.999 87l-165 -128v125zM192.999 1556h184v-1556h-184v1556z" />
    <glyph glyph-name="uni0623" unicode="&#x627;&#x654;" horiz-adv-x="569" 
d="M108 1705l78 18c-29.333 13.333 -49.333 32 -60 56c-10.667 24.667 -16 52 -16 82c0 64 18.667 110.333 56 139c38.667 30 88.667 45 150 45c41.333 0 79.333 -11 114 -33v-100c-33.333 22 -71.333 33 -114 33c-44 0 -71.667 -6 -83 -18
c-19.333 -21.333 -29 -40.666 -29 -57.999c0 -51.333 31.333 -86 94 -104c22 -6.66699 73 -0.333984 153 18.999v-102l-343 -77v100zM193 1556h184v-1556h-184v1556z" />
    <glyph glyph-name="uni0624" unicode="&#x648;&#x654;" horiz-adv-x="989" 
d="M273 865l78 18c-29.333 13.333 -49.333 32 -60 56c-10.667 24.667 -16 52 -16 82c0 64 18.667 110.333 56 139c38.667 30 88.667 45 150 45c41.333 0 79.333 -11 114 -33v-100c-33.333 22 -71.333 33 -114 33c-44 0 -71.667 -6 -83 -18
c-19.333 -21.333 -29 -40.666 -29 -57.999c0 -51.333 31.333 -86 94 -104c22 -6.66699 73 -0.333984 153 18.999v-102l-343 -77v100zM494 452c-42 0 -77.667 -19 -107 -57c-16 -22 -24 -45 -24 -69c0 -34 17 -66.667 51 -98c31.333 -29.333 111 -44 239 -44
c0 122.667 -28.667 203.667 -86 243c-24.667 16.667 -49 25 -73 25zM832 184c0 -205.333 -57.332 -361.332 -171.999 -467.999c-63.333 -58.667 -126 -102 -188 -130c-128 -57.333 -313.667 -86 -557 -86v184c239.333 0 403.666 25.333 492.999 76
c112 63.333 188.667 144.333 230 243c-78.667 0 -133 3.33301 -163 10c-100 22 -163.333 44.333 -190 67c-77.333 65.333 -116 143.666 -116 234.999c0 94 29.667 170 89 228c69.333 68.667 149.666 103 240.999 103c59.333 0 113 -17 161 -51
c86.667 -60 138.334 -137.667 155.001 -233c11.333 -68 17 -127.333 17 -178z" />
    <glyph glyph-name="uni0625" unicode="&#x627;&#x655;" horiz-adv-x="569" 
d="M108 -400l78 18c-29.333 13.333 -49.333 32 -60 56c-10.667 24.667 -16 52 -16 82c0 64 18.667 110.333 56 139c38.667 30 88.667 45 150 45c41.333 0 79.333 -11 114 -33v-100c-33.333 22 -71.333 33 -114 33c-44 0 -71.667 -6 -83 -18
c-19.333 -21.333 -29 -40.666 -29 -57.999c0 -51.333 31.333 -86 94 -104c22 -6.66699 73 -0.333984 153 18.999v-102l-343 -77v100zM193 1556h184v-1556h-184v1556z" />
    <glyph glyph-name="uni0626" unicode="&#x64a;&#x654;" horiz-adv-x="1603" 
d="M323 865l78 18c-29.333 13.333 -49.333 32 -60 56c-10.667 24.667 -16 52 -16 82c0 64 18.667 110.333 56 139c38.667 30 88.667 45 150 45c41.333 0 79.333 -11 114 -33v-100c-33.333 22 -71.333 33 -114 33c-44 0 -71.667 -6 -83 -18
c-19.333 -21.333 -29 -40.666 -29 -57.999c0 -51.333 31.333 -86 94 -104c22 -6.66699 73 -0.333984 153 18.999v-102l-343 -77v100zM1366 12c-68 -113.333 -216.33 -194.33 -444.997 -242.997c-118 -25.333 -217 -38 -297 -38c-86 0 -153 8.66699 -201 26
c-195.333 69.333 -293 191 -293 365c0 78 21 154.667 63 230h184c-44 -87.333 -65.667 -164 -65 -230c1.33301 -98 56.666 -162 165.999 -192c64.667 -17.333 117.334 -24 158.001 -20c84 7.33301 169 19 255 35c118 22 205 59.667 261 113
c39.333 37.333 59 73.666 59 108.999c0 49.333 -42 83.666 -126 102.999c-44 10 -104 30.333 -180 61c-44.667 18 -86.334 44 -125.001 78c-42.667 38 -64.334 95.333 -65.001 172c0 100 63.333 174.667 190 224c63.333 24.667 129.666 37 198.999 37s136 -14 200 -42
c94 -40.667 150 -118.667 168 -234h-184c-8.66699 40.667 -35 72 -79 94c-26.667 13.333 -63 20.666 -109 21.999c-52 1.33301 -98.667 -11 -140 -37c-40 -25.333 -60 -49.333 -60 -72c0 -36.667 41.667 -69 125 -97c165.333 -55.333 267 -104.333 305 -147
c51.333 -56.667 77.666 -114.667 78.999 -174c0.666992 -45.333 -13.666 -93 -42.999 -143z" />
    <glyph glyph-name="uniFB00" unicode="ff" horiz-adv-x="1411" 
d="M1450 1556v-153h-176c-66 0 -111.833 -13.333 -137.5 -40s-38.5 -74.667 -38.5 -144v-99h303v-143h-303v-977h-185v977h-505v-977h-185v977h-176v143h176v78c0 124.667 29 215.5 87 272.5s150 85.5 276 85.5h174v-153h-176c-66 0 -112 -13.333 -138 -40
c-25.333 -26.667 -38 -74.667 -38 -144v-99h505v78c0 124.667 29 215.5 87 272.5s150 85.5 276 85.5h174z" />
    <glyph glyph-name="fi" unicode="fi" horiz-adv-x="1290" 
d="M1098 1120v-1120h-185v977h-505v-977h-185v977h-176v143h176v78c0 122 28.833 212.167 86.5 270.5s146.167 87.5 265.5 87.5h185v-153h-176c-66 0 -111.833 -13.333 -137.5 -40s-38.5 -74.667 -38.5 -144v-99h690zM913 1554h185v-233h-185v233z" />
    <glyph glyph-name="fl" unicode="fl" horiz-adv-x="1290" 
d="M586 1556h512v-1556h-185v1403h-329c-66 0 -111.833 -13.333 -137.5 -40s-38.5 -74.667 -38.5 -144v-99h303v-143h-303v-977h-185v977h-176v143h176v78c0 124.667 29 215.5 87 272.5s150 85.5 276 85.5z" />
    <glyph glyph-name="uniFB03" unicode="ffi" horiz-adv-x="1980" 
d="M760 1556v-153.002h-176c-66 0 -112 -13.333 -138 -40c-25.333 -26.667 -38 -74.667 -38 -144v-99h505v78c0 124.667 29 215.334 87 272.001c18.667 18.667 41 34.334 67 47.001c52 26 121.667 39 209 39h174v-153h-176c-66 0 -111.833 -13.333 -137.5 -40
s-38.5 -74.667 -38.5 -144v-99h690v-1120h-185v977h-505v-977h-185v977h-505v-977h-185v977h-176v143h176v78c0 124.667 29 215.5 87 272.5s150 85.5 276 85.5h174zM1603 1554h185v-233h-185v233z" />
    <glyph glyph-name="uniFB04" unicode="ffl" horiz-adv-x="1980" 
d="M760 1556v-153h-176c-66 0 -112 -13.333 -138 -40c-25.333 -26.667 -38 -74.667 -38 -144v-99h505v78c0 124.667 29 215.5 87 272.5s150 85.5 276 85.5h512v-1556h-185v1403h-329c-66 0 -111.833 -13.333 -137.5 -40s-38.5 -74.667 -38.5 -144v-99h303v-143h-303v-977
h-185v977h-505v-977h-185v977h-176v143h176v78c0 124.667 29 215.5 87 272.5s150 85.5 276 85.5h174z" />
    <glyph glyph-name="uniFE70" unicode="&#x20;&#x64b;" horiz-adv-x="600" arabic-form="isolated" 
d="M8 1450v110l584 130v-110zM8 1210v110l584 130v-110z" />
    <glyph glyph-name="uniFE71" unicode="&#x640;&#x64b;" horiz-adv-x="600" arabic-form="medial" 
d="M-20 0v184h640v-184h-640zM8 1450v110l584 130v-110zM8 1210v110l584 130v-110z" />
    <glyph glyph-name="uniFE72" unicode="&#x20;&#x64c;" horiz-adv-x="600" arabic-form="isolated" 
d="M311 1380c24.667 24 44 50 58 78c-22 4.66699 -40.667 11.334 -56 20.001c-72 38 -108 88.333 -108 151c0 58 23 104.333 69 139c18.667 14 49 21 91 21c48.667 0 86.334 -13 113.001 -39c36.667 -36 55 -80.333 55 -133c0 -26 -4 -51.667 -12 -77
c12.667 -0.666992 23.667 -1 33 -1c12 -0.666992 24.667 -1 38 -1v-110c-31.333 0 -53.666 0.666992 -66.999 2l-52 5c-17.333 -40.667 -51 -87 -101 -139c-56.667 -57.333 -116.334 -86 -179.001 -86c-76 0 -132.667 51.333 -170 154c-10 27.333 -15 78.666 -15 153.999h90
c0 -64.667 4 -105.667 12 -123c23.333 -50 51 -75 83 -75c37.333 0 76.666 20 117.999 60zM408 1558l5.99902 14c6 14 9 29 9 45c0 22.667 -5.66699 38.667 -17 48s-23.666 14 -36.999 14c-15.333 0 -26.666 -3 -33.999 -9c-12 -8.66699 -18 -22.334 -18 -41.001
c0 -24.667 15 -43 45 -55c13.333 -5.33301 28.666 -10.666 45.999 -15.999z" />
    <glyph glyph-name="uniFE74" unicode="&#x20;&#x64d;" horiz-adv-x="600" arabic-form="isolated" 
d="M8 -490v110l584 130v-110zM8 -250v110l584 130v-110z" />
    <glyph glyph-name="uniFE76" unicode="&#x20;&#x64e;" horiz-adv-x="600" arabic-form="isolated" 
d="M8 1210v110l584 130v-110z" />
    <glyph glyph-name="uniFE77" unicode="&#x640;&#x64e;" horiz-adv-x="600" arabic-form="medial" 
d="M8 1210v110l584 130v-110zM-20 0v184h640v-184h-640z" />
    <glyph glyph-name="uniFE78" unicode="&#x20;&#x64f;" horiz-adv-x="600" arabic-form="isolated" 
d="M341 1466c-6 1.33301 -15.335 5.33398 -28.002 12.001c-72 37.333 -108 87.666 -108 150.999c0 58 23 104.333 69 139c18.667 14 49 21 91 21c48.667 0 86.334 -13 113.001 -39c36.667 -36 55 -80.333 55 -133c0 -21.333 -4.66699 -47 -14 -77
c11.333 -0.666992 23 -1.16699 35 -1.5s24.667 -0.5 38 -0.5v-110c-23.333 0 -45.666 0.666992 -66.999 2c-20 1.33301 -39.333 3 -58 5c-28.667 -40.667 -66 -75 -112 -103c-133.333 -82 -249 -123 -347 -123v110c101.333 0 198.333 36.333 291 109
c15.333 12 29.333 24.667 42 38zM407.998 1558l5.99902 14c6 14 9 29 9 45c0 22.667 -5.66699 38.667 -17 48s-23.666 14 -36.999 14c-15.333 0 -26.666 -3 -33.999 -9c-12 -8.66699 -18 -22.334 -18 -41.001c0 -24.667 15 -43 45 -55
c13.333 -5.33301 28.666 -10.666 45.999 -15.999z" />
    <glyph glyph-name="uniFE79" unicode="&#x640;&#x64f;" horiz-adv-x="600" arabic-form="medial" 
d="M341 1466c-6 1.33301 -15.335 5.33398 -28.002 12.001c-72 37.333 -108 87.666 -108 150.999c0 58 23 104.333 69 139c18.667 14 49 21 91 21c48.667 0 86.334 -13 113.001 -39c36.667 -36 55 -80.333 55 -133c0 -21.333 -4.66699 -47 -14 -77
c11.333 -0.666992 23 -1.16699 35 -1.5s24.667 -0.5 38 -0.5v-110c-23.333 0 -45.666 0.666992 -66.999 2c-20 1.33301 -39.333 3 -58 5c-28.667 -40.667 -66 -75 -112 -103c-133.333 -82 -249 -123 -347 -123v110c101.333 0 198.333 36.333 291 109
c15.333 12 29.333 24.667 42 38zM407.998 1558l5.99902 14c6 14 9 29 9 45c0 22.667 -5.66699 38.667 -17 48s-23.666 14 -36.999 14c-15.333 0 -26.666 -3 -33.999 -9c-12 -8.66699 -18 -22.334 -18 -41.001c0 -24.667 15 -43 45 -55
c13.333 -5.33301 28.666 -10.666 45.999 -15.999zM-20.0029 0.000976562v184h640v-184h-640z" />
    <glyph glyph-name="uniFE7A" unicode="&#x20;&#x650;" horiz-adv-x="600" arabic-form="isolated" 
d="M8 -280v110l584 130v-110z" />
    <glyph glyph-name="uniFE7B" unicode="&#x640;&#x650;" horiz-adv-x="600" arabic-form="medial" 
d="M8 -280v110l584 130v-110zM-20 0v184h640v-184h-640z" />
    <glyph glyph-name="uniFE7C" unicode="&#x20;&#x651;" horiz-adv-x="600" arabic-form="isolated" 
d="M316 1412c-10 -50.667 -26.001 -89.334 -48.001 -116.001c-38 -46 -80 -69 -126 -69c-52.667 0 -92.667 21 -120 63c-22.667 34.667 -34 88.334 -34 161.001s5.33301 141.667 16 207h97c-7.33301 -83.333 -11 -143.666 -11 -180.999c0 -56 8.33301 -95.333 25 -118
c12.667 -16.667 35.667 -18.334 69 -5.00098c40.667 16 62.334 80.667 65.001 194c1.33301 54.667 2 111.667 2 171h96c2 -24 3 -54 3 -90c0 -130 29.667 -195 89 -195c47.333 0 71 58 71 174c0 76.667 -4.33301 134 -13 172h103c8 -48.667 12 -111.667 12 -189
c0 -88.667 -9 -151 -27 -187c-30 -59.333 -72.667 -92.333 -128 -99c-47.333 -6 -81.333 2 -102 24c-18 20 -31 47.667 -39 83z" />
    <glyph glyph-name="uniFE7D" unicode="&#x640;&#x651;" horiz-adv-x="600" arabic-form="medial" 
d="M316 1412c-10 -50.667 -26.001 -89.334 -48.001 -116.001c-38 -46 -80 -69 -126 -69c-52.667 0 -92.667 21 -120 63c-22.667 34.667 -34 88.334 -34 161.001s5.33301 141.667 16 207h97c-7.33301 -83.333 -11 -143.666 -11 -180.999c0 -56 8.33301 -95.333 25 -118
c12.667 -16.667 35.667 -18.334 69 -5.00098c40.667 16 62.334 80.667 65.001 194c1.33301 54.667 2 111.667 2 171h96c2 -24 3 -54 3 -90c0 -130 29.667 -195 89 -195c47.333 0 71 58 71 174c0 76.667 -4.33301 134 -13 172h103c8 -48.667 12 -111.667 12 -189
c0 -88.667 -9 -151 -27 -187c-30 -59.333 -72.667 -92.333 -128 -99c-47.333 -6 -81.333 2 -102 24c-18 20 -31 47.667 -39 83zM-20.001 0v184h640v-184h-640z" />
    <glyph glyph-name="uniFE7E" unicode="&#x20;&#x652;" horiz-adv-x="600" arabic-form="isolated" 
d="M450 1524c0 42 -14.667 77.667 -44 107s-65.333 44 -108 44c-43.333 0 -79.5 -14.5 -108.5 -43.5s-43.5 -64.833 -43.5 -107.5c0 -43.333 14.5 -79.5 43.5 -108.5s65.167 -43.5 108.5 -43.5c42.667 0 78.667 14.667 108 44s44 65.333 44 108zM572 1524
c0 -76.667 -26.5 -141.667 -79.5 -195s-117.833 -80 -194.5 -80s-141.5 26.667 -194.5 80s-79.5 118.333 -79.5 195s26.5 141.5 79.5 194.5s117.833 79.5 194.5 79.5s141.5 -26.5 194.5 -79.5s79.5 -117.833 79.5 -194.5z" />
    <glyph glyph-name="uniFE7F" unicode="&#x640;&#x652;" horiz-adv-x="600" arabic-form="medial" 
d="M-20 0v184h640v-184h-640zM450 1524c0 42 -14.667 77.667 -44 107s-65.333 44 -108 44c-43.333 0 -79.5 -14.5 -108.5 -43.5s-43.5 -64.833 -43.5 -107.5c0 -43.333 14.5 -79.5 43.5 -108.5s65.167 -43.5 108.5 -43.5c42.667 0 78.667 14.667 108 44s44 65.333 44 108z
M572 1524c0 -76.667 -26.5 -141.667 -79.5 -195s-117.833 -80 -194.5 -80s-141.5 26.667 -194.5 80s-79.5 118.333 -79.5 195s26.5 141.5 79.5 194.5s117.833 79.5 194.5 79.5s141.5 -26.5 194.5 -79.5s79.5 -117.833 79.5 -194.5z" />
    <glyph glyph-name="uniFEF5" unicode="&#xfedf;&#xfe82;" horiz-adv-x="1168" arabic-form="isolated" 
d="M959 834c0 -200 -46.332 -372.668 -138.999 -518.001c-36.667 -56.667 -80.667 -108.667 -132 -156c-136.667 -120 -257.667 -180 -363 -180c-70.667 0 -131 10.667 -181 32v184c64 -21.333 124.333 -32 181 -32c75.333 0 158.333 50.667 249 152l-490 1094h179l426 -959
c19.333 28.667 35.666 61.334 48.999 98.001c24.667 91.333 37 198.333 37 321v686h184v-722zM-209.999 1634l159.999 123c68.667 -55.333 125.334 -90 170.001 -104c28 -8.66699 60 -13 96 -13c38.667 0 71.667 5.33301 99 16c71.333 27.333 136.333 66.333 195 117v-125
c-60 -42.667 -120 -73.667 -180 -93c-44.667 -14.667 -84.667 -22 -120 -22c-22.667 0 -59.334 5.66699 -110.001 17c-51.333 11.333 -99.666 40.333 -144.999 87l-165 -128v125z" />
    <glyph glyph-name="uniFEF6" unicode="&#xfee0;&#xfe82;" horiz-adv-x="1222" arabic-form="final" 
d="M820 316c-39.333 -60.667 -83.333 -112.667 -132 -156c-134.667 -120 -255.667 -180 -363 -180c-70.667 0 -131 10.667 -181 32v184c64 -21.333 124.333 -32 181 -32c75.333 0 158.333 50.667 249 152l-490 1094h179l426 -959c19.333 28.667 35.666 61.334 48.999 98.001
c24.667 91.333 37 198.333 37 321v686h184v-956c0 -116 11.333 -202 34 -258c42.667 -105.333 90.667 -158 144 -158h105v-184h-129c-116.667 0 -209 81 -277 243c-11.333 27.333 -16.666 51.666 -15.999 72.999zM-210 1634l159.999 123
c68.667 -55.333 125.334 -90 170.001 -104c28 -8.66699 60 -13 96 -13c38.667 0 71.667 5.33301 99 16c71.333 27.333 136.333 66.333 195 117v-125c-60 -42.667 -120 -73.667 -180 -93c-44.667 -14.667 -84.667 -22 -120 -22c-22.667 0 -59.334 5.66699 -110.001 17
c-51.333 11.333 -99.666 40.333 -144.999 87l-165 -128v125z" />
    <glyph glyph-name="uniFEF7" unicode="&#xfedf;&#xfe84;" horiz-adv-x="1168" arabic-form="isolated" 
d="M959 834c0 -200 -46.332 -372.668 -138.999 -518.001c-36.667 -56.667 -80.667 -108.667 -132 -156c-136.667 -120 -257.667 -180 -363 -180c-70.667 0 -131 10.667 -181 32v184c64 -21.333 124.333 -32 181 -32c75.333 0 158.333 50.667 249 152l-490 1094h179l426 -959
c19.333 28.667 35.666 61.334 48.999 98.001c24.667 91.333 37 198.333 37 321v686h184v-722zM-26.999 1615l78 18c-29.333 13.333 -49.333 32 -60 56c-10.667 24.667 -16 52 -16 82c0 64 18.667 110.333 56 139c38.667 30 88.667 45 150 45c41.333 0 79.333 -11 114 -33
v-100c-33.333 22 -71.333 33 -114 33c-44 0 -71.667 -6 -83 -18c-19.333 -21.333 -29 -40.666 -29 -57.999c0 -51.333 31.333 -86 94 -104c22 -6.66699 73 -0.333984 153 18.999v-102l-343 -77v100z" />
    <glyph glyph-name="uniFEF8" unicode="&#xfee0;&#xfe84;" horiz-adv-x="1222" arabic-form="final" 
d="M820 316c-39.333 -60.667 -83.333 -112.667 -132 -156c-134.667 -120 -255.667 -180 -363 -180c-70.667 0 -131 10.667 -181 32v184c64 -21.333 124.333 -32 181 -32c75.333 0 158.333 50.667 249 152l-490 1094h179l426 -959c19.333 28.667 35.666 61.334 48.999 98.001
c24.667 91.333 37 198.333 37 321v686h184v-956c0 -116 11.333 -202 34 -258c42.667 -105.333 90.667 -158 144 -158h105v-184h-129c-116.667 0 -209 81 -277 243c-11.333 27.333 -16.666 51.666 -15.999 72.999zM-27 1615l78 18c-29.333 13.333 -49.333 32 -60 56
c-10.667 24.667 -16 52 -16 82c0 64 18.667 110.333 56 139c38.667 30 88.667 45 150 45c41.333 0 79.333 -11 114 -33v-100c-33.333 22 -71.333 33 -114 33c-44 0 -71.667 -6 -83 -18c-19.333 -21.333 -29 -40.666 -29 -57.999c0 -51.333 31.333 -86 94 -104
c22 -6.66699 73 -0.333984 153 18.999v-102l-343 -77v100z" />
    <glyph glyph-name="uniFEF9" unicode="&#xfedf;&#xfe88;" horiz-adv-x="1168" arabic-form="isolated" 
d="M959 834c0 -200 -46.332 -372.668 -138.999 -518.001c-36.667 -56.667 -80.667 -108.667 -132 -156c-136.667 -120 -257.667 -180 -363 -180c-70.667 0 -131 10.667 -181 32v184c64 -21.333 124.333 -32 181 -32c75.333 0 158.333 50.667 249 152l-490 1094h179l426 -959
c19.333 28.667 35.666 61.334 48.999 98.001c24.667 91.333 37 198.333 37 321v686h184v-722zM23.001 -400.001l78 18c-29.333 13.333 -49.333 32 -60 56c-10.667 24.667 -16 52 -16 82c0 64 18.667 110.333 56 139c38.667 30 88.667 45 150 45c41.333 0 79.333 -11 114 -33
v-100c-33.333 22 -71.333 33 -114 33c-44 0 -71.667 -6 -83 -18c-19.333 -21.333 -29 -40.666 -29 -57.999c0 -51.333 31.333 -86 94 -104c22 -6.66699 73 -0.333984 153 18.999v-102l-343 -77v100z" />
    <glyph glyph-name="uniFEFA" unicode="&#xfee0;&#xfe88;" horiz-adv-x="1222" arabic-form="final" 
d="M820 316c-39.333 -60.667 -83.333 -112.667 -132 -156c-134.667 -120 -255.667 -180 -363 -180c-70.667 0 -131 10.667 -181 32v184c64 -21.333 124.333 -32 181 -32c75.333 0 158.333 50.667 249 152l-490 1094h179l426 -959c19.333 28.667 35.666 61.334 48.999 98.001
c24.667 91.333 37 198.333 37 321v686h184v-956c0 -116 11.333 -202 34 -258c42.667 -105.333 90.667 -158 144 -158h105v-184h-129c-116.667 0 -209 81 -277 243c-11.333 27.333 -16.666 51.666 -15.999 72.999zM23 -400l78 18c-29.333 13.333 -49.333 32 -60 56
c-10.667 24.667 -16 52 -16 82c0 64 18.667 110.333 56 139c38.667 30 88.667 45 150 45c41.333 0 79.333 -11 114 -33v-100c-33.333 22 -71.333 33 -114 33c-44 0 -71.667 -6 -83 -18c-19.333 -21.333 -29 -40.666 -29 -57.999c0 -51.333 31.333 -86 94 -104
c22 -6.66699 73 -0.333984 153 18.999v-102l-343 -77v100z" />
    <glyph glyph-name="uniFEFB" unicode="&#xfedf;&#xfe8e;" horiz-adv-x="1168" arabic-form="isolated" 
d="M959 834c0 -200 -46.332 -372.668 -138.999 -518.001c-36.667 -56.667 -80.667 -108.667 -132 -156c-136.667 -120 -257.667 -180 -363 -180c-70.667 0 -131 10.667 -181 32v184c64 -21.333 124.333 -32 181 -32c75.333 0 158.333 50.667 249 152l-490 1094h179l426 -959
c19.333 28.667 35.666 61.334 48.999 98.001c24.667 91.333 37 198.333 37 321v686h184v-722z" />
    <glyph glyph-name="uniFEFC" unicode="&#xfee0;&#xfe8e;" horiz-adv-x="1222" arabic-form="final" 
d="M820 316c-39.333 -60.667 -83.333 -112.667 -132 -156c-134.667 -120 -255.667 -180 -363 -180c-70.667 0 -131 10.667 -181 32v184c64 -21.333 124.333 -32 181 -32c75.333 0 158.333 50.667 249 152l-490 1094h179l426 -959c19.333 28.667 35.666 61.334 48.999 98.001
c24.667 91.333 37 198.333 37 321v686h184v-956c0 -116 11.333 -202 34 -258c42.667 -105.333 90.667 -158 144 -158h105v-184h-129c-116.667 0 -209 81 -277 243c-11.333 27.333 -16.666 51.666 -15.999 72.999z" />
    <glyph glyph-name="uni0651064B" unicode="&#x64b;&#x651;" horiz-adv-x="0" 
d="M220 2050v110l584 130v-110zM220 1810v110l584 130v-110zM528 1412c-10 -50.667 -26.001 -89.334 -48.001 -116.001c-38 -46 -80 -69 -126 -69c-52.667 0 -92.667 21 -120 63c-22.667 34.667 -34 88.334 -34 161.001s5.33301 141.667 16 207h97
c-7.33301 -83.333 -11 -143.666 -11 -180.999c0 -56 8.33301 -95.333 25 -118c12.667 -16.667 35.667 -18.334 69 -5.00098c40.667 16 62.334 80.667 65.001 194c1.33301 54.667 2 111.667 2 171h96c2 -24 3 -54 3 -90c0 -130 29.667 -195 89 -195c47.333 0 71 58 71 174
c0 76.667 -4.33301 134 -13 172h103c8 -48.667 12 -111.667 12 -189c0 -88.667 -9 -151 -27 -187c-30 -59.333 -72.667 -92.333 -128 -99c-47.333 -6 -81.333 2 -102 24c-18 20 -31 47.667 -39 83z" />
    <glyph glyph-name="uni0651064C" unicode="&#x64c;&#x651;" horiz-adv-x="0" 
d="M523 1980c24.667 24 44 50 58 78c-22 4.66699 -40.667 11.334 -56 20.001c-72 38 -108 88.333 -108 151c0 58 23 104.333 69 139c18.667 14 49 21 91 21c48.667 0 86.334 -13 113.001 -39c36.667 -36 55 -80.333 55 -133c0 -26 -4 -51.667 -12 -77
c12.667 -0.666992 23.667 -1 33 -1c12 -0.666992 24.667 -1 38 -1v-110c-31.333 0 -53.666 0.666992 -66.999 2l-52 5c-17.333 -40.667 -51 -87 -101 -139c-56.667 -57.333 -116.334 -86 -179.001 -86c-76 0 -132.667 51.333 -170 154c-10 27.333 -15 78.666 -15 153.999h90
c0 -64.667 4 -105.667 12 -123c23.333 -50 51 -75 83 -75c37.333 0 76.666 20 117.999 60zM620 2158l5.99902 14c6 14 9 29 9 45c0 22.667 -5.66699 38.667 -17 48s-23.666 14 -36.999 14c-15.333 0 -26.666 -3 -33.999 -9c-12 -8.66699 -18 -22.334 -18 -41
c0 -24.667 15 -43 45 -55c13.333 -5.33301 28.666 -10.666 45.999 -16zM527.999 1412c-10 -50.667 -26.001 -89.334 -48.001 -116.001c-38 -46 -80 -69 -126 -69c-52.667 0 -92.667 21 -120 63c-22.667 34.667 -34 88.334 -34 161.001s5.33301 141.667 16 207h97
c-7.33301 -83.333 -11 -143.666 -11 -180.999c0 -56 8.33301 -95.333 25 -118c12.667 -16.667 35.667 -18.334 69 -5.00098c40.667 16 62.334 80.667 65.001 194c1.33301 54.667 2 111.667 2 171h96c2 -24 3 -54 3 -90c0 -130 29.667 -195 89 -195c47.333 0 71 58 71 174
c0 76.667 -4.33301 134 -13 172h103c8 -48.667 12 -111.667 12 -189c0 -88.667 -9 -151 -27 -187c-30 -59.333 -72.667 -92.333 -128 -99c-47.333 -6 -81.333 2 -102 24c-18 20 -31 47.667 -39 83z" />
    <glyph glyph-name="uni064B0651" unicode="&#x64d;&#x651;" horiz-adv-x="0" 
d="M528 1912c-10 -50.667 -26.001 -89.335 -48.001 -116.002c-38 -46 -80 -69 -126 -69c-52.667 0 -92.667 21 -120 63c-22.667 34.667 -34 88.334 -34 161.001s5.33301 141.667 16 207.001h97c-7.33301 -83.333 -11 -143.666 -11 -180.999c0 -56 8.33301 -95.333 25 -118
c12.667 -16.667 35.667 -18.334 69 -5.00098c40.667 16 62.334 80.667 65.001 194c1.33301 54.667 2 111.667 2 171h96c2 -24 3 -54 3 -90c0 -130 29.667 -195 89 -195c47.333 0 71 58 71 174c0 76.667 -4.33301 134 -13 172h103c8 -48.667 12 -111.667 12 -189
c0 -88.667 -9 -151 -27 -187c-30 -59.333 -72.667 -92.333 -128 -99c-47.333 -6 -81.333 2 -102 24c-18 20 -31 47.667 -39 83zM219.999 1450v110l584 130v-110zM219.999 1210v110l584 130v-110z" />
    <glyph glyph-name="uni0651064E" unicode="&#x64e;&#x651;" horiz-adv-x="0" 
d="M220 1810v110l584 130v-110zM528 1412c-10 -50.667 -26.001 -89.334 -48.001 -116.001c-38 -46 -80 -69 -126 -69c-52.667 0 -92.667 21 -120 63c-22.667 34.667 -34 88.334 -34 161.001s5.33301 141.667 16 207h97c-7.33301 -83.333 -11 -143.666 -11 -180.999
c0 -56 8.33301 -95.333 25 -118c12.667 -16.667 35.667 -18.334 69 -5.00098c40.667 16 62.334 80.667 65.001 194c1.33301 54.667 2 111.667 2 171h96c2 -24 3 -54 3 -90c0 -130 29.667 -195 89 -195c47.333 0 71 58 71 174c0 76.667 -4.33301 134 -13 172h103
c8 -48.667 12 -111.667 12 -189c0 -88.667 -9 -151 -27 -187c-30 -59.333 -72.667 -92.333 -128 -99c-47.333 -6 -81.333 2 -102 24c-18 20 -31 47.667 -39 83z" />
    <glyph glyph-name="uni0651064F" unicode="&#x64f;&#x651;" horiz-adv-x="0" 
d="M553 2066c-6 1.33301 -15.335 5.33301 -28.002 12c-72 37.333 -108 87.666 -108 151c0 58 23 104.333 69 139c18.667 14 49 21 91 21c48.667 0 86.334 -13 113.001 -39c36.667 -36 55 -80.333 55 -133c0 -21.333 -4.66699 -47 -14 -77
c11.333 -0.666992 23 -1.16699 35 -1.5s24.667 -0.5 38 -0.5v-110c-23.333 0 -45.666 0.666992 -66.999 2c-20 1.33301 -39.333 3 -58 5c-28.667 -40.667 -66 -75 -112 -103c-133.333 -82 -249 -123 -347 -123v110c101.333 0 198.333 36.333 291 109
c15.333 12 29.333 24.667 42 38zM619.998 2158l5.99902 14c6 14 9 29 9 45c0 22.667 -5.66699 38.667 -17 48s-23.666 14 -36.999 14c-15.333 0 -26.666 -3 -33.999 -9c-12 -8.66699 -18 -22.334 -18 -41c0 -24.667 15 -43 45 -55
c13.333 -5.33301 28.666 -10.666 45.999 -16zM527.997 1412c-10 -50.667 -26.001 -89.334 -48.001 -116.001c-38 -46 -80 -69 -126 -69c-52.667 0 -92.667 21 -120 63c-22.667 34.667 -34 88.334 -34 161.001s5.33301 141.667 16 207h97
c-7.33301 -83.333 -11 -143.666 -11 -180.999c0 -56 8.33301 -95.333 25 -118c12.667 -16.667 35.667 -18.334 69 -5.00098c40.667 16 62.334 80.667 65.001 194c1.33301 54.667 2 111.667 2 171h96c2 -24 3 -54 3 -90c0 -130 29.667 -195 89 -195c47.333 0 71 58 71 174
c0 76.667 -4.33301 134 -13 172h103c8 -48.667 12 -111.667 12 -189c0 -88.667 -9 -151 -27 -187c-30 -59.333 -72.667 -92.333 -128 -99c-47.333 -6 -81.333 2 -102 24c-18 20 -31 47.667 -39 83z" />
    <glyph glyph-name="uni064E0651" unicode="&#x650;&#x651;" horiz-adv-x="0" 
d="M528 1712c-10 -50.667 -26.001 -89.334 -48.001 -116.001c-38 -46 -80 -69 -126 -69c-52.667 0 -92.667 21 -120 63c-22.667 34.667 -34 88.334 -34 161.001s5.33301 141.667 16 207h97c-7.33301 -83.333 -11 -143.666 -11 -180.999c0 -56 8.33301 -95.333 25 -118
c12.667 -16.667 35.667 -18.334 69 -5.00098c40.667 16 62.334 80.667 65.001 194c1.33301 54.667 2 111.667 2 171h96c2 -24 3 -54 3 -90c0 -130 29.667 -195 89 -195c47.333 0 71 58 71 174c0 76.667 -4.33301 134 -13 172h103c8 -48.667 12 -111.667 12 -189
c0 -88.667 -9 -151 -27 -187c-30 -59.333 -72.667 -92.333 -128 -99c-47.333 -6 -81.333 2 -102 24c-18 20 -31 47.667 -39 83zM219.999 1210v110l584 130v-110z" />
    <glyph glyph-name="uni0654064E" unicode="&#x64e;&#x654;" horiz-adv-x="0" 
d="M220 1710v110l584 130v-110zM335 1315l78 18c-29.333 13.333 -49.333 32 -60 56c-10.667 24.667 -16 52 -16 82c0 64 18.667 110.333 56 139c38.667 30 88.667 45 150 45c41.333 0 79.333 -11 114 -33v-100c-33.333 22 -71.333 33 -114 33c-44 0 -71.667 -6 -83 -18
c-19.333 -21.333 -29 -40.666 -29 -57.999c0 -51.333 31.333 -86 94 -104c22 -6.66699 73 -0.333984 153 18.999v-102l-343 -77v100z" />
    <glyph glyph-name="uni0654064F" unicode="&#x64f;&#x654;" horiz-adv-x="0" 
d="M553 1966c-6 1.33301 -15.335 5.33398 -28.002 12.001c-72 37.333 -108 87.666 -108 150.999c0 58 23 104.333 69 139c18.667 14 49 21 91 21c48.667 0 86.334 -13 113.001 -39c36.667 -36 55 -80.333 55 -133c0 -21.333 -4.66699 -47 -14 -77
c11.333 -0.666992 23 -1.16699 35 -1.5s24.667 -0.5 38 -0.5v-110c-23.333 0 -45.666 0.666992 -66.999 2c-20 1.33301 -39.333 3 -58 5c-28.667 -40.667 -66 -75 -112 -103c-133.333 -82 -249 -123 -347 -123v110c101.333 0 198.333 36.333 291 109
c15.333 12 29.333 24.667 42 38zM619.998 2058l5.99902 13.999c6 14 9 29 9 45c0 22.667 -5.66699 38.667 -17 48s-23.666 14 -36.999 14c-15.333 0 -26.666 -3 -33.999 -9c-12 -8.66699 -18 -22.334 -18 -41c0 -24.667 15 -43 45 -55
c13.333 -5.33301 28.666 -10.666 45.999 -15.999zM334.997 1315l78 18c-29.333 13.333 -49.333 32 -60 56c-10.667 24.667 -16 52 -16 82c0 64 18.667 110.333 56 139c38.667 30 88.667 45 150 45c41.333 0 79.333 -11 114 -33v-100c-33.333 22 -71.333 33 -114 33
c-44 0 -71.667 -6 -83 -18c-19.333 -21.333 -29 -40.666 -29 -57.999c0 -51.333 31.333 -86 94 -104c22 -6.66699 73 -0.333984 153 18.999v-102l-343 -77v100z" />
    <glyph glyph-name="uni066E.init" unicode="&#x66e;" horiz-adv-x="570" 
d="M299 86c-48 -57.333 -124.333 -86.001 -229 -86.001h-90v184h35c66 0 113.667 14.667 143 44c32.667 32.667 49 84.334 49 155.001v217h184v-217c0 -124.667 -30.667 -223.667 -92 -297z" />
    <glyph glyph-name="uni066E.medi" unicode="&#x66e;" horiz-adv-x="618" 
d="M299 86c-51.333 -57.333 -127.667 -86 -229 -86h-90v184h35c66 0 113.667 14.667 143 44c32.667 32.667 49 84.334 49 155.001v217h184v-217c0 -70.667 16.333 -122.334 49 -155.001c29.333 -29.333 77 -44 143 -44h55v-184h-110c-100 0 -176.333 28.667 -229 86z" />
    <glyph glyph-name="uni066E.fina" unicode="&#x66e;" horiz-adv-x="2011" 
d="M1775 504c0 -138.667 23.333 -227.668 70 -267.001c42 -35.333 84 -53 126 -53h60v-184h-102c-77.333 0 -139.666 24.333 -186.999 73c-53.333 55.333 -88 105 -104 149c-103.333 -87.333 -232.666 -148.666 -387.999 -183.999
c-172.667 -38.667 -329.334 -58 -470.001 -58c-130.667 0 -237.334 12.667 -320.001 38c-219.333 67.333 -329.333 189 -330 365c-0.666992 92 20.333 168.667 63 230h184c-43.333 -62.667 -65 -139.334 -65 -230.001c0 -83.333 67.667 -147.333 203 -192
c69.333 -22.667 154.333 -34 255 -34c173.333 1.33301 323.333 20.333 450 57c132.667 38.667 240 94.334 322 167.001c39.333 34.667 59 91.667 59 171c0 41.333 -9.66699 80.333 -29 117h184c12.667 -50 19 -105 19 -165z" />
    <glyph glyph-name="uni066F.init" unicode="&#x66f;" horiz-adv-x="979" 
d="M598 537c27.333 28.667 41.002 68.666 41.002 119.999c0 39.333 -22 76 -66 110c-20.667 16.667 -45.667 24.667 -75 24c-34.667 -0.666992 -65.334 -15 -92.001 -43c-26.667 -27.333 -40.334 -58 -41.001 -92c0 -53.333 18.333 -92.666 55 -117.999
c26.667 -16.667 54 -25 82 -25c48 0 80 8 96 24zM-19.998 183.999h241.001c56 0 134.333 7.66699 235 23c52.667 8 99 43 139 105c20.667 32 36 64.667 46 98c-42 -36.667 -95.333 -55.667 -160 -57c-86.667 -1.33301 -156 21 -208 67c-65.333 58 -98 130 -98 216
c0 34.667 2.66699 66.667 8 96c15.333 98.667 73 171 173 217c52 24 103.333 36 154 36c60 0 112 -16.667 156 -50c64 -48 111.333 -106 142 -174c15.333 -34 23 -97.667 23 -191c0 -138.667 -26 -255.667 -78 -351c-49.333 -90.667 -115.333 -150.667 -198 -180
c-72.667 -26 -157.334 -39 -254.001 -39h-321v184z" />
    <glyph glyph-name="uni066F.medi" unicode="&#x66f;" horiz-adv-x="1036" 
d="M614 762c122 -53.333 191.001 -130 207.001 -230c5.33301 -33.333 8 -64 8 -92c0 -48.667 -7 -89.334 -21 -122.001c-19.333 -44.667 -41 -83.667 -65 -117c26 -11.333 88 -17 186 -17h127v-184h-217c-90.667 0 -197.667 19 -321 57c-123.333 -38 -230.333 -57 -321 -57
h-217v184h127c98 0 160 5.66699 186 17c-19.333 26.667 -41 65.667 -65 117c-14 30.667 -21 71.334 -21 122.001c0 29.333 2.66699 60 8 92c15.333 95.333 84.666 172 207.999 230c20 9.33301 51.667 14 95 14c42 0 74 -4.66699 96 -14zM518.001 592
c-10 0 -21 -3.33398 -33 -10.001c-37.333 -21.333 -64 -49.666 -80 -84.999c-6.66699 -14 -10 -30.667 -10 -50c0 -28.667 8 -60.667 24 -96c20.667 -45.333 53.667 -75.333 99 -90c42 14 75 44 99 90c16.667 33.333 25 65.333 25 96c0 16 -3.66699 32.667 -11 50
c-15.333 34.667 -42 63 -80 85c-12.667 6.66699 -23.667 10 -33 10z" />
    <glyph glyph-name="uni066F.fina" unicode="&#x66f;" horiz-adv-x="1708" 
d="M1208 10c-44 3.33301 -81.332 9.33398 -111.999 18.001c-80.667 23.333 -140 49.333 -178 78c-98 72.667 -147 170.667 -147 294c0 40.667 2 69.667 6 87c26.667 110 89 188 187 234c27.333 12.667 70 19 128 19c74.667 0 130.667 -16.667 168 -50
c66 -58.667 115.667 -136.334 149 -233.001c13.333 -38.667 22 -129.334 26 -272.001c17.333 -0.666992 27.333 -1 30 -1h263v-184h-268h-48c-30 -81.333 -65.333 -145.333 -106 -192c-85.333 -96.667 -180.666 -171 -285.999 -223
c-116.667 -57.333 -243.334 -85.666 -380.001 -84.999c-246.667 1.33301 -401.334 65.333 -464.001 192c-46 92 -69 179.667 -69 263c0 110.667 20.667 198 62 262h184c-41.333 -71.333 -62 -158.666 -62 -261.999c0 -50.667 9 -95.334 27 -134.001
c40 -86.667 147.333 -130 322 -130c93.333 0 190 22.667 290 68c142 65.333 234.667 149 278 251zM1251 203.001c2.66699 81.333 -3.33301 150.999 -18 208.999c-12.667 50 -34.667 86.667 -66 110c-22.667 16.667 -47 25 -73 25c-22.667 0 -41 -3.33301 -55 -10
c-34 -18 -58 -46.333 -72 -85c-6.66699 -20 -10 -38.333 -10 -55c0 -40 19 -74.667 57 -104c50.667 -39.333 109.334 -65.666 176.001 -78.999c31.333 -6 51.666 -9.66699 60.999 -11z" />
    <glyph glyph-name="uni067C.init" unicode="&#x67c;" horiz-adv-x="570" 
d="M299 86c-48 -57.333 -124.333 -86.001 -229 -86.001h-90v184h35c66 0 113.667 14.667 143 44c32.667 32.667 49 84.334 49 155.001v217h184v-217c0 -124.667 -30.667 -223.667 -92 -297zM349 999.999h150v-150h-150v150zM99 999.999h150v-150h-150v150zM396 -48.001
c0 26.667 -9.33301 49.333 -28 68c-18.667 19.333 -41.667 29 -69 29s-50.333 -9.33301 -69 -28s-28 -41.667 -28 -69c0 -28 9.33301 -51.333 28 -70c18.667 -18 41.667 -27 69 -27s50.333 9.33301 69 28s28 41.667 28 69zM518 -48.002c0 -61.333 -21 -113.333 -63 -156
c-42.667 -42.667 -94.667 -64 -156 -64s-113 21.333 -155 64c-42.667 42.667 -64 94.667 -64 156s21.333 113.333 64 156c42 42 93.667 63 155 63s113.333 -21 156 -63c42 -42.667 63 -94.667 63 -156z" />
    <glyph glyph-name="uni067C.medi" unicode="&#x67c;" horiz-adv-x="618" 
d="M299 86c-51.333 -57.333 -127.667 -86 -229 -86h-90v184h35c66 0 113.667 14.667 143 44c32.667 32.667 49 84.334 49 155.001v217h184v-217c0 -70.667 16.333 -122.334 49 -155.001c29.333 -29.333 77 -44 143 -44h55v-184h-110c-100 0 -176.333 28.667 -229 86z
M348.999 1000h150v-150h-150v150zM98.999 1000h150v-150h-150v150zM395.999 -48c0 26.667 -9.33301 49.333 -28 68c-18.667 19.333 -41.667 29 -69 29s-50.333 -9.33301 -69 -28s-28 -41.667 -28 -69c0 -28 9.33301 -51.333 28 -70c18.667 -18 41.667 -27 69 -27
s50.333 9.33301 69 28s28 41.667 28 69zM517.999 -48.001c0 -61.333 -21 -113.333 -63 -156c-42.667 -42.667 -94.667 -64 -156 -64s-113 21.333 -155 64c-42.667 42.667 -64 94.667 -64 156s21.333 113.333 64 156c42 42 93.667 63 155 63s113.333 -21 156 -63
c42 -42.667 63 -94.667 63 -156z" />
    <glyph glyph-name="uni067C.fina" unicode="&#x67c;" horiz-adv-x="2011" 
d="M950 800h150v-150h-150v150zM700 800h150v-150h-150v150zM997 -148c0 26.667 -9.33301 49.333 -28 68c-18.667 19.333 -41.667 29 -69 29s-50.333 -9.33301 -69 -28s-28 -41.667 -28 -69c0 -28 9.33301 -51.333 28 -70c18.667 -18 41.667 -27 69 -27
s50.333 9.33301 69 28s28 41.667 28 69zM1119 -148.001c0 -61.333 -21 -113.333 -63 -156c-42.667 -42.667 -94.667 -64 -156 -64s-113 21.333 -155 64c-42.667 42.667 -64 94.667 -64 156s21.333 113.333 64 156c42 42 93.667 63 155 63s113.333 -21 156 -63
c42 -42.667 63 -94.667 63 -156zM1775 503.999c0 -138.667 23.333 -227.668 70 -267.001c42 -35.333 84 -53 126 -53h60v-184h-102c-77.333 0 -139.666 24.333 -186.999 73c-53.333 55.333 -88 105 -104 149c-103.333 -87.333 -232.666 -148.666 -387.999 -183.999
c-172.667 -38.667 -329.334 -58 -470.001 -58c-130.667 0 -237.334 12.667 -320.001 38c-219.333 67.333 -329.333 189 -330 365c-0.666992 92 20.333 168.667 63 230h184c-43.333 -62.667 -65 -139.334 -65 -230.001c0 -83.333 67.667 -147.333 203 -192
c69.333 -22.667 154.333 -34 255 -34c173.333 1.33301 323.333 20.333 450 57c132.667 38.667 240 94.334 322 167.001c39.333 34.667 59 91.667 59 171c0 41.333 -9.66699 80.333 -29 117h184c12.667 -50 19 -105 19 -165z" />
    <glyph glyph-name="uni067D.init" unicode="&#x67d;" horiz-adv-x="570" 
d="M299 86c-48 -57.333 -124.333 -86.001 -229 -86.001h-90v184h35c66 0 113.667 14.667 143 44c32.667 32.667 49 84.334 49 155.001v217h184v-217c0 -124.667 -30.667 -223.667 -92 -297zM224 999.999h150v-150h-150v150zM349 1250h150v-150h-150v150zM99 1250h150v-150
h-150v150z" />
    <glyph glyph-name="uni067D.medi" unicode="&#x67d;" horiz-adv-x="618" 
d="M299 86c-51.333 -57.333 -127.667 -86 -229 -86h-90v184h35c66 0 113.667 14.667 143 44c32.667 32.667 49 84.334 49 155.001v217h184v-217c0 -70.667 16.333 -122.334 49 -155.001c29.333 -29.333 77 -44 143 -44h55v-184h-110c-100 0 -176.333 28.667 -229 86z
M223.999 1000h150v-150h-150v150zM348.999 1250h150v-150h-150v150zM98.999 1250h150v-150h-150v150z" />
    <glyph glyph-name="uni067D.fina" unicode="&#x67d;" horiz-adv-x="2011" 
d="M825 700h150v-150h-150v150zM950 950h150v-150h-150v150zM700 950h150v-150h-150v150zM1775 504c0 -138.667 23.333 -227.668 70 -267.001c42 -35.333 84 -53 126 -53h60v-184h-102c-77.333 0 -139.666 24.333 -186.999 73c-53.333 55.333 -88 105 -104 149
c-103.333 -87.333 -232.666 -148.666 -387.999 -183.999c-172.667 -38.667 -329.334 -58 -470.001 -58c-130.667 0 -237.334 12.667 -320.001 38c-219.333 67.333 -329.333 189 -330 365c-0.666992 92 20.333 168.667 63 230h184c-43.333 -62.667 -65 -139.334 -65 -230.001
c0 -83.333 67.667 -147.333 203 -192c69.333 -22.667 154.333 -34 255 -34c173.333 1.33301 323.333 20.333 450 57c132.667 38.667 240 94.334 322 167.001c39.333 34.667 59 91.667 59 171c0 41.333 -9.66699 80.333 -29 117h184c12.667 -50 19 -105 19 -165z" />
    <glyph glyph-name="uni0681.init" unicode="&#x681;" horiz-adv-x="1266" 
d="M851 541c-55.333 15.333 -117.331 30.665 -185.998 45.998c-56.667 12.667 -145 24.334 -265 35.001c-54.667 4.66699 -135.667 5 -243 1v184c48 4.66699 97 7.33398 147 8.00098c108 0 219.333 -11.667 334 -35c172 -34.667 331.333 -84.667 478 -150v-154
c-50.667 -16 -105.334 -41.333 -164.001 -76c-110.667 -65.333 -190.667 -120 -240 -164c-96.667 -86 -170 -138 -220 -156c-147.333 -53.333 -275.333 -80 -384 -80h-128v184h100c151.333 0 270 24 356 72c69.333 38.667 142.666 93.334 219.999 164.001
c62.667 57.333 127.667 97.666 195 120.999zM423.002 1015l78 18c-29.333 13.333 -49.333 32 -60 56c-10.667 24.667 -16 52 -16 82c0 64 18.667 110.333 56 139c38.667 30 88.667 45 150 45c41.333 0 79.333 -11 114 -33v-100c-33.333 22 -71.333 33 -114 33
c-44 0 -71.667 -6 -83 -18c-19.333 -21.333 -29 -40.666 -29 -57.999c0 -51.333 31.333 -86 94 -104c22 -6.66699 73 -0.333984 153 18.999v-102l-343 -77v100z" />
    <glyph glyph-name="uni0681.medi" unicode="&#x681;" horiz-adv-x="1322" 
d="M638 780c172 -34.667 331.334 -84.668 478.001 -150.001v-154c-43.333 -13.333 -89.333 -33.666 -138 -60.999c33.333 -52 60 -89.333 80 -112c69.333 -79.333 142 -119 218 -119h66v-184h-86c-139.333 0 -251 56 -335 168c-26.667 36 -59.667 86.333 -99 151
c-46 -30.667 -82.667 -58.334 -110 -83.001c-96.667 -86 -170 -138 -220 -156c-147.333 -53.333 -275.333 -80 -384 -80h-128v184h100c151.333 0 270 24 356 72c69.333 38.667 142.666 93.334 219.999 164.001c62.667 57.333 127.667 97.666 195 120.999
c-55.333 15.333 -117.333 30.666 -186 45.999c-56.667 12.667 -145 24.334 -265 35.001c-54.667 4.66699 -135.667 5 -243 1v184c48 4.66699 97 7.33398 147 8.00098c108 0 219.333 -11.667 334 -35zM423.001 1015l78 18c-29.333 13.333 -49.333 32 -60 56
c-10.667 24.667 -16 52 -16 82c0 64 18.667 110.333 56 139c38.667 30 88.667 45 150 45c41.333 0 79.333 -11 114 -33v-100c-33.333 22 -71.333 33 -114 33c-44 0 -71.667 -6 -83 -18c-19.333 -21.333 -29 -40.666 -29 -57.999c0 -51.333 31.333 -86 94 -104
c22 -6.66699 73 -0.333984 153 18.999v-102l-343 -77v100z" />
    <glyph glyph-name="uni0681.fina" unicode="&#x681;" horiz-adv-x="1322" 
d="M1302 184h40.002v-184h-49c-86 0 -170 50 -252 150c-54.667 66.667 -102.334 152 -143.001 256l-79 193c-76 -16 -146.667 -50.667 -212 -104c-149.333 -122 -224 -267 -224 -435c0 -91.333 24.667 -168.333 74 -231c86 -109.333 238.667 -164 458 -164
c128.667 0 263.667 39.333 405 118v-184c-100 -66 -233.333 -99 -400 -99c-278.667 0 -474.334 64.667 -587.001 194c-87.333 100 -131 224.667 -131 374c0 172 70.667 332.333 212 481c64 67.333 141.667 118.333 233 153h-25c-63.333 0 -141.666 -6.33301 -234.999 -19
c-90 -12.667 -166.667 -32.667 -230 -60v184c181.333 42 336.333 63 465 63c196 0 360.667 -18 494 -54v-154c-72.667 0 -119.334 -4.33301 -140.001 -13l29 -91c34 -106.667 75 -191.667 123 -255c60 -79.333 118 -119 174 -119zM473.002 1115l78 18
c-29.333 13.333 -49.333 32 -60 56c-10.667 24.667 -16 52 -16 82c0 64 18.667 110.333 56 139c38.667 30 88.667 45 150 45c41.333 0 79.333 -11 114 -33v-100c-33.333 22 -71.333 33 -114 33c-44 0 -71.667 -6 -83 -18c-19.333 -21.333 -29 -40.666 -29 -57.999
c0 -51.333 31.333 -86 94 -104c22 -6.66699 73 -0.333984 153 18.999v-102l-343 -77v100z" />
    <glyph glyph-name="uni0682.init" unicode="&#x682;" horiz-adv-x="1266" 
d="M851 541c-55.333 15.333 -117.331 30.665 -185.998 45.998c-56.667 12.667 -145 24.334 -265 35.001c-54.667 4.66699 -135.667 5 -243 1v184c48 4.66699 97 7.33398 147 8.00098c108 0 219.333 -11.667 334 -35c172 -34.667 331.333 -84.667 478 -150v-154
c-50.667 -16 -105.334 -41.333 -164.001 -76c-110.667 -65.333 -190.667 -120 -240 -164c-96.667 -86 -170 -138 -220 -156c-147.333 -53.333 -275.333 -80 -384 -80h-128v184h100c151.333 0 270 24 356 72c69.333 38.667 142.666 93.334 219.999 164.001
c62.667 57.333 127.667 97.666 195 120.999zM525.002 1100h150v-150h-150v150zM525.002 1350h150v-150h-150v150z" />
    <glyph glyph-name="uni0682.medi" unicode="&#x682;" horiz-adv-x="1322" 
d="M638 780c172 -34.667 331.334 -84.668 478.001 -150.001v-154c-43.333 -13.333 -89.333 -33.666 -138 -60.999c33.333 -52 60 -89.333 80 -112c69.333 -79.333 142 -119 218 -119h66v-184h-86c-139.333 0 -251 56 -335 168c-26.667 36 -59.667 86.333 -99 151
c-46 -30.667 -82.667 -58.334 -110 -83.001c-96.667 -86 -170 -138 -220 -156c-147.333 -53.333 -275.333 -80 -384 -80h-128v184h100c151.333 0 270 24 356 72c69.333 38.667 142.666 93.334 219.999 164.001c62.667 57.333 127.667 97.666 195 120.999
c-55.333 15.333 -117.333 30.666 -186 45.999c-56.667 12.667 -145 24.334 -265 35.001c-54.667 4.66699 -135.667 5 -243 1v184c48 4.66699 97 7.33398 147 8.00098c108 0 219.333 -11.667 334 -35zM525.001 1100h150v-150h-150v150zM525.001 1350h150v-150h-150v150z" />
    <glyph glyph-name="uni0682.fina" unicode="&#x682;" horiz-adv-x="1322" 
d="M1302 184h40.002v-184h-49c-86 0 -170 50 -252 150c-54.667 66.667 -102.334 152 -143.001 256l-79 193c-76 -16 -146.667 -50.667 -212 -104c-149.333 -122 -224 -267 -224 -435c0 -91.333 24.667 -168.333 74 -231c86 -109.333 238.667 -164 458 -164
c128.667 0 263.667 39.333 405 118v-184c-100 -66 -233.333 -99 -400 -99c-278.667 0 -474.334 64.667 -587.001 194c-87.333 100 -131 224.667 -131 374c0 172 70.667 332.333 212 481c64 67.333 141.667 118.333 233 153h-25c-63.333 0 -141.666 -6.33301 -234.999 -19
c-90 -12.667 -166.667 -32.667 -230 -60v184c181.333 42 336.333 63 465 63c196 0 360.667 -18 494 -54v-154c-72.667 0 -119.334 -4.33301 -140.001 -13l29 -91c34 -106.667 75 -191.667 123 -255c60 -79.333 118 -119 174 -119zM575.002 1200h150v-150h-150v150z
M575.002 1450h150v-150h-150v150z" />
    <glyph glyph-name="uni0685.init" unicode="&#x685;" horiz-adv-x="1266" 
d="M851 541c-55.333 15.333 -117.331 30.665 -185.998 45.998c-56.667 12.667 -145 24.334 -265 35.001c-54.667 4.66699 -135.667 5 -243 1v184c48 4.66699 97 7.33398 147 8.00098c108 0 219.333 -11.667 334 -35c172 -34.667 331.333 -84.667 478 -150v-154
c-50.667 -16 -105.334 -41.333 -164.001 -76c-110.667 -65.333 -190.667 -120 -240 -164c-96.667 -86 -170 -138 -220 -156c-147.333 -53.333 -275.333 -80 -384 -80h-128v184h100c151.333 0 270 24 356 72c69.333 38.667 142.666 93.334 219.999 164.001
c62.667 57.333 127.667 97.666 195 120.999zM525.002 1350h150v-150h-150v150zM650.002 1100h150v-150h-150v150zM400.002 1100h150v-150h-150v150z" />
    <glyph glyph-name="uni0685.medi" unicode="&#x685;" horiz-adv-x="1322" 
d="M638 780c172 -34.667 331.334 -84.668 478.001 -150.001v-154c-43.333 -13.333 -89.333 -33.666 -138 -60.999c33.333 -52 60 -89.333 80 -112c69.333 -79.333 142 -119 218 -119h66v-184h-86c-139.333 0 -251 56 -335 168c-26.667 36 -59.667 86.333 -99 151
c-46 -30.667 -82.667 -58.334 -110 -83.001c-96.667 -86 -170 -138 -220 -156c-147.333 -53.333 -275.333 -80 -384 -80h-128v184h100c151.333 0 270 24 356 72c69.333 38.667 142.666 93.334 219.999 164.001c62.667 57.333 127.667 97.666 195 120.999
c-55.333 15.333 -117.333 30.666 -186 45.999c-56.667 12.667 -145 24.334 -265 35.001c-54.667 4.66699 -135.667 5 -243 1v184c48 4.66699 97 7.33398 147 8.00098c108 0 219.333 -11.667 334 -35zM525.001 1350h150v-150h-150v150zM650.001 1100h150v-150h-150v150z
M400.001 1100h150v-150h-150v150z" />
    <glyph glyph-name="uni0685.fina" unicode="&#x685;" horiz-adv-x="1322" 
d="M1302 184h40.002v-184h-49c-86 0 -170 50 -252 150c-54.667 66.667 -102.334 152 -143.001 256l-79 193c-76 -16 -146.667 -50.667 -212 -104c-149.333 -122 -224 -267 -224 -435c0 -91.333 24.667 -168.333 74 -231c86 -109.333 238.667 -164 458 -164
c128.667 0 263.667 39.333 405 118v-184c-100 -66 -233.333 -99 -400 -99c-278.667 0 -474.334 64.667 -587.001 194c-87.333 100 -131 224.667 -131 374c0 172 70.667 332.333 212 481c64 67.333 141.667 118.333 233 153h-25c-63.333 0 -141.666 -6.33301 -234.999 -19
c-90 -12.667 -166.667 -32.667 -230 -60v184c181.333 42 336.333 63 465 63c196 0 360.667 -18 494 -54v-154c-72.667 0 -119.334 -4.33301 -140.001 -13l29 -91c34 -106.667 75 -191.667 123 -255c60 -79.333 118 -119 174 -119zM575.002 1450h150v-150h-150v150z
M700.002 1200h150v-150h-150v150zM450.002 1200h150v-150h-150v150z" />
    <glyph glyph-name="uni0689.fina" unicode="&#x689;" horiz-adv-x="1075" 
d="M597 -148c0 26.667 -9.33301 49.333 -28 68c-18.667 19.333 -41.667 29 -69 29s-50.333 -9.33301 -69 -28s-28 -41.667 -28 -69c0 -28 9.33301 -51.333 28 -70c18.667 -18 41.667 -27 69 -27s50.333 9.33301 69 28s28 41.667 28 69zM719 -148.001
c0 -61.333 -21 -113.333 -63 -156c-42.667 -42.667 -94.667 -64 -156 -64s-113 21.333 -155 64c-42.667 42.667 -64 94.667 -64 156s21.333 113.333 64 156c42 42 93.667 63 155 63s113.333 -21 156 -63c42 -42.667 63 -94.667 63 -156zM546 574.999
c-38 81.333 -117.668 172.999 -239.001 274.999h227c64.667 -52 124.334 -123.667 179.001 -215c54 -89.333 81 -173 81 -251c0 -48.667 27.667 -100.667 83 -156c29.333 -29.333 77 -44 143 -44h75v-184h-130c-98 0 -179.333 43.333 -244 130
c-62 -85.333 -162 -139 -300 -161c-30.667 -4.66699 -61 -7 -91 -7c-68 0 -136.333 12.667 -205 38v184c76.667 -28 143 -42 199 -42c22 0 44.333 3 67 9c114.667 32.667 183.667 86.334 207 161.001c5.33301 18 8 41 8 69c0 45.333 -20 110 -60 194z" />
    <glyph glyph-name="uni068A.fina" unicode="&#x68a;" horiz-adv-x="1075" 
d="M425 -200h150v-150h-150v150zM546 575c-38 81.333 -117.668 172.999 -239.001 274.999h227c64.667 -52 124.334 -123.667 179.001 -215c54 -89.333 81 -173 81 -251c0 -48.667 27.667 -100.667 83 -156c29.333 -29.333 77 -44 143 -44h75v-184h-130
c-98 0 -179.333 43.333 -244 130c-62 -85.333 -162 -139 -300 -161c-30.667 -4.66699 -61 -7 -91 -7c-68 0 -136.333 12.667 -205 38v184c76.667 -28 143 -42 199 -42c22 0 44.333 3 67 9c114.667 32.667 183.667 86.334 207 161.001c5.33301 18 8 41 8 69
c0 45.333 -20 110 -60 194z" />
    <glyph glyph-name="uni068B.fina" unicode="&#x68b;" horiz-adv-x="1075" 
d="M399 1128h55c52 0 85.333 4.33301 100 13c35.333 22 53 40 53 54c0 21.333 -10 37.333 -30 48c-0.666992 0.666992 -24.667 -8.33301 -72 -27c-34.667 -14 -70 -43.333 -106 -88zM477 1027h-175h-112v101h81v399h102v-321c24 48.667 70.667 86.334 140 113.001
c42 16 86.333 15.333 133 -2c43.333 -16.667 65 -52.334 65 -107.001c0 -60.667 -21.333 -107.667 -64 -141c-36 -28 -92.667 -42 -170 -42zM425 -200h150v-150h-150v150zM546 575c-38 81.333 -117.668 172.999 -239.001 274.999h227
c64.667 -52 124.334 -123.667 179.001 -215c54 -89.333 81 -173 81 -251c0 -48.667 27.667 -100.667 83 -156c29.333 -29.333 77 -44 143 -44h75v-184h-130c-98 0 -179.333 43.333 -244 130c-62 -85.333 -162 -139 -300 -161c-30.667 -4.66699 -61 -7 -91 -7
c-68 0 -136.333 12.667 -205 38v184c76.667 -28 143 -42 199 -42c22 0 44.333 3 67 9c114.667 32.667 183.667 86.334 207 161.001c5.33301 18 8 41 8 69c0 45.333 -20 110 -60 194z" />
    <glyph glyph-name="uni068F.fina" unicode="&#x68f;" horiz-adv-x="1075" 
d="M375 1150h150v-150h-150v150zM500 1400h150v-150h-150v150zM250 1400h150v-150h-150v150zM546 575c-38 81.333 -117.668 172.999 -239.001 274.999h227c64.667 -52 124.334 -123.667 179.001 -215c54 -89.333 81 -173 81 -251c0 -48.667 27.667 -100.667 83 -156
c29.333 -29.333 77 -44 143 -44h75v-184h-130c-98 0 -179.333 43.333 -244 130c-62 -85.333 -162 -139 -300 -161c-30.667 -4.66699 -61 -7 -91 -7c-68 0 -136.333 12.667 -205 38v184c76.667 -28 143 -42 199 -42c22 0 44.333 3 67 9
c114.667 32.667 183.667 86.334 207 161.001c5.33301 18 8 41 8 69c0 45.333 -20 110 -60 194z" />
    <glyph glyph-name="uni0690.fina" unicode="&#x690;" horiz-adv-x="1075" 
d="M500 1200h150v-150h-150v150zM500 1450h150v-150h-150v150zM250 1200h150v-150h-150v150zM250 1450h150v-150h-150v150zM546 575c-38 81.333 -117.668 172.999 -239.001 274.999h227c64.667 -52 124.334 -123.667 179.001 -215c54 -89.333 81 -173 81 -251
c0 -48.667 27.667 -100.667 83 -156c29.333 -29.333 77 -44 143 -44h75v-184h-130c-98 0 -179.333 43.333 -244 130c-62 -85.333 -162 -139 -300 -161c-30.667 -4.66699 -61 -7 -91 -7c-68 0 -136.333 12.667 -205 38v184c76.667 -28 143 -42 199 -42c22 0 44.333 3 67 9
c114.667 32.667 183.667 86.334 207 161.001c5.33301 18 8 41 8 69c0 45.333 -20 110 -60 194z" />
    <glyph glyph-name="uni0692.fina" unicode="&#x692;" horiz-adv-x="1130" 
d="M626 812l-195 326h139l130 -195l130 195h139l-195 -326h-148zM632 550h183.999c20 -74.667 31 -122 33 -142c6.66699 -68.667 34.334 -128.667 83.001 -180c28 -29.333 75.667 -44 143 -44h75v-184h-130c-86.667 0 -146.667 20.667 -180 62
c-45.333 -185.333 -151.666 -322.333 -318.999 -411c-189.333 -100.667 -391.333 -151 -606 -151v184c202.667 0 371.667 42.667 507 128c145.333 92 229.666 207.333 252.999 346c6.66699 38.667 10 82 10 130c0 84 -17.667 171.333 -53 262z" />
    <glyph glyph-name="uni0693.fina" unicode="&#x693;" horiz-adv-x="1130" 
d="M916 -280c0 26.667 -9.33301 49.333 -28 68c-18.667 19.333 -41.667 29 -69 29s-50.333 -9.33301 -69 -28s-28 -41.667 -28 -69c0 -28 9.33301 -51.333 28 -70c18.667 -18 41.667 -27 69 -27s50.333 9.33301 69 28s28 41.667 28 69zM1038 -280.001
c0 -61.333 -21 -113.333 -63 -156c-42.667 -42.667 -94.667 -64 -156 -64s-113 21.333 -155 64c-42.667 42.667 -64 94.667 -64 156s21.333 113.333 64 156c42 42 93.667 63 155 63s113.333 -21 156 -63c42 -42.667 63 -94.667 63 -156zM632 549.999h183.999
c20 -74.667 31 -122 33 -142c6.66699 -68.667 34.334 -128.667 83.001 -180c28 -29.333 75.667 -44 143 -44h75v-184h-130c-86.667 0 -146.667 20.667 -180 62c-45.333 -185.333 -151.666 -322.333 -318.999 -411c-189.333 -100.667 -391.333 -151 -606 -151v184
c202.667 0 371.667 42.667 507 128c145.333 92 229.666 207.333 252.999 346c6.66699 38.667 10 82 10 130c0 84 -17.667 171.333 -53 262z" />
    <glyph glyph-name="uni0694.fina" unicode="&#x694;" horiz-adv-x="1130" 
d="M820 -290h150v-150h-150v150zM632 550h183.999c20 -74.667 31 -122 33 -142c6.66699 -68.667 34.334 -128.667 83.001 -180c28 -29.333 75.667 -44 143 -44h75v-184h-130c-86.667 0 -146.667 20.667 -180 62c-45.333 -185.333 -151.666 -322.333 -318.999 -411
c-189.333 -100.667 -391.333 -151 -606 -151v184c202.667 0 371.667 42.667 507 128c145.333 92 229.666 207.333 252.999 346c6.66699 38.667 10 82 10 130c0 84 -17.667 171.333 -53 262z" />
    <glyph glyph-name="uni0695.fina" unicode="&#x695;" horiz-adv-x="1250" 
d="M632 550h183.999c20 -74.667 31 -122 33 -142c6.66699 -68.667 34.334 -128.667 83.001 -180c28 -29.333 75.667 -44 143 -44h195v-184h-250c-86.667 0 -146.667 20.667 -180 62c-45.333 -185.333 -151.666 -322.333 -318.999 -411
c-189.333 -100.667 -391.333 -151 -606 -151v184c202.667 0 371.667 42.667 507 128c145.333 92 229.666 207.333 252.999 346c6.66699 38.667 10 82 10 130c0 84 -17.667 171.333 -53 262zM955.999 -500l-195 326h139l130 -195l130 195h139l-195 -326h-148z" />
    <glyph glyph-name="uni0696.fina" unicode="&#x696;" horiz-adv-x="1130" 
d="M180 190h150v-150h-150v150zM820 -290h150v-150h-150v150zM632 550h183.999c20 -74.667 31 -122 33 -142c6.66699 -68.667 34.334 -128.667 83.001 -180c28 -29.333 75.667 -44 143 -44h75v-184h-130c-86.667 0 -146.667 20.667 -180 62
c-45.333 -185.333 -151.666 -322.333 -318.999 -411c-189.333 -100.667 -391.333 -151 -606 -151v184c202.667 0 371.667 42.667 507 128c145.333 92 229.666 207.333 252.999 346c6.66699 38.667 10 82 10 130c0 84 -17.667 171.333 -53 262z" />
    <glyph glyph-name="uni0697.fina" unicode="&#x697;" horiz-adv-x="1130" 
d="M750 950h150v-150h-150v150zM500 950h150v-150h-150v150zM632 550h183.999c20 -74.667 31 -122 33 -142c6.66699 -68.667 34.334 -128.667 83.001 -180c28 -29.333 75.667 -44 143 -44h75v-184h-130c-86.667 0 -146.667 20.667 -180 62
c-45.333 -185.333 -151.666 -322.333 -318.999 -411c-189.333 -100.667 -391.333 -151 -606 -151v184c202.667 0 371.667 42.667 507 128c145.333 92 229.666 207.333 252.999 346c6.66699 38.667 10 82 10 130c0 84 -17.667 171.333 -53 262z" />
    <glyph glyph-name="uni0699.fina" unicode="&#x699;" horiz-adv-x="1130" 
d="M750 950h150v-150h-150v150zM750 1200h150v-150h-150v150zM500 950h150v-150h-150v150zM500 1200h150v-150h-150v150zM632 550h183.999c20 -74.667 31 -122 33 -142c6.66699 -68.667 34.334 -128.667 83.001 -180c28 -29.333 75.667 -44 143 -44h75v-184h-130
c-86.667 0 -146.667 20.667 -180 62c-45.333 -185.333 -151.666 -322.333 -318.999 -411c-189.333 -100.667 -391.333 -151 -606 -151v184c202.667 0 371.667 42.667 507 128c145.333 92 229.666 207.333 252.999 346c6.66699 38.667 10 82 10 130
c0 84 -17.667 171.333 -53 262z" />
    <glyph glyph-name="uni069A.init" unicode="&#x69a;" 
d="M384 138c-28.667 -39.333 -61.668 -70 -99.001 -92c-50.667 -30.667 -109 -46 -175 -46h-130v184h75c66 0 113.667 14.667 143 44c53.333 53.333 80 113.333 80 180v192h184v-156c0 -42.667 14.667 -97.334 44 -164.001c28.667 -66 77.667 -99 147 -99
c72.667 0 123.667 40.667 153 122c24.667 68.667 37 167.667 37 297h184c0 -136.667 6.33301 -221.667 19 -255c42.667 -113.333 100.667 -169.666 174 -168.999c94.667 1.33301 142 94.666 142 279.999v294h184v-342c0 -132.667 -30.667 -236.667 -92 -312
c-50 -61.333 -109 -100 -177 -116c-24.667 -6 -48.667 -9 -72 -9c-42 0 -81.333 8.33301 -118 25c-91.333 40.667 -143 105 -155 193c-32 -104 -80 -167 -144 -189c-45.333 -16 -89.666 -24 -132.999 -24c-65.333 0 -122 16.333 -170 49
c-40 26.667 -73.667 64.334 -101 113.001zM774.999 1000h150v-150h-150v150zM924.999 -200h150v-150h-150v150z" />
    <glyph glyph-name="uni069A.medi" unicode="&#x69a;" horiz-adv-x="1827" 
d="M1277 -20c-24.667 -6 -48.667 -9 -72 -9c-42 0 -81.333 8.33301 -118 25c-91.333 40.667 -143 105 -155 193c-32 -104 -80 -167 -144 -189c-45.333 -16 -89.666 -24 -132.999 -24c-65.333 0 -122 16.333 -170 49c-40 26.667 -73.667 64.334 -101 113.001
c-28.667 -39.333 -61.667 -70 -99 -92c-50.667 -30.667 -109 -46 -175 -46h-130v184h75c66 0 113.667 14.667 143 44c53.333 53.333 80 113.333 80 180v192h184v-156c0 -42.667 14.667 -97.334 44 -164.001c28.667 -66 77.667 -99 147 -99c72.667 0 123.667 40.667 153 122
c24.667 68.667 37 167.667 37 297h184c0 -136.667 6.33301 -221.667 19 -255c42.667 -113.333 100.667 -169.666 174 -168.999c94.667 1.33301 142 94.666 142 279.999v294h184v-342c0 -64.667 27.667 -124.667 83 -180c29.333 -29.333 77 -44 143 -44h75v-184h-130
c-96.667 0 -184.334 32 -263.001 96c-45.333 -60 -104.333 -98.667 -177 -116zM775 1000h150v-150h-150v150zM925 -200h150v-150h-150v150z" />
    <glyph glyph-name="uni069A.fina" unicode="&#x69a;" horiz-adv-x="2611" 
d="M1464 181c52 -1.33301 94.002 39.3301 126.002 121.997c24.667 63.333 37 162.333 37 297h184c0 -136.667 6.33301 -221.667 19 -255c42.667 -112.667 100.667 -169 174 -169c94.667 0 142 93.333 142 280v294h184v-342c0 -64.667 27.667 -124.667 83 -180
c29.333 -29.333 77 -44 143 -44h75v-184h-130c-96.667 0 -184.334 32 -263.001 96c-45.333 -60.667 -104.333 -99.334 -177 -116.001c-24.667 -6 -47.667 -9 -69 -9c-48.667 0 -89 8.33301 -121 25c-92 46.667 -143.667 111 -155 193c-32.667 -106 -80.667 -169 -144 -189
c-42.667 -13.333 -82.667 -19.333 -120 -18c-91.333 1.33301 -150 22 -176 62c-16 -119.333 -52 -214.666 -108 -285.999c-88.667 -113.333 -197.334 -190.666 -326.001 -231.999c-53.333 -17.333 -120 -26 -200 -26c-85.333 0.666992 -164.333 10.334 -237 29.001
c-183.333 47.333 -275 180.333 -275 399c0 164 35 306 105 426h184c-72 -137.333 -107.667 -279.333 -107 -426c0.666992 -119.333 50 -191.666 148 -216.999c63.333 -16 122 -24 176 -24c65.333 0 129.666 12.333 192.999 37c80.667 32 152.334 100.667 215.001 206
c42.667 72 63.667 155.333 63 250c-0.666992 83.333 -6.33398 145.333 -17.001 186l-64 234h184l36 -156c10.667 -49.333 25.334 -94 44.001 -134c38.667 -84 96.667 -127 174 -129zM1375 949.996h150v-150h-150v150zM1525 -200.004h150v-150h-150v150z" />
    <glyph glyph-name="uni069B.init" unicode="&#x69b;" 
d="M384 138c-28.667 -39.333 -61.668 -70 -99.001 -92c-50.667 -30.667 -109 -46 -175 -46h-130v184h75c66 0 113.667 14.667 143 44c53.333 53.333 80 113.333 80 180v192h184v-156c0 -42.667 14.667 -97.334 44 -164.001c28.667 -66 77.667 -99 147 -99
c72.667 0 123.667 40.667 153 122c24.667 68.667 37 167.667 37 297h184c0 -136.667 6.33301 -221.667 19 -255c42.667 -113.333 100.667 -169.666 174 -168.999c94.667 1.33301 142 94.666 142 279.999v294h184v-342c0 -132.667 -30.667 -236.667 -92 -312
c-50 -61.333 -109 -100 -177 -116c-24.667 -6 -48.667 -9 -72 -9c-42 0 -81.333 8.33301 -118 25c-91.333 40.667 -143 105 -155 193c-32 -104 -80 -167 -144 -189c-45.333 -16 -89.666 -24 -132.999 -24c-65.333 0 -122 16.333 -170 49
c-40 26.667 -73.667 64.334 -101 113.001zM924.999 -350h150v-150h-150v150zM1050 -100h150v-150h-150v150zM799.999 -100h150v-150h-150v150z" />
    <glyph glyph-name="uni069B.medi" unicode="&#x69b;" horiz-adv-x="1827" 
d="M1277 -20c-24.667 -6 -48.667 -9 -72 -9c-42 0 -81.333 8.33301 -118 25c-91.333 40.667 -143 105 -155 193c-32 -104 -80 -167 -144 -189c-45.333 -16 -89.666 -24 -132.999 -24c-65.333 0 -122 16.333 -170 49c-40 26.667 -73.667 64.334 -101 113.001
c-28.667 -39.333 -61.667 -70 -99 -92c-50.667 -30.667 -109 -46 -175 -46h-130v184h75c66 0 113.667 14.667 143 44c53.333 53.333 80 113.333 80 180v192h184v-156c0 -42.667 14.667 -97.334 44 -164.001c28.667 -66 77.667 -99 147 -99c72.667 0 123.667 40.667 153 122
c24.667 68.667 37 167.667 37 297h184c0 -136.667 6.33301 -221.667 19 -255c42.667 -113.333 100.667 -169.666 174 -168.999c94.667 1.33301 142 94.666 142 279.999v294h184v-342c0 -64.667 27.667 -124.667 83 -180c29.333 -29.333 77 -44 143 -44h75v-184h-130
c-96.667 0 -184.334 32 -263.001 96c-45.333 -60 -104.333 -98.667 -177 -116zM925 -350h150v-150h-150v150zM1050 -100h150v-150h-150v150zM800 -100h150v-150h-150v150z" />
    <glyph glyph-name="uni069B.fina" unicode="&#x69b;" horiz-adv-x="2611" 
d="M1464 181c52 -1.33301 94.002 39.3301 126.002 121.997c24.667 63.333 37 162.333 37 297h184c0 -136.667 6.33301 -221.667 19 -255c42.667 -112.667 100.667 -169 174 -169c94.667 0 142 93.333 142 280v294h184v-342c0 -64.667 27.667 -124.667 83 -180
c29.333 -29.333 77 -44 143 -44h75v-184h-130c-96.667 0 -184.334 32 -263.001 96c-45.333 -60.667 -104.333 -99.334 -177 -116.001c-24.667 -6 -47.667 -9 -69 -9c-48.667 0 -89 8.33301 -121 25c-92 46.667 -143.667 111 -155 193c-32.667 -106 -80.667 -169 -144 -189
c-42.667 -13.333 -82.667 -19.333 -120 -18c-91.333 1.33301 -150 22 -176 62c-16 -119.333 -52 -214.666 -108 -285.999c-88.667 -113.333 -197.334 -190.666 -326.001 -231.999c-53.333 -17.333 -120 -26 -200 -26c-85.333 0.666992 -164.333 10.334 -237 29.001
c-183.333 47.333 -275 180.333 -275 399c0 164 35 306 105 426h184c-72 -137.333 -107.667 -279.333 -107 -426c0.666992 -119.333 50 -191.666 148 -216.999c63.333 -16 122 -24 176 -24c65.333 0 129.666 12.333 192.999 37c80.667 32 152.334 100.667 215.001 206
c42.667 72 63.667 155.333 63 250c-0.666992 83.333 -6.33398 145.333 -17.001 186l-64 234h184l36 -156c10.667 -49.333 25.334 -94 44.001 -134c38.667 -84 96.667 -127 174 -129zM1525 -350.004h150v-150h-150v150zM1650 -100.004h150v-150h-150v150zM1400 -100.004h150
v-150h-150v150z" />
    <glyph glyph-name="uni069C.init" unicode="&#x69c;" 
d="M384 138c-28.667 -39.333 -61.668 -70 -99.001 -92c-50.667 -30.667 -109 -46 -175 -46h-130v184h75c66 0 113.667 14.667 143 44c53.333 53.333 80 113.333 80 180v192h184v-156c0 -42.667 14.667 -97.334 44 -164.001c28.667 -66 77.667 -99 147 -99
c72.667 0 123.667 40.667 153 122c24.667 68.667 37 167.667 37 297h184c0 -136.667 6.33301 -221.667 19 -255c42.667 -113.333 100.667 -169.666 174 -168.999c94.667 1.33301 142 94.666 142 279.999v294h184v-342c0 -132.667 -30.667 -236.667 -92 -312
c-50 -61.333 -109 -100 -177 -116c-24.667 -6 -48.667 -9 -72 -9c-42 0 -81.333 8.33301 -118 25c-91.333 40.667 -143 105 -155 193c-32 -104 -80 -167 -144 -189c-45.333 -16 -89.666 -24 -132.999 -24c-65.333 0 -122 16.333 -170 49
c-40 26.667 -73.667 64.334 -101 113.001zM774.999 1200h150v-150h-150v150zM899.999 950h150v-150h-150v150zM649.999 950h150v-150h-150v150zM924.999 -350h150v-150h-150v150zM1050 -100h150v-150h-150v150zM799.999 -100h150v-150h-150v150z" />
    <glyph glyph-name="uni069C.medi" unicode="&#x69c;" horiz-adv-x="1827" 
d="M1277 -20c-24.667 -6 -48.667 -9 -72 -9c-42 0 -81.333 8.33301 -118 25c-91.333 40.667 -143 105 -155 193c-32 -104 -80 -167 -144 -189c-45.333 -16 -89.666 -24 -132.999 -24c-65.333 0 -122 16.333 -170 49c-40 26.667 -73.667 64.334 -101 113.001
c-28.667 -39.333 -61.667 -70 -99 -92c-50.667 -30.667 -109 -46 -175 -46h-130v184h75c66 0 113.667 14.667 143 44c53.333 53.333 80 113.333 80 180v192h184v-156c0 -42.667 14.667 -97.334 44 -164.001c28.667 -66 77.667 -99 147 -99c72.667 0 123.667 40.667 153 122
c24.667 68.667 37 167.667 37 297h184c0 -136.667 6.33301 -221.667 19 -255c42.667 -113.333 100.667 -169.666 174 -168.999c94.667 1.33301 142 94.666 142 279.999v294h184v-342c0 -64.667 27.667 -124.667 83 -180c29.333 -29.333 77 -44 143 -44h75v-184h-130
c-96.667 0 -184.334 32 -263.001 96c-45.333 -60 -104.333 -98.667 -177 -116zM775 1200h150v-150h-150v150zM900 950h150v-150h-150v150zM650 950h150v-150h-150v150zM925 -350h150v-150h-150v150zM1050 -100h150v-150h-150v150zM800 -100h150v-150h-150v150z" />
    <glyph glyph-name="uni069C.fina" unicode="&#x69c;" horiz-adv-x="2611" 
d="M1464 181c52 -1.33301 94.002 39.3301 126.002 121.997c24.667 63.333 37 162.333 37 297h184c0 -136.667 6.33301 -221.667 19 -255c42.667 -112.667 100.667 -169 174 -169c94.667 0 142 93.333 142 280v294h184v-342c0 -64.667 27.667 -124.667 83 -180
c29.333 -29.333 77 -44 143 -44h75v-184h-130c-96.667 0 -184.334 32 -263.001 96c-45.333 -60.667 -104.333 -99.334 -177 -116.001c-24.667 -6 -47.667 -9 -69 -9c-48.667 0 -89 8.33301 -121 25c-92 46.667 -143.667 111 -155 193c-32.667 -106 -80.667 -169 -144 -189
c-42.667 -13.333 -82.667 -19.333 -120 -18c-91.333 1.33301 -150 22 -176 62c-16 -119.333 -52 -214.666 -108 -285.999c-88.667 -113.333 -197.334 -190.666 -326.001 -231.999c-53.333 -17.333 -120 -26 -200 -26c-85.333 0.666992 -164.333 10.334 -237 29.001
c-183.333 47.333 -275 180.333 -275 399c0 164 35 306 105 426h184c-72 -137.333 -107.667 -279.333 -107 -426c0.666992 -119.333 50 -191.666 148 -216.999c63.333 -16 122 -24 176 -24c65.333 0 129.666 12.333 192.999 37c80.667 32 152.334 100.667 215.001 206
c42.667 72 63.667 155.333 63 250c-0.666992 83.333 -6.33398 145.333 -17.001 186l-64 234h184l36 -156c10.667 -49.333 25.334 -94 44.001 -134c38.667 -84 96.667 -127 174 -129zM1375 1200h150v-150h-150v150zM1500 949.996h150v-150h-150v150zM1250 949.996h150v-150
h-150v150zM1525 -350.004h150v-150h-150v150zM1650 -100.004h150v-150h-150v150zM1400 -100.004h150v-150h-150v150z" />
    <glyph glyph-name="uni069D.init" unicode="&#x69d;" horiz-adv-x="1739" 
d="M976 486c-112 -72 -216.333 -172.668 -313 -302.001h187c158 0 280 21 366 63c124 60.667 186 114.334 186 161.001c0 90 -46.333 141.333 -139 154c-24.667 3.33301 -53 5 -85 5c-50.667 0 -118 -27 -202 -81zM916 -0.000976562h-275.999c-49.333 0 -100 14 -152 42
c-43.333 23.333 -78 55.333 -104 96c-68 -92 -159.333 -138 -274 -138h-130v184h75c66 0 113.667 14.667 143 44c53.333 53.333 80 113.333 80 180v114h184v-78c0 -16 3 -37.333 9 -64s24 -56.667 54 -90c67.333 89.333 132.666 162 195.999 218c102 91.333 201 158 297 200
c50 22 103.333 33 160 33c76.667 0 150.667 -13 222 -39c124 -45.333 186 -146.666 186 -303.999c0 -112.667 -61.333 -205.334 -184 -278.001c-134.667 -80 -296.667 -120 -486 -120zM850.001 -200.001h150v-150h-150v150zM600.001 -200.001h150v-150h-150v150z" />
    <glyph glyph-name="uni069D.medi" unicode="&#x69d;" horiz-adv-x="1776" 
d="M920 0l-280 -0.000976562c-49.333 0 -100 14 -152 42c-43.333 23.333 -78 55.333 -104 96c-68 -92 -159.333 -138 -274 -138h-130v184h75c66 0 113.667 14.667 143 44c53.333 53.333 80 113.333 80 180v114h184v-78c0 -16 3 -37.333 9 -64s24 -56.667 54 -90
c67.333 89.333 132.666 162 195.999 218c102 91.333 201 158 297 200c50 22 103.333 33 160 33c75.333 0 149.333 -13 222 -39c126.667 -45.333 190 -146.666 190 -303.999c0 -50 -14 -99 -42 -147c9.33301 -8 19.333 -15.667 30 -23c40.667 -29.333 88.334 -44 143.001 -44
h75v-184h-130c-87.333 0 -165.333 30.667 -234 92l-28 26c-136 -78.667 -297.333 -118 -484 -118zM976 485.999c-112 -72 -216.333 -172.668 -313 -302.001h187c158 0 280 21 366 63c124 60.667 186 114.334 186 161.001c0 90 -46.333 141.333 -139 154
c-24.667 3.33301 -53 5 -85 5c-50.667 0 -118 -27 -202 -81zM850 -200.002h150v-150h-150v150zM600 -200.002h150v-150h-150v150z" />
    <glyph glyph-name="uni069D.fina" unicode="&#x69d;" horiz-adv-x="2509" 
d="M1653 0l-275.998 -0.00488281c-25.333 0 -55.333 10 -90 30c-30 17.333 -45 31.333 -45 42c0 -124 -24.667 -228.667 -74 -314c-58.667 -103.333 -167.334 -180.666 -326.001 -231.999c-53.333 -17.333 -120 -26 -200 -26c-85.333 0.666992 -164.333 10.334 -237 29.001
c-183.333 47.333 -275 180.333 -275 399c0 164 35 306 105 426h184c-72 -137.333 -107.667 -279.333 -107 -426c0.666992 -119.333 50 -191.666 148 -216.999c63.333 -16 122 -24 176 -24c68 0 132.333 12.333 193 37c108 45.333 176.333 114 205 206
c22 72 33 150.333 33 235c0 98 -13 193 -39 285h171c-0.666992 -10 3.66602 -33.333 12.999 -70c6.66699 -26.667 23.334 -56.667 50.001 -90c76.667 97.333 156 182 238 254c72 62.667 157 117.334 255 164.001c48 22.667 101.333 33.667 160 33
c83.333 -1.33301 157.333 -14.333 221.999 -39c124 -47.333 186 -148.666 186 -303.999c0 -51.333 -14 -100.333 -42 -147c9.33301 -8 19.333 -15.667 30 -23c40.667 -29.333 88.334 -44 143 -44h75v-184h-130c-87.333 0 -165.333 30.667 -234 92l-28 26
c-136 -78.667 -297.333 -118 -484 -118zM1915 566.995c-50.667 0 -118 -27.001 -202 -81.001c-112 -72 -216.333 -172.667 -313 -302h187c158 0 280 21 366 63c124.667 60.667 186.667 114.334 186 161.001c-1.33301 90 -47.666 141.333 -139 154
c-24.667 3.33301 -53 5 -85 5zM1650 -200.006h150v-150h-150v150zM1400 -200.006h150v-150h-150v150z" />
    <glyph glyph-name="uni069E.init" unicode="&#x69e;" horiz-adv-x="1739" 
d="M976 486c-112 -72 -216.333 -172.668 -313 -302.001h187c158 0 280 21 366 63c124 60.667 186 114.334 186 161.001c0 90 -46.333 141.333 -139 154c-24.667 3.33301 -53 5 -85 5c-50.667 0 -118 -27 -202 -81zM916 -0.000976562h-275.999c-49.333 0 -100 14 -152 42
c-43.333 23.333 -78 55.333 -104 96c-68 -92 -159.333 -138 -274 -138h-130v184h75c66 0 113.667 14.667 143 44c53.333 53.333 80 113.333 80 180v114h184v-78c0 -16 3 -37.333 9 -64s24 -56.667 54 -90c67.333 89.333 132.666 162 195.999 218c102 91.333 201 158 297 200
c50 22 103.333 33 160 33c76.667 0 150.667 -13 222 -39c124 -45.333 186 -146.666 186 -303.999c0 -112.667 -61.333 -205.334 -184 -278.001c-134.667 -80 -296.667 -120 -486 -120zM525.001 1200h150v-150h-150v150zM650.001 949.999h150v-150h-150v150zM400.001 949.999
h150v-150h-150v150z" />
    <glyph glyph-name="uni069E.medi" unicode="&#x69e;" horiz-adv-x="1776" 
d="M920 0l-280 -0.000976562c-49.333 0 -100 14 -152 42c-43.333 23.333 -78 55.333 -104 96c-68 -92 -159.333 -138 -274 -138h-130v184h75c66 0 113.667 14.667 143 44c53.333 53.333 80 113.333 80 180v114h184v-78c0 -16 3 -37.333 9 -64s24 -56.667 54 -90
c67.333 89.333 132.666 162 195.999 218c102 91.333 201 158 297 200c50 22 103.333 33 160 33c75.333 0 149.333 -13 222 -39c126.667 -45.333 190 -146.666 190 -303.999c0 -50 -14 -99 -42 -147c9.33301 -8 19.333 -15.667 30 -23c40.667 -29.333 88.334 -44 143.001 -44
h75v-184h-130c-87.333 0 -165.333 30.667 -234 92l-28 26c-136 -78.667 -297.333 -118 -484 -118zM976 485.999c-112 -72 -216.333 -172.668 -313 -302.001h187c158 0 280 21 366 63c124 60.667 186 114.334 186 161.001c0 90 -46.333 141.333 -139 154
c-24.667 3.33301 -53 5 -85 5c-50.667 0 -118 -27 -202 -81zM525 1200h150v-150h-150v150zM650 949.998h150v-150h-150v150zM400 949.998h150v-150h-150v150z" />
    <glyph glyph-name="uni069E.fina" unicode="&#x69e;" horiz-adv-x="2509" 
d="M1653 0l-275.998 -0.00488281c-25.333 0 -55.333 10 -90 30c-30 17.333 -45 31.333 -45 42c0 -124 -24.667 -228.667 -74 -314c-58.667 -103.333 -167.334 -180.666 -326.001 -231.999c-53.333 -17.333 -120 -26 -200 -26c-85.333 0.666992 -164.333 10.334 -237 29.001
c-183.333 47.333 -275 180.333 -275 399c0 164 35 306 105 426h184c-72 -137.333 -107.667 -279.333 -107 -426c0.666992 -119.333 50 -191.666 148 -216.999c63.333 -16 122 -24 176 -24c68 0 132.333 12.333 193 37c108 45.333 176.333 114 205 206
c22 72 33 150.333 33 235c0 98 -13 193 -39 285h171c-0.666992 -10 3.66602 -33.333 12.999 -70c6.66699 -26.667 23.334 -56.667 50.001 -90c76.667 97.333 156 182 238 254c72 62.667 157 117.334 255 164.001c48 22.667 101.333 33.667 160 33
c83.333 -1.33301 157.333 -14.333 221.999 -39c124 -47.333 186 -148.666 186 -303.999c0 -51.333 -14 -100.333 -42 -147c9.33301 -8 19.333 -15.667 30 -23c40.667 -29.333 88.334 -44 143 -44h75v-184h-130c-87.333 0 -165.333 30.667 -234 92l-28 26
c-136 -78.667 -297.333 -118 -484 -118zM1915 566.995c-50.667 0 -118 -27.001 -202 -81.001c-112 -72 -216.333 -172.667 -313 -302h187c158 0 280 21 366 63c124.667 60.667 186.667 114.334 186 161.001c-1.33301 90 -47.666 141.333 -139 154
c-24.667 3.33301 -53 5 -85 5zM1275 1199.99h150v-150h-150v150zM1400 949.994h150v-150h-150v150zM1150 949.994h150v-150h-150v150z" />
    <glyph glyph-name="uni069F.init" unicode="&#x69f;" horiz-adv-x="1630" 
d="M569 184h186.998c158 0 280 21 366 63c124.667 62 186.667 115.667 186 161c-1.33301 90 -47.666 141.333 -138.999 154c-24.667 3.33301 -53 5 -85 5c-53.333 0 -120.666 -27 -201.999 -81c-118 -80 -222.333 -180.667 -313 -302zM821.998 0l-574.999 0.000976562h-267
v184h267v1372h184v-1266c144.667 212.667 309 352 493 418c61.333 22 114.666 33 159.999 33c78 0 152 -13 222 -39c124 -46 186 -147.333 186 -304c0 -112.667 -61.333 -205.334 -184 -278.001c-134.667 -80 -296.667 -120 -486 -120zM760.999 1250h150v-150h-150v150z
M885.999 1000h150v-150h-150v150zM635.999 1000h150v-150h-150v150z" />
    <glyph glyph-name="uni069F.medi" unicode="&#x69f;" horiz-adv-x="1680" 
d="M824 0h-577h-267v184h267v1372h184v-1266c144.667 212.667 309 352 493 418c61.333 22 114.666 33 159.999 33c78 0 152 -13 222 -39c125.333 -46 188 -147.333 188 -304c0 -51.333 -14 -100.333 -42 -147c9.33301 -8 19.333 -15.667 30 -23
c40.667 -29.333 88.334 -44 143.001 -44h75v-184h-130c-87.333 0 -165.333 30.667 -234 92l-28 26c-136 -78.667 -297.333 -118 -484 -118zM569 184h186.998c158 0 280 21 366 63c124.667 62 186.667 115.667 186 161c-1.33301 90 -47.666 141.333 -138.999 154
c-24.667 3.33301 -53 5 -85 5c-53.333 0 -120.666 -27 -201.999 -81c-118 -80 -222.333 -180.667 -313 -302zM760.998 1250h150v-150h-150v150zM885.998 1000h150v-150h-150v150zM635.998 1000h150v-150h-150v150z" />
    <glyph glyph-name="uni069F.fina" unicode="&#x69f;" horiz-adv-x="1944" 
d="M1088 0h-577h-367v184h367v1372h184v-1266c144.667 212.667 309 352 493 418c61.333 22 114.666 33 159.999 33c78 0 152 -13 222 -39c125.333 -46 188 -147.333 188 -304c0 -51.333 -14 -100.333 -42 -147c9.33301 -8 19.333 -15.667 30 -23
c40.667 -29.333 88.334 -44 143.001 -44h75v-184h-130c-87.333 0 -165.333 30.667 -234 92l-28 26c-136 -78.667 -297.333 -118 -484 -118zM833 184h186.998c158 0 280 21 366 63c124.667 62 186.667 115.667 186 161c-1.33301 90 -47.666 141.333 -138.999 154
c-24.667 3.33301 -53 5 -85 5c-53.333 0 -120.666 -27 -201.999 -81c-118 -80 -222.333 -180.667 -313 -302zM1025 1250h150v-150h-150v150zM1150 1000h150v-150h-150v150zM899.998 1000h150v-150h-150v150z" />
    <glyph glyph-name="uni06A0.init" unicode="&#x6a0;" horiz-adv-x="1222" 
d="M60 184c107.333 0 228.334 31 363.001 93c-50 16 -92.333 43.667 -127 83c-58.667 66.667 -88 146.667 -88 240c0 176 68 305.667 204 389c83.333 51.333 208.666 77 375.999 77v-169c-145.333 0 -249 -22.833 -311 -68.5s-93 -111 -93 -196s20.667 -144.833 62 -179.5
c55.333 -46.667 106.333 -70 153 -70c36.667 0 79.667 11 129 33l288 129v-184l-420 -197c-233.333 -109.333 -409.333 -164 -528 -164h-88v184h80zM425.001 1600h150v-150h-150v150zM550.001 1350h150v-150h-150v150zM300.001 1350h150v-150h-150v150z" />
    <glyph glyph-name="uni06A0.medi" unicode="&#x6a0;" horiz-adv-x="988" 
d="M494 185c-129.333 -123.333 -261.332 -185.001 -395.999 -185.001h-118v184h96c71.333 0 129 13.333 173 40c39.333 24 72.333 49 99 75c-64.667 56.667 -119.667 115 -165 175c-20 26 -30 54 -30 84c0 20.667 4.33301 44.667 13 72
c10.667 36.667 50.667 72.334 120 107.001c59.333 30 128.666 45 207.999 45s148.666 -15 207.999 -45c69.333 -34.667 109.333 -70.334 120 -107.001c8.66699 -27.333 13 -51.333 13 -72c0 -30 -10 -58 -30 -84c-51.333 -65.333 -106.333 -123.666 -165 -174.999
c20.667 -20.667 53.667 -45.667 99 -75c40.667 -26.667 98.334 -40 173.001 -40h96v-184h-118c-134.667 0 -266.667 61.667 -396 185zM494.001 596.999c-17.333 0 -36 -2.33301 -56 -7c-31.333 -8 -47 -22.667 -47 -44c0 -19.333 34.333 -60.666 103 -123.999
c68.667 63.333 103 104.666 103 123.999c0 21.333 -15.667 36 -47 44c-20 4.66699 -38.667 7 -56 7zM425.001 1350h150v-150h-150v150zM550.001 1100h150v-150h-150v150zM300.001 1100h150v-150h-150v150z" />
    <glyph glyph-name="uni06A0.fina" unicode="&#x6a0;" horiz-adv-x="1090" 
d="M1202 -401c-101.333 -66 -237.666 -98.9971 -408.999 -98.9971c-280.667 0 -473.334 62.667 -578.001 188c-65.333 81.333 -98 189 -98 323s62.333 247.667 187 341c-40.667 33.333 -72.334 69.333 -95.001 108s-34 72 -34 100c0 73.333 41.667 131.333 125 174
c64.667 32 136.667 48 216 48s150.666 -16 213.999 -48c84.667 -42.667 127 -101.334 127 -176.001c0 -60.667 -30.333 -113.334 -91 -158.001c-38 -28.667 -88.333 -53.667 -151 -75c45.333 -42.667 98.333 -76.834 159 -102.501s119.334 -38.5 176.001 -38.5h160v-184
h-144c-177.333 0 -348.666 76 -513.999 228c-102.667 -86 -154 -164.667 -154 -236c0 -72 13.667 -128.333 41 -169c71.333 -105.333 224 -158 458 -158c128.667 0 263.667 39.333 405 118v-184zM483 445.003c90.667 37.333 136 72 136 104s-34.333 48 -103 48
s-103 -17 -103 -51c0 -24 23.333 -57.667 70 -101zM425 1350h150v-150h-150v150zM550 1100h150v-150h-150v150zM300 1100h150v-150h-150v150z" />
    <glyph glyph-name="uni06A1.init" unicode="&#x6a1;" horiz-adv-x="979" 
d="M598 537c27.333 28.667 41.002 68.666 41.002 119.999c0 39.333 -22 76 -66 110c-20.667 16.667 -45.667 24.667 -75 24c-34.667 -0.666992 -65.334 -15 -92.001 -43c-26.667 -27.333 -40.334 -58 -41.001 -92c0 -53.333 18.333 -92.666 55 -117.999
c26.667 -16.667 54 -25 82 -25c48 0 80 8 96 24zM-19.998 183.999h241.001c56 0 134.333 7.66699 235 23c52.667 8 99 43 139 105c20.667 32 36 64.667 46 98c-42 -36.667 -95.333 -55.667 -160 -57c-86.667 -1.33301 -156 21 -208 67c-65.333 58 -98 130 -98 216
c0 34.667 2.66699 66.667 8 96c15.333 98.667 73 171 173 217c52 24 103.333 36 154 36c60 0 112 -16.667 156 -50c64 -48 111.333 -106 142 -174c15.333 -34 23 -97.667 23 -191c0 -138.667 -26 -255.667 -78 -351c-49.333 -90.667 -115.333 -150.667 -198 -180
c-72.667 -26 -157.334 -39 -254.001 -39h-321v184z" />
    <glyph glyph-name="uni06A1.medi" unicode="&#x6a1;" horiz-adv-x="1036" 
d="M614 762c122 -53.333 191.001 -130 207.001 -230c5.33301 -33.333 8 -64 8 -92c0 -48.667 -7 -89.334 -21 -122.001c-19.333 -44.667 -41 -83.667 -65 -117c26 -11.333 88 -17 186 -17h127v-184h-217c-90.667 0 -197.667 19 -321 57c-123.333 -38 -230.333 -57 -321 -57
h-217v184h127c98 0 160 5.66699 186 17c-19.333 26.667 -41 65.667 -65 117c-14 30.667 -21 71.334 -21 122.001c0 29.333 2.66699 60 8 92c15.333 95.333 84.666 172 207.999 230c20 9.33301 51.667 14 95 14c42 0 74 -4.66699 96 -14zM518.001 592
c-10 0 -21 -3.33398 -33 -10.001c-37.333 -21.333 -64 -49.666 -80 -84.999c-6.66699 -14 -10 -30.667 -10 -50c0 -28.667 8 -60.667 24 -96c20.667 -45.333 53.667 -75.333 99 -90c42 14 75 44 99 90c16.667 33.333 25 65.333 25 96c0 16 -3.66699 32.667 -11 50
c-15.333 34.667 -42 63 -80 85c-12.667 6.66699 -23.667 10 -33 10z" />
    <glyph glyph-name="uni06A1.fina" unicode="&#x6a1;" horiz-adv-x="2120" 
d="M1656 36c-69.333 -28.667 -140.669 -51.001 -214.002 -67.001c-186.667 -40 -370.667 -60 -552 -60c-203.333 0.666992 -346.666 14 -429.999 40c-219.333 68.667 -329.333 190.334 -330 365.001c-0.666992 92 20.333 168.667 63 230h184
c-43.333 -62.667 -65 -139.334 -65 -230.001c0 -76.667 67.667 -140.667 203 -192c54 -20.667 180.667 -31 380 -31c154.667 0 327 18 517 54l28 4c-22.667 18 -43.667 41.667 -63 71c-54.667 82.667 -82 164.334 -82 245.001c0 20.667 1.33301 43 4 67
c14.667 103.333 84.667 180 210 230c38.667 15.333 75.334 23 110.001 23c54.667 0 109 -16.667 163 -50c91.333 -55.333 143 -133 155 -233c2.66699 -24.667 4 -47 4 -67c0 -96 -26.667 -179.333 -80 -250c6 -0.666992 11.333 -1 16 -1h263v-184h-268
c-70 0 -142 12 -216 36zM1656 222.999c69.333 43.333 104.002 105.667 104.002 187c0 13.333 -1.66699 29 -5 47c-9.33301 47.333 -31.333 84 -66 110c-22.667 16.667 -47.334 25 -74.001 25c-16 0 -31.333 -3.33301 -46 -10c-40.667 -16.667 -67.334 -45 -80.001 -85
c-4 -12.667 -6 -25 -6 -37c0 -37.333 13.667 -78 41 -122c32.667 -52 76.667 -90.333 132 -115z" />
    <glyph glyph-name="uni06A2.init" unicode="&#x6a2;" horiz-adv-x="979" 
d="M598 537c27.333 28.667 41.002 68.666 41.002 119.999c0 39.333 -22 76 -66 110c-20.667 16.667 -45.667 24.667 -75 24c-34.667 -0.666992 -65.334 -15 -92.001 -43c-26.667 -27.333 -40.334 -58 -41.001 -92c0 -53.333 18.333 -92.666 55 -117.999
c26.667 -16.667 54 -25 82 -25c48 0 80 8 96 24zM-19.998 183.999h241.001c56 0 134.333 7.66699 235 23c52.667 8 99 43 139 105c20.667 32 36 64.667 46 98c-42 -36.667 -95.333 -55.667 -160 -57c-86.667 -1.33301 -156 21 -208 67c-65.333 58 -98 130 -98 216
c0 34.667 2.66699 66.667 8 96c15.333 98.667 73 171 173 217c52 24 103.333 36 154 36c60 0 112 -16.667 156 -50c64 -48 111.333 -106 142 -174c15.333 -34 23 -97.667 23 -191c0 -138.667 -26 -255.667 -78 -351c-49.333 -90.667 -115.333 -150.667 -198 -180
c-72.667 -26 -157.334 -39 -254.001 -39h-321v184zM424.003 -150.001h150v-150h-150v150z" />
    <glyph glyph-name="uni06A2.medi" unicode="&#x6a2;" horiz-adv-x="1036" 
d="M614 762c122 -53.333 191.001 -130 207.001 -230c5.33301 -33.333 8 -64 8 -92c0 -48.667 -7 -89.334 -21 -122.001c-19.333 -44.667 -41 -83.667 -65 -117c26 -11.333 88 -17 186 -17h127v-184h-217c-90.667 0 -197.667 19 -321 57c-123.333 -38 -230.333 -57 -321 -57
h-217v184h127c98 0 160 5.66699 186 17c-19.333 26.667 -41 65.667 -65 117c-14 30.667 -21 71.334 -21 122.001c0 29.333 2.66699 60 8 92c15.333 95.333 84.666 172 207.999 230c20 9.33301 51.667 14 95 14c42 0 74 -4.66699 96 -14zM518.001 592
c-10 0 -21 -3.33398 -33 -10.001c-37.333 -21.333 -64 -49.666 -80 -84.999c-6.66699 -14 -10 -30.667 -10 -50c0 -28.667 8 -60.667 24 -96c20.667 -45.333 53.667 -75.333 99 -90c42 14 75 44 99 90c16.667 33.333 25 65.333 25 96c0 16 -3.66699 32.667 -11 50
c-15.333 34.667 -42 63 -80 85c-12.667 6.66699 -23.667 10 -33 10zM424.001 -150.001h150v-150h-150v150z" />
    <glyph glyph-name="uni06A2.fina" unicode="&#x6a2;" horiz-adv-x="2120" 
d="M1656 36c-69.333 -28.667 -140.669 -51.001 -214.002 -67.001c-186.667 -40 -370.667 -60 -552 -60c-203.333 0.666992 -346.666 14 -429.999 40c-219.333 68.667 -329.333 190.334 -330 365.001c-0.666992 92 20.333 168.667 63 230h184
c-43.333 -62.667 -65 -139.334 -65 -230.001c0 -76.667 67.667 -140.667 203 -192c54 -20.667 180.667 -31 380 -31c154.667 0 327 18 517 54l28 4c-22.667 18 -43.667 41.667 -63 71c-54.667 82.667 -82 164.334 -82 245.001c0 20.667 1.33301 43 4 67
c14.667 103.333 84.667 180 210 230c38.667 15.333 75.334 23 110.001 23c54.667 0 109 -16.667 163 -50c91.333 -55.333 143 -133 155 -233c2.66699 -24.667 4 -47 4 -67c0 -96 -26.667 -179.333 -80 -250c6 -0.666992 11.333 -1 16 -1h263v-184h-268
c-70 0 -142 12 -216 36zM1656 222.999c69.333 43.333 104.002 105.667 104.002 187c0 13.333 -1.66699 29 -5 47c-9.33301 47.333 -31.333 84 -66 110c-22.667 16.667 -47.334 25 -74.001 25c-16 0 -31.333 -3.33301 -46 -10c-40.667 -16.667 -67.334 -45 -80.001 -85
c-4 -12.667 -6 -25 -6 -37c0 -37.333 13.667 -78 41 -122c32.667 -52 76.667 -90.333 132 -115zM874.999 -200h150v-150h-150v150z" />
    <glyph glyph-name="uni06A3.init" unicode="&#x6a3;" horiz-adv-x="979" 
d="M598 537c27.333 28.667 41.002 68.666 41.002 119.999c0 39.333 -22 76 -66 110c-20.667 16.667 -45.667 24.667 -75 24c-34.667 -0.666992 -65.334 -15 -92.001 -43c-26.667 -27.333 -40.334 -58 -41.001 -92c0 -53.333 18.333 -92.666 55 -117.999
c26.667 -16.667 54 -25 82 -25c48 0 80 8 96 24zM-19.998 183.999h241.001c56 0 134.333 7.66699 235 23c52.667 8 99 43 139 105c20.667 32 36 64.667 46 98c-42 -36.667 -95.333 -55.667 -160 -57c-86.667 -1.33301 -156 21 -208 67c-65.333 58 -98 130 -98 216
c0 34.667 2.66699 66.667 8 96c15.333 98.667 73 171 173 217c52 24 103.333 36 154 36c60 0 112 -16.667 156 -50c64 -48 111.333 -106 142 -174c15.333 -34 23 -97.667 23 -191c0 -138.667 -26 -255.667 -78 -351c-49.333 -90.667 -115.333 -150.667 -198 -180
c-72.667 -26 -157.334 -39 -254.001 -39h-321v184zM425.003 1300h150v-150h-150v150zM424.003 -150.001h150v-150h-150v150z" />
    <glyph glyph-name="uni06A3.medi" unicode="&#x6a3;" horiz-adv-x="1036" 
d="M614 762c122 -53.333 191.001 -130 207.001 -230c5.33301 -33.333 8 -64 8 -92c0 -48.667 -7 -89.334 -21 -122.001c-19.333 -44.667 -41 -83.667 -65 -117c26 -11.333 88 -17 186 -17h127v-184h-217c-90.667 0 -197.667 19 -321 57c-123.333 -38 -230.333 -57 -321 -57
h-217v184h127c98 0 160 5.66699 186 17c-19.333 26.667 -41 65.667 -65 117c-14 30.667 -21 71.334 -21 122.001c0 29.333 2.66699 60 8 92c15.333 95.333 84.666 172 207.999 230c20 9.33301 51.667 14 95 14c42 0 74 -4.66699 96 -14zM518.001 592
c-10 0 -21 -3.33398 -33 -10.001c-37.333 -21.333 -64 -49.666 -80 -84.999c-6.66699 -14 -10 -30.667 -10 -50c0 -28.667 8 -60.667 24 -96c20.667 -45.333 53.667 -75.333 99 -90c42 14 75 44 99 90c16.667 33.333 25 65.333 25 96c0 16 -3.66699 32.667 -11 50
c-15.333 34.667 -42 63 -80 85c-12.667 6.66699 -23.667 10 -33 10zM443.001 1150h150v-150h-150v150zM424.001 -150.001h150v-150h-150v150z" />
    <glyph glyph-name="uni06A3.fina" unicode="&#x6a3;" horiz-adv-x="2120" 
d="M1656 36c-69.333 -28.667 -140.669 -51.001 -214.002 -67.001c-186.667 -40 -370.667 -60 -552 -60c-203.333 0.666992 -346.666 14 -429.999 40c-219.333 68.667 -329.333 190.334 -330 365.001c-0.666992 92 20.333 168.667 63 230h184
c-43.333 -62.667 -65 -139.334 -65 -230.001c0 -76.667 67.667 -140.667 203 -192c54 -20.667 180.667 -31 380 -31c154.667 0 327 18 517 54l28 4c-22.667 18 -43.667 41.667 -63 71c-54.667 82.667 -82 164.334 -82 245.001c0 20.667 1.33301 43 4 67
c14.667 103.333 84.667 180 210 230c38.667 15.333 75.334 23 110.001 23c54.667 0 109 -16.667 163 -50c91.333 -55.333 143 -133 155 -233c2.66699 -24.667 4 -47 4 -67c0 -96 -26.667 -179.333 -80 -250c6 -0.666992 11.333 -1 16 -1h263v-184h-268
c-70 0 -142 12 -216 36zM1656 222.999c69.333 43.333 104.002 105.667 104.002 187c0 13.333 -1.66699 29 -5 47c-9.33301 47.333 -31.333 84 -66 110c-22.667 16.667 -47.334 25 -74.001 25c-16 0 -31.333 -3.33301 -46 -10c-40.667 -16.667 -67.334 -45 -80.001 -85
c-4 -12.667 -6 -25 -6 -37c0 -37.333 13.667 -78 41 -122c32.667 -52 76.667 -90.333 132 -115zM1525 1100h150v-150h-150v150zM874.999 -200h150v-150h-150v150z" />
    <glyph glyph-name="uni06A5.init" unicode="&#x6a5;" horiz-adv-x="979" 
d="M598 537c27.333 28.667 41.002 68.666 41.002 119.999c0 39.333 -22 76 -66 110c-20.667 16.667 -45.667 24.667 -75 24c-34.667 -0.666992 -65.334 -15 -92.001 -43c-26.667 -27.333 -40.334 -58 -41.001 -92c0 -53.333 18.333 -92.666 55 -117.999
c26.667 -16.667 54 -25 82 -25c48 0 80 8 96 24zM-19.998 183.999h241.001c56 0 134.333 7.66699 235 23c52.667 8 99 43 139 105c20.667 32 36 64.667 46 98c-42 -36.667 -95.333 -55.667 -160 -57c-86.667 -1.33301 -156 21 -208 67c-65.333 58 -98 130 -98 216
c0 34.667 2.66699 66.667 8 96c15.333 98.667 73 171 173 217c52 24 103.333 36 154 36c60 0 112 -16.667 156 -50c64 -48 111.333 -106 142 -174c15.333 -34 23 -97.667 23 -191c0 -138.667 -26 -255.667 -78 -351c-49.333 -90.667 -115.333 -150.667 -198 -180
c-72.667 -26 -157.334 -39 -254.001 -39h-321v184zM425.003 -400.001h150v-150h-150v150zM550.003 -150.001h150v-150h-150v150zM300.003 -150.001h150v-150h-150v150z" />
    <glyph glyph-name="uni06A5.medi" unicode="&#x6a5;" horiz-adv-x="1036" 
d="M614 762c122 -53.333 191.001 -130 207.001 -230c5.33301 -33.333 8 -64 8 -92c0 -48.667 -7 -89.334 -21 -122.001c-19.333 -44.667 -41 -83.667 -65 -117c26 -11.333 88 -17 186 -17h127v-184h-217c-90.667 0 -197.667 19 -321 57c-123.333 -38 -230.333 -57 -321 -57
h-217v184h127c98 0 160 5.66699 186 17c-19.333 26.667 -41 65.667 -65 117c-14 30.667 -21 71.334 -21 122.001c0 29.333 2.66699 60 8 92c15.333 95.333 84.666 172 207.999 230c20 9.33301 51.667 14 95 14c42 0 74 -4.66699 96 -14zM518.001 592
c-10 0 -21 -3.33398 -33 -10.001c-37.333 -21.333 -64 -49.666 -80 -84.999c-6.66699 -14 -10 -30.667 -10 -50c0 -28.667 8 -60.667 24 -96c20.667 -45.333 53.667 -75.333 99 -90c42 14 75 44 99 90c16.667 33.333 25 65.333 25 96c0 16 -3.66699 32.667 -11 50
c-15.333 34.667 -42 63 -80 85c-12.667 6.66699 -23.667 10 -33 10zM425.001 -400.001h150v-150h-150v150zM550.001 -150.001h150v-150h-150v150zM300.001 -150.001h150v-150h-150v150z" />
    <glyph glyph-name="uni06A5.fina" unicode="&#x6a5;" horiz-adv-x="2120" 
d="M1656 36c-69.333 -28.667 -140.669 -51.001 -214.002 -67.001c-186.667 -40 -370.667 -60 -552 -60c-203.333 0.666992 -346.666 14 -429.999 40c-219.333 68.667 -329.333 190.334 -330 365.001c-0.666992 92 20.333 168.667 63 230h184
c-43.333 -62.667 -65 -139.334 -65 -230.001c0 -76.667 67.667 -140.667 203 -192c54 -20.667 180.667 -31 380 -31c154.667 0 327 18 517 54l28 4c-22.667 18 -43.667 41.667 -63 71c-54.667 82.667 -82 164.334 -82 245.001c0 20.667 1.33301 43 4 67
c14.667 103.333 84.667 180 210 230c38.667 15.333 75.334 23 110.001 23c54.667 0 109 -16.667 163 -50c91.333 -55.333 143 -133 155 -233c2.66699 -24.667 4 -47 4 -67c0 -96 -26.667 -179.333 -80 -250c6 -0.666992 11.333 -1 16 -1h263v-184h-268
c-70 0 -142 12 -216 36zM1656 222.999c69.333 43.333 104.002 105.667 104.002 187c0 13.333 -1.66699 29 -5 47c-9.33301 47.333 -31.333 84 -66 110c-22.667 16.667 -47.334 25 -74.001 25c-16 0 -31.333 -3.33301 -46 -10c-40.667 -16.667 -67.334 -45 -80.001 -85
c-4 -12.667 -6 -25 -6 -37c0 -37.333 13.667 -78 41 -122c32.667 -52 76.667 -90.333 132 -115zM874.999 -450h150v-150h-150v150zM999.999 -200h150v-150h-150v150zM749.999 -200h150v-150h-150v150z" />
    <glyph glyph-name="uni06A7.init" unicode="&#x6a7;" horiz-adv-x="979" 
d="M598 537c27.333 28.667 41.002 68.666 41.002 119.999c0 39.333 -22 76 -66 110c-20.667 16.667 -45.667 24.667 -75 24c-34.667 -0.666992 -65.334 -15 -92.001 -43c-26.667 -27.333 -40.334 -58 -41.001 -92c0 -53.333 18.333 -92.666 55 -117.999
c26.667 -16.667 54 -25 82 -25c48 0 80 8 96 24zM-19.998 183.999h241.001c56 0 134.333 7.66699 235 23c52.667 8 99 43 139 105c20.667 32 36 64.667 46 98c-42 -36.667 -95.333 -55.667 -160 -57c-86.667 -1.33301 -156 21 -208 67c-65.333 58 -98 130 -98 216
c0 34.667 2.66699 66.667 8 96c15.333 98.667 73 171 173 217c52 24 103.333 36 154 36c60 0 112 -16.667 156 -50c64 -48 111.333 -106 142 -174c15.333 -34 23 -97.667 23 -191c0 -138.667 -26 -255.667 -78 -351c-49.333 -90.667 -115.333 -150.667 -198 -180
c-72.667 -26 -157.334 -39 -254.001 -39h-321v184zM425.003 1300h150v-150h-150v150z" />
    <glyph glyph-name="uni06A7.medi" unicode="&#x6a7;" horiz-adv-x="1036" 
d="M614 762c122 -53.333 191.001 -130 207.001 -230c5.33301 -33.333 8 -64 8 -92c0 -48.667 -7 -89.334 -21 -122.001c-19.333 -44.667 -41 -83.667 -65 -117c26 -11.333 88 -17 186 -17h127v-184h-217c-90.667 0 -197.667 19 -321 57c-123.333 -38 -230.333 -57 -321 -57
h-217v184h127c98 0 160 5.66699 186 17c-19.333 26.667 -41 65.667 -65 117c-14 30.667 -21 71.334 -21 122.001c0 29.333 2.66699 60 8 92c15.333 95.333 84.666 172 207.999 230c20 9.33301 51.667 14 95 14c42 0 74 -4.66699 96 -14zM518.001 592
c-10 0 -21 -3.33398 -33 -10.001c-37.333 -21.333 -64 -49.666 -80 -84.999c-6.66699 -14 -10 -30.667 -10 -50c0 -28.667 8 -60.667 24 -96c20.667 -45.333 53.667 -75.333 99 -90c42 14 75 44 99 90c16.667 33.333 25 65.333 25 96c0 16 -3.66699 32.667 -11 50
c-15.333 34.667 -42 63 -80 85c-12.667 6.66699 -23.667 10 -33 10zM443.001 1150h150v-150h-150v150z" />
    <glyph glyph-name="uni06A7.fina" unicode="&#x6a7;" horiz-adv-x="1708" 
d="M1208 10c-44 3.33301 -81.332 9.33398 -111.999 18.001c-80.667 23.333 -140 49.333 -178 78c-98 72.667 -147 170.667 -147 294c0 40.667 2 69.667 6 87c26.667 110 89 188 187 234c27.333 12.667 70 19 128 19c74.667 0 130.667 -16.667 168 -50
c66 -58.667 115.667 -136.334 149 -233.001c13.333 -38.667 22 -129.334 26 -272.001c17.333 -0.666992 27.333 -1 30 -1h263v-184h-268h-48c-30 -81.333 -65.333 -145.333 -106 -192c-85.333 -96.667 -180.666 -171 -285.999 -223
c-116.667 -57.333 -243.334 -85.666 -380.001 -84.999c-246.667 1.33301 -401.334 65.333 -464.001 192c-46 92 -69 179.667 -69 263c0 110.667 20.667 198 62 262h184c-41.333 -71.333 -62 -158.666 -62 -261.999c0 -50.667 9 -95.334 27 -134.001
c40 -86.667 147.333 -130 322 -130c93.333 0 190 22.667 290 68c142 65.333 234.667 149 278 251zM1251 203.001c2.66699 81.333 -3.33301 150.999 -18 208.999c-12.667 50 -34.667 86.667 -66 110c-22.667 16.667 -47 25 -73 25c-22.667 0 -41 -3.33301 -55 -10
c-34 -18 -58 -46.333 -72 -85c-6.66699 -20 -10 -38.333 -10 -55c0 -40 19 -74.667 57 -104c50.667 -39.333 109.334 -65.666 176.001 -78.999c31.333 -6 51.666 -9.66699 60.999 -11zM1025 1025h150v-150h-150v150z" />
    <glyph glyph-name="uni06A8.init" unicode="&#x6a8;" horiz-adv-x="979" 
d="M598 537c27.333 28.667 41.002 68.666 41.002 119.999c0 39.333 -22 76 -66 110c-20.667 16.667 -45.667 24.667 -75 24c-34.667 -0.666992 -65.334 -15 -92.001 -43c-26.667 -27.333 -40.334 -58 -41.001 -92c0 -53.333 18.333 -92.666 55 -117.999
c26.667 -16.667 54 -25 82 -25c48 0 80 8 96 24zM-19.998 183.999h241.001c56 0 134.333 7.66699 235 23c52.667 8 99 43 139 105c20.667 32 36 64.667 46 98c-42 -36.667 -95.333 -55.667 -160 -57c-86.667 -1.33301 -156 21 -208 67c-65.333 58 -98 130 -98 216
c0 34.667 2.66699 66.667 8 96c15.333 98.667 73 171 173 217c52 24 103.333 36 154 36c60 0 112 -16.667 156 -50c64 -48 111.333 -106 142 -174c15.333 -34 23 -97.667 23 -191c0 -138.667 -26 -255.667 -78 -351c-49.333 -90.667 -115.333 -150.667 -198 -180
c-72.667 -26 -157.334 -39 -254.001 -39h-321v184zM425.003 1550h150v-150h-150v150zM550.003 1300h150v-150h-150v150zM300.003 1300h150v-150h-150v150z" />
    <glyph glyph-name="uni06A8.medi" unicode="&#x6a8;" horiz-adv-x="1036" 
d="M614 762c122 -53.333 191.001 -130 207.001 -230c5.33301 -33.333 8 -64 8 -92c0 -48.667 -7 -89.334 -21 -122.001c-19.333 -44.667 -41 -83.667 -65 -117c26 -11.333 88 -17 186 -17h127v-184h-217c-90.667 0 -197.667 19 -321 57c-123.333 -38 -230.333 -57 -321 -57
h-217v184h127c98 0 160 5.66699 186 17c-19.333 26.667 -41 65.667 -65 117c-14 30.667 -21 71.334 -21 122.001c0 29.333 2.66699 60 8 92c15.333 95.333 84.666 172 207.999 230c20 9.33301 51.667 14 95 14c42 0 74 -4.66699 96 -14zM518.001 592
c-10 0 -21 -3.33398 -33 -10.001c-37.333 -21.333 -64 -49.666 -80 -84.999c-6.66699 -14 -10 -30.667 -10 -50c0 -28.667 8 -60.667 24 -96c20.667 -45.333 53.667 -75.333 99 -90c42 14 75 44 99 90c16.667 33.333 25 65.333 25 96c0 16 -3.66699 32.667 -11 50
c-15.333 34.667 -42 63 -80 85c-12.667 6.66699 -23.667 10 -33 10zM443.001 1400h150v-150h-150v150zM568.001 1150h150v-150h-150v150zM318.001 1150h150v-150h-150v150z" />
    <glyph glyph-name="uni06A8.fina" unicode="&#x6a8;" horiz-adv-x="1708" 
d="M1208 10c-44 3.33301 -81.332 9.33398 -111.999 18.001c-80.667 23.333 -140 49.333 -178 78c-98 72.667 -147 170.667 -147 294c0 40.667 2 69.667 6 87c26.667 110 89 188 187 234c27.333 12.667 70 19 128 19c74.667 0 130.667 -16.667 168 -50
c66 -58.667 115.667 -136.334 149 -233.001c13.333 -38.667 22 -129.334 26 -272.001c17.333 -0.666992 27.333 -1 30 -1h263v-184h-268h-48c-30 -81.333 -65.333 -145.333 -106 -192c-85.333 -96.667 -180.666 -171 -285.999 -223
c-116.667 -57.333 -243.334 -85.666 -380.001 -84.999c-246.667 1.33301 -401.334 65.333 -464.001 192c-46 92 -69 179.667 -69 263c0 110.667 20.667 198 62 262h184c-41.333 -71.333 -62 -158.666 -62 -261.999c0 -50.667 9 -95.334 27 -134.001
c40 -86.667 147.333 -130 322 -130c93.333 0 190 22.667 290 68c142 65.333 234.667 149 278 251zM1251 203.001c2.66699 81.333 -3.33301 150.999 -18 208.999c-12.667 50 -34.667 86.667 -66 110c-22.667 16.667 -47 25 -73 25c-22.667 0 -41 -3.33301 -55 -10
c-34 -18 -58 -46.333 -72 -85c-6.66699 -20 -10 -38.333 -10 -55c0 -40 19 -74.667 57 -104c50.667 -39.333 109.334 -65.666 176.001 -78.999c31.333 -6 51.666 -9.66699 60.999 -11zM1025 1275h150v-150h-150v150zM1150 1025h150v-150h-150v150zM900.001 1025h150v-150
h-150v150z" />
    <glyph glyph-name="uni06AA.init" unicode="&#x6aa;" horiz-adv-x="1778" 
d="M-20 0v183.998h1288c98 0 162.333 34.667 193 104c12.667 29.333 18 53.333 16 72c-8.66699 73.333 -46 115 -112 125l-935 145c-236.667 36.667 -355 118.334 -355 245.001v8c0 3.33301 3.66699 25.666 11 66.999c11.333 65.333 71 130.333 179 195l688 411h352
l-920 -536c-63.333 -36.667 -100 -66.667 -110 -90c-6 -6.66699 -7.66699 -21.667 -5 -45c4 -35.333 64 -62 180 -80l970 -150c165.333 -25.333 248 -120.666 248 -285.999c0 -75.333 -20.667 -146.666 -62 -213.999c-63.333 -103.333 -169.333 -155 -318 -155h-1308z" />
    <glyph glyph-name="uni06AA.medi" unicode="&#x6aa;" horiz-adv-x="1778" 
d="M-20 0v183.997h1288c90.667 0 155 34.667 193 104c10.667 19.333 16 37 16 53c0 84.667 -37.333 132.667 -112 144l-935 145c-236.667 36.667 -355 118.334 -355 245.001v8c0 2.66699 3.66699 25 11 67c11.333 65.333 71 130.333 179 195l688 411h352l-920 -536
c-63.333 -36.667 -100 -66.667 -110 -90c-6 -6.66699 -7.66699 -21.667 -5 -45c4 -35.333 64 -62 180 -80l970 -150c165.333 -25.333 248 -120.666 248 -285.999v-69c0 -63.333 15.667 -100.333 47 -111c10 -3.33301 22.333 -5 37 -5h46v-184h-90
c-60 0 -99.333 7.83301 -118 23.5s-31.667 36.834 -39 63.501c-64 -58 -151.667 -87 -263 -87h-1308z" />
    <glyph glyph-name="uni06AA.fina" unicode="&#x6aa;" horiz-adv-x="2158" 
d="M1270 88c122.667 0 244.499 24.999 365.499 74.999s189.667 93 206 129s24.5 55.667 24.5 59v9c0 71.333 -40.333 113 -121 125l-935 145c-236.667 36.667 -355 118.334 -355 245.001v7c0 4 3.66699 26.667 11 68c12.667 66 72.334 131 179.001 195l688 411h352
l-920 -536c-63.333 -36.667 -100 -66.667 -110 -90c-6 -6.66699 -7.66699 -21.667 -5 -45c4 -35.333 64 -62 180 -80l970 -150c165.333 -25.333 248 -120.666 248 -285.999v-69c0 -62.667 15.667 -99.667 47 -111c10 -3.33301 22.333 -5 37 -5h46v-184h-90
c-61.333 0 -101.5 8.33301 -120.5 25s-32.167 41 -39.5 73c-55.333 -38 -150.333 -78.667 -285 -122s-255.667 -65 -363 -65h-500c-128 0 -234.667 12.667 -320 38c-220 65.333 -330 187 -330 365c0 92 21 168.667 63 230h184c-43.333 -62.667 -65 -139.334 -65 -230.001
c0 -84 67.667 -148 203 -192c69.333 -22.667 154.333 -34 255 -34h500z" />
    <glyph glyph-name="uni06AB.init" unicode="&#x6ab;" horiz-adv-x="975" 
d="M310 0l-330 -0.00195312v184h310c98.667 0 163 34.667 193 104c10.667 24 16 48 16 72c0 46 -18 91 -54 135l-310 380c-33.333 40.667 -50 88 -50 142c0 23.333 3.33301 46 10 68c20.667 78.667 65.667 132.334 135 161.001l745 310v-186l-595 -250
c-47.333 -20 -78 -43.333 -92 -70c-4 -7.33301 -6 -19.333 -6 -36c0 -21.333 10.333 -44.333 31 -69l275 -330c68 -82 102 -164 102 -246c0 -75.333 -20.667 -146.666 -62 -213.999c-63.333 -103.333 -169.333 -155 -318 -155zM816 1120c0 26.667 -9.33301 49.333 -28 68
c-18.667 19.333 -41.667 29 -69 29s-50.333 -9.33301 -69 -28s-28 -41.667 -28 -69c0 -28 9.33301 -51.333 28 -70c18.667 -18 41.667 -27 69 -27s50.333 9.33301 69 28s28 41.667 28 69zM938 1120c0 -61.333 -21 -113.333 -63 -156c-42.667 -42.667 -94.667 -64 -156 -64
s-113 21.333 -155 64c-42.667 42.667 -64 94.667 -64 156s21.333 113.333 64 156c42 42 93.667 63 155 63s113.333 -21 156 -63c42 -42.667 63 -94.667 63 -156z" />
    <glyph glyph-name="uni06AB.medi" unicode="&#x6ab;" horiz-adv-x="1131" 
d="M310 0l-330.001 -0.00195312v184h310c98.667 0 163 34.667 193 104c10.667 24 16 48 16 72c0 46 -18 91 -54 135l-310 380c-33.333 40.667 -50 88 -50 142c0 23.333 3.33301 46 10 68c20.667 78.667 65.667 132.334 135 161.001l745 310v-186l-595 -250
c-47.333 -20 -78 -43.333 -92 -70c-4 -7.33301 -6 -19.333 -6 -36c0 -21.333 10.333 -44.333 31 -69l583 -705c14.667 -17.333 34.667 -30.666 60 -39.999c28.667 -10.667 64.334 -16 107.001 -16h88v-184h-132c-43.333 0 -84.333 8 -123 24
c-68.667 28.667 -114 56.667 -136 84l-97 120c-14 -30.667 -26.667 -55 -38 -73c-63.333 -103.333 -168.333 -155 -315 -155zM815.999 1120c0 26.667 -9.33301 49.333 -28 68c-18.667 19.333 -41.667 29 -69 29s-50.333 -9.33301 -69 -28s-28 -41.667 -28 -69
c0 -28 9.33301 -51.333 28 -70c18.667 -18 41.667 -27 69 -27s50.333 9.33301 69 28s28 41.667 28 69zM937.999 1120c0 -61.333 -21 -113.333 -63 -156c-42.667 -42.667 -94.667 -64 -156 -64s-113 21.333 -155 64c-42.667 42.667 -64 94.667 -64 156s21.333 113.333 64 156
c42 42 93.667 63 155 63s113.333 -21 156 -63c42 -42.667 63 -94.667 63 -156z" />
    <glyph glyph-name="uni06AB.fina" unicode="&#x6ab;" horiz-adv-x="1833" 
d="M1436 120c-66 -50.667 -155.333 -96 -268 -136c-136.667 -48.667 -266 -73 -388 -73c-128 0 -234.667 12.667 -320 38c-220 65.333 -330 187 -330 365c0 92 21 168.667 63 230h184c-43.333 -62.667 -65 -139.334 -65 -230.001c0 -84 67.667 -148 203 -192
c69.333 -22.667 154.333 -34 255 -34c122.667 0 248.667 26.667 378 80c105.333 43.333 169.666 83.333 192.999 120c10.667 17.333 16 41.333 16 72c0 46 -18 91 -54 135l-310 380c-33.333 40.667 -50 88 -50 142c0 23.333 3.33301 46 10 68
c23.333 79.333 68.333 133 135 161l745 310v-186l-595 -250c-47.333 -20 -78 -43.333 -92 -70c-4 -7.33301 -6 -19.333 -6 -36c0 -21.333 10.333 -44.333 31 -69l583 -705c14.667 -17.333 34.667 -30.666 60 -39.999c28.667 -10.667 64.334 -16 107.001 -16h88v-184h-132
c-43.333 0 -84.333 8 -123 24c-68.667 28.667 -114 56.667 -136 84l-97 120c-16.667 -42.667 -45 -78.667 -85 -108zM1666 1120c0 26.667 -9.33301 49.333 -28 68c-18.667 19.333 -41.667 29 -69 29s-50.333 -9.33301 -69 -28s-28 -41.667 -28 -69
c0 -28 9.33301 -51.333 28 -70c18.667 -18 41.667 -27 69 -27s50.333 9.33301 69 28s28 41.667 28 69zM1788 1120c0 -61.333 -21 -113.333 -63 -156c-42.667 -42.667 -94.667 -64 -156 -64s-113 21.333 -155 64c-42.667 42.667 -64 94.667 -64 156s21.333 113.333 64 156
c42 42 93.667 63 155 63s113.333 -21 156 -63c42 -42.667 63 -94.667 63 -156z" />
    <glyph glyph-name="uni06AC.init" unicode="&#x6ac;" horiz-adv-x="975" 
d="M310 0l-330 -0.00195312v184h310c98.667 0 163 34.667 193 104c10.667 24 16 48 16 72c0 46 -18 91 -54 135l-310 380c-33.333 40.667 -50 88 -50 142c0 23.333 3.33301 46 10 68c20.667 78.667 65.667 132.334 135 161.001l745 310v-186l-595 -250
c-47.333 -20 -78 -43.333 -92 -70c-4 -7.33301 -6 -19.333 -6 -36c0 -21.333 10.333 -44.333 31 -69l275 -330c68 -82 102 -164 102 -246c0 -75.333 -20.667 -146.666 -62 -213.999c-63.333 -103.333 -169.333 -155 -318 -155zM200 1650h150v-150h-150v150z" />
    <glyph glyph-name="uni06AC.medi" unicode="&#x6ac;" horiz-adv-x="1131" 
d="M310 0l-330.001 -0.00195312v184h310c98.667 0 163 34.667 193 104c10.667 24 16 48 16 72c0 46 -18 91 -54 135l-310 380c-33.333 40.667 -50 88 -50 142c0 23.333 3.33301 46 10 68c20.667 78.667 65.667 132.334 135 161.001l745 310v-186l-595 -250
c-47.333 -20 -78 -43.333 -92 -70c-4 -7.33301 -6 -19.333 -6 -36c0 -21.333 10.333 -44.333 31 -69l583 -705c14.667 -17.333 34.667 -30.666 60 -39.999c28.667 -10.667 64.334 -16 107.001 -16h88v-184h-132c-43.333 0 -84.333 8 -123 24
c-68.667 28.667 -114 56.667 -136 84l-97 120c-14 -30.667 -26.667 -55 -38 -73c-63.333 -103.333 -168.333 -155 -315 -155zM199.999 1650h150v-150h-150v150z" />
    <glyph glyph-name="uni06AC.fina" unicode="&#x6ac;" horiz-adv-x="1726" 
d="M976 1135l-0.00292969 -82c-49.333 -2.66699 -86.666 -8.66699 -111.999 -18c-53.333 -20 -80 -41 -80 -63c0 -18.667 4.66699 -34 14 -46c8 -10.667 34.667 -19.334 80 -26.001c68 -10 102 -44.333 102 -103c0 -73.333 -29.333 -124 -88 -152
c-54.667 -26 -108 -39 -160 -39c-44 0 -84.667 3.66699 -122 11v88c45.333 -6.66699 83 -10 113 -10c40 0 79 8.66699 117 26c40 17.333 60 36 60 56c0 25.333 -26 43.666 -78 54.999c-49.333 10.667 -80 25.334 -92 44.001c-21.333 31.333 -31.666 62.333 -30.999 93
c1.33301 54 27 93.667 77 119c56.667 28.667 123.334 44.334 200.001 47.001zM998.997 -37c-72.667 -13.333 -157.332 -19.332 -253.999 -17.999c-138 1.33301 -240.667 12 -308 32c-195.333 58.667 -293 153 -293 283c0 50 5.33301 92.667 16 128h184
c-9.33301 -38.667 -14 -72.667 -14 -102c1.33301 -61.333 55.333 -107.333 162 -138c80.667 -23.333 163.334 -35 248.001 -35c93.333 0 169.666 9 228.999 27c101.333 31.333 184.666 78.333 249.999 141c50.667 48.667 76 158.667 76 330v945h184v-1173
c0 -70.667 16.333 -122.334 49 -155.001c29.333 -29.333 77 -44 143 -44h75v-184h-130c-102 0 -190.667 41 -266 123c-105.333 -84 -222.333 -137.333 -351 -160zM749.999 1500h150v-150h-150v150z" />
    <glyph glyph-name="uni06AE.init" unicode="&#x6ae;" horiz-adv-x="975" 
d="M310 0l-330 -0.00195312v184h310c98.667 0 163 34.667 193 104c10.667 24 16 48 16 72c0 46 -18 91 -54 135l-310 380c-33.333 40.667 -50 88 -50 142c0 23.333 3.33301 46 10 68c20.667 78.667 65.667 132.334 135 161.001l745 310v-186l-595 -250
c-47.333 -20 -78 -43.333 -92 -70c-4 -7.33301 -6 -19.333 -6 -36c0 -21.333 10.333 -44.333 31 -69l275 -330c68 -82 102 -164 102 -246c0 -75.333 -20.667 -146.666 -62 -213.999c-63.333 -103.333 -169.333 -155 -318 -155zM325 -400.002h150v-150h-150v150z
M450 -150.002h150v-150h-150v150zM200 -150.002h150v-150h-150v150z" />
    <glyph glyph-name="uni06AE.medi" unicode="&#x6ae;" horiz-adv-x="1131" 
d="M310 0l-330.001 -0.00195312v184h310c98.667 0 163 34.667 193 104c10.667 24 16 48 16 72c0 46 -18 91 -54 135l-310 380c-33.333 40.667 -50 88 -50 142c0 23.333 3.33301 46 10 68c20.667 78.667 65.667 132.334 135 161.001l745 310v-186l-595 -250
c-47.333 -20 -78 -43.333 -92 -70c-4 -7.33301 -6 -19.333 -6 -36c0 -21.333 10.333 -44.333 31 -69l583 -705c14.667 -17.333 34.667 -30.666 60 -39.999c28.667 -10.667 64.334 -16 107.001 -16h88v-184h-132c-43.333 0 -84.333 8 -123 24
c-68.667 28.667 -114 56.667 -136 84l-97 120c-14 -30.667 -26.667 -55 -38 -73c-63.333 -103.333 -168.333 -155 -315 -155zM324.999 -400.002h150v-150h-150v150zM449.999 -150.002h150v-150h-150v150zM199.999 -150.002h150v-150h-150v150z" />
    <glyph glyph-name="uni06AE.fina" unicode="&#x6ae;" horiz-adv-x="1726" 
d="M976 1135l-0.00292969 -82c-49.333 -2.66699 -86.666 -8.66699 -111.999 -18c-53.333 -20 -80 -41 -80 -63c0 -18.667 4.66699 -34 14 -46c8 -10.667 34.667 -19.334 80 -26.001c68 -10 102 -44.333 102 -103c0 -73.333 -29.333 -124 -88 -152
c-54.667 -26 -108 -39 -160 -39c-44 0 -84.667 3.66699 -122 11v88c45.333 -6.66699 83 -10 113 -10c40 0 79 8.66699 117 26c40 17.333 60 36 60 56c0 25.333 -26 43.666 -78 54.999c-49.333 10.667 -80 25.334 -92 44.001c-21.333 31.333 -31.666 62.333 -30.999 93
c1.33301 54 27 93.667 77 119c56.667 28.667 123.334 44.334 200.001 47.001zM998.997 -37c-72.667 -13.333 -157.332 -19.332 -253.999 -17.999c-138 1.33301 -240.667 12 -308 32c-195.333 58.667 -293 153 -293 283c0 50 5.33301 92.667 16 128h184
c-9.33301 -38.667 -14 -72.667 -14 -102c1.33301 -61.333 55.333 -107.333 162 -138c80.667 -23.333 163.334 -35 248.001 -35c93.333 0 169.666 9 228.999 27c101.333 31.333 184.666 78.333 249.999 141c50.667 48.667 76 158.667 76 330v945h184v-1173
c0 -70.667 16.333 -122.334 49 -155.001c29.333 -29.333 77 -44 143 -44h75v-184h-130c-102 0 -190.667 41 -266 123c-105.333 -84 -222.333 -137.333 -351 -160zM724.999 -449.999h150v-150h-150v150zM849.999 -199.999h150v-150h-150v150zM599.999 -199.999h150v-150h-150
v150z" />
    <glyph glyph-name="uni06B0.init" unicode="&#x6b0;" horiz-adv-x="975" 
d="M310 0l-330 -0.00195312v184h310c98.667 0 163 34.667 193 104c10.667 24 16 48 16 72c0 46 -18 91 -54 135l-310 380c-33.333 40.667 -50 88 -50 142c0 23.333 3.33301 46 10 68c20.667 78.667 65.667 132.334 135 161.001l745 310v-186l-595 -250
c-47.333 -20 -78 -43.333 -92 -70c-4 -7.33301 -6 -19.333 -6 -36c0 -21.333 10.333 -44.333 31 -69l275 -330c68 -82 102 -164 102 -246c0 -75.333 -20.667 -146.666 -62 -213.999c-63.333 -103.333 -169.333 -155 -318 -155zM975 1685l-863 -354v150l863 354v-150z
M816 1120c0 26.667 -9.33301 49.333 -28 68c-18.667 19.333 -41.667 29 -69 29s-50.333 -9.33301 -69 -28s-28 -41.667 -28 -69c0 -28 9.33301 -51.333 28 -70c18.667 -18 41.667 -27 69 -27s50.333 9.33301 69 28s28 41.667 28 69zM938 1120
c0 -61.333 -21 -113.333 -63 -156c-42.667 -42.667 -94.667 -64 -156 -64s-113 21.333 -155 64c-42.667 42.667 -64 94.667 -64 156s21.333 113.333 64 156c42 42 93.667 63 155 63s113.333 -21 156 -63c42 -42.667 63 -94.667 63 -156z" />
    <glyph glyph-name="uni06B0.medi" unicode="&#x6b0;" horiz-adv-x="1131" 
d="M310 0l-330.001 -0.00195312v184h310c98.667 0 163 34.667 193 104c10.667 24 16 48 16 72c0 46 -18 91 -54 135l-310 380c-33.333 40.667 -50 88 -50 142c0 23.333 3.33301 46 10 68c20.667 78.667 65.667 132.334 135 161.001l745 310v-186l-595 -250
c-47.333 -20 -78 -43.333 -92 -70c-4 -7.33301 -6 -19.333 -6 -36c0 -21.333 10.333 -44.333 31 -69l583 -705c14.667 -17.333 34.667 -30.666 60 -39.999c28.667 -10.667 64.334 -16 107.001 -16h88v-184h-132c-43.333 0 -84.333 8 -123 24
c-68.667 28.667 -114 56.667 -136 84l-97 120c-14 -30.667 -26.667 -55 -38 -73c-63.333 -103.333 -168.333 -155 -315 -155zM974.999 1685l-863 -354v150l863 354v-150zM815.999 1120c0 26.667 -9.33301 49.333 -28 68c-18.667 19.333 -41.667 29 -69 29
s-50.333 -9.33301 -69 -28s-28 -41.667 -28 -69c0 -28 9.33301 -51.333 28 -70c18.667 -18 41.667 -27 69 -27s50.333 9.33301 69 28s28 41.667 28 69zM937.999 1120c0 -61.333 -21 -113.333 -63 -156c-42.667 -42.667 -94.667 -64 -156 -64s-113 21.333 -155 64
c-42.667 42.667 -64 94.667 -64 156s21.333 113.333 64 156c42 42 93.667 63 155 63s113.333 -21 156 -63c42 -42.667 63 -94.667 63 -156z" />
    <glyph glyph-name="uni06B0.fina" unicode="&#x6b0;" horiz-adv-x="1833" 
d="M1436 120c-66 -50.667 -155.333 -96 -268 -136c-136.667 -48.667 -266 -73 -388 -73c-128 0 -234.667 12.667 -320 38c-220 65.333 -330 187 -330 365c0 92 21 168.667 63 230h184c-43.333 -62.667 -65 -139.334 -65 -230.001c0 -84 67.667 -148 203 -192
c69.333 -22.667 154.333 -34 255 -34c122.667 0 248.667 26.667 378 80c105.333 43.333 169.666 83.333 192.999 120c10.667 17.333 16 41.333 16 72c0 46 -18 91 -54 135l-310 380c-33.333 40.667 -50 88 -50 142c0 23.333 3.33301 46 10 68
c23.333 79.333 68.333 133 135 161l745 310v-186l-595 -250c-47.333 -20 -78 -43.333 -92 -70c-4 -7.33301 -6 -19.333 -6 -36c0 -21.333 10.333 -44.333 31 -69l583 -705c14.667 -17.333 34.667 -30.666 60 -39.999c28.667 -10.667 64.334 -16 107.001 -16h88v-184h-132
c-43.333 0 -84.333 8 -123 24c-68.667 28.667 -114 56.667 -136 84l-97 120c-16.667 -42.667 -45 -78.667 -85 -108zM1833 1685l-863 -354v150l863 354v-150zM1666 1120c0 26.667 -9.33301 49.333 -28 68c-18.667 19.333 -41.667 29 -69 29s-50.333 -9.33301 -69 -28
s-28 -41.667 -28 -69c0 -28 9.33301 -51.333 28 -70c18.667 -18 41.667 -27 69 -27s50.333 9.33301 69 28s28 41.667 28 69zM1788 1120c0 -61.333 -21 -113.333 -63 -156c-42.667 -42.667 -94.667 -64 -156 -64s-113 21.333 -155 64c-42.667 42.667 -64 94.667 -64 156
s21.333 113.333 64 156c42 42 93.667 63 155 63s113.333 -21 156 -63c42 -42.667 63 -94.667 63 -156z" />
    <glyph glyph-name="uni06B2.init" unicode="&#x6b2;" horiz-adv-x="975" 
d="M310 0l-330 -0.00195312v184h310c98.667 0 163 34.667 193 104c10.667 24 16 48 16 72c0 46 -18 91 -54 135l-310 380c-33.333 40.667 -50 88 -50 142c0 23.333 3.33301 46 10 68c20.667 78.667 65.667 132.334 135 161.001l745 310v-186l-595 -250
c-47.333 -20 -78 -43.333 -92 -70c-4 -7.33301 -6 -19.333 -6 -36c0 -21.333 10.333 -44.333 31 -69l275 -330c68 -82 102 -164 102 -246c0 -75.333 -20.667 -146.666 -62 -213.999c-63.333 -103.333 -169.333 -155 -318 -155zM975 1685l-863 -354v150l863 354v-150z
M450 -150.002h150v-150h-150v150zM200 -150.002h150v-150h-150v150z" />
    <glyph glyph-name="uni06B2.medi" unicode="&#x6b2;" horiz-adv-x="1131" 
d="M310 0l-330.001 -0.00195312v184h310c98.667 0 163 34.667 193 104c10.667 24 16 48 16 72c0 46 -18 91 -54 135l-310 380c-33.333 40.667 -50 88 -50 142c0 23.333 3.33301 46 10 68c20.667 78.667 65.667 132.334 135 161.001l745 310v-186l-595 -250
c-47.333 -20 -78 -43.333 -92 -70c-4 -7.33301 -6 -19.333 -6 -36c0 -21.333 10.333 -44.333 31 -69l583 -705c14.667 -17.333 34.667 -30.666 60 -39.999c28.667 -10.667 64.334 -16 107.001 -16h88v-184h-132c-43.333 0 -84.333 8 -123 24
c-68.667 28.667 -114 56.667 -136 84l-97 120c-14 -30.667 -26.667 -55 -38 -73c-63.333 -103.333 -168.333 -155 -315 -155zM974.999 1685l-863 -354v150l863 354v-150zM449.999 -150.002h150v-150h-150v150zM199.999 -150.002h150v-150h-150v150z" />
    <glyph glyph-name="uni06B2.fina" unicode="&#x6b2;" horiz-adv-x="1833" 
d="M1436 120c-66 -50.667 -155.333 -96 -268 -136c-136.667 -48.667 -266 -73 -388 -73c-128 0 -234.667 12.667 -320 38c-220 65.333 -330 187 -330 365c0 92 21 168.667 63 230h184c-43.333 -62.667 -65 -139.334 -65 -230.001c0 -84 67.667 -148 203 -192
c69.333 -22.667 154.333 -34 255 -34c122.667 0 248.667 26.667 378 80c105.333 43.333 169.666 83.333 192.999 120c10.667 17.333 16 41.333 16 72c0 46 -18 91 -54 135l-310 380c-33.333 40.667 -50 88 -50 142c0 23.333 3.33301 46 10 68
c23.333 79.333 68.333 133 135 161l745 310v-186l-595 -250c-47.333 -20 -78 -43.333 -92 -70c-4 -7.33301 -6 -19.333 -6 -36c0 -21.333 10.333 -44.333 31 -69l583 -705c14.667 -17.333 34.667 -30.666 60 -39.999c28.667 -10.667 64.334 -16 107.001 -16h88v-184h-132
c-43.333 0 -84.333 8 -123 24c-68.667 28.667 -114 56.667 -136 84l-97 120c-16.667 -42.667 -45 -78.667 -85 -108zM1833 1685l-863 -354v150l863 354v-150zM850 -200h150v-150h-150v150zM600 -200h150v-150h-150v150z" />
    <glyph glyph-name="uni06B4.init" unicode="&#x6b4;" horiz-adv-x="975" 
d="M310 0l-330 -0.00195312v184h310c98.667 0 163 34.667 193 104c10.667 24 16 48 16 72c0 46 -18 91 -54 135l-310 380c-33.333 40.667 -50 88 -50 142c0 23.333 3.33301 46 10 68c20.667 78.667 65.667 132.334 135 161.001l745 310v-186l-595 -250
c-47.333 -20 -78 -43.333 -92 -70c-4 -7.33301 -6 -19.333 -6 -36c0 -21.333 10.333 -44.333 31 -69l275 -330c68 -82 102 -164 102 -246c0 -75.333 -20.667 -146.666 -62 -213.999c-63.333 -103.333 -169.333 -155 -318 -155zM975 1685l-863 -354v150l863 354v-150z
M200 2100h150v-150h-150v150zM325 1850h150v-150h-150v150zM75 1850h150v-150h-150v150z" />
    <glyph glyph-name="uni06B4.medi" unicode="&#x6b4;" horiz-adv-x="1131" 
d="M310 0l-330.001 -0.00195312v184h310c98.667 0 163 34.667 193 104c10.667 24 16 48 16 72c0 46 -18 91 -54 135l-310 380c-33.333 40.667 -50 88 -50 142c0 23.333 3.33301 46 10 68c20.667 78.667 65.667 132.334 135 161.001l745 310v-186l-595 -250
c-47.333 -20 -78 -43.333 -92 -70c-4 -7.33301 -6 -19.333 -6 -36c0 -21.333 10.333 -44.333 31 -69l583 -705c14.667 -17.333 34.667 -30.666 60 -39.999c28.667 -10.667 64.334 -16 107.001 -16h88v-184h-132c-43.333 0 -84.333 8 -123 24
c-68.667 28.667 -114 56.667 -136 84l-97 120c-14 -30.667 -26.667 -55 -38 -73c-63.333 -103.333 -168.333 -155 -315 -155zM974.999 1685l-863 -354v150l863 354v-150zM199.999 2100h150v-150h-150v150zM324.999 1850h150v-150h-150v150zM74.999 1850h150v-150h-150v150z
" />
    <glyph glyph-name="uni06B4.fina" unicode="&#x6b4;" horiz-adv-x="1833" 
d="M1436 120c-66 -50.667 -155.333 -96 -268 -136c-136.667 -48.667 -266 -73 -388 -73c-128 0 -234.667 12.667 -320 38c-220 65.333 -330 187 -330 365c0 92 21 168.667 63 230h184c-43.333 -62.667 -65 -139.334 -65 -230.001c0 -84 67.667 -148 203 -192
c69.333 -22.667 154.333 -34 255 -34c122.667 0 248.667 26.667 378 80c105.333 43.333 169.666 83.333 192.999 120c10.667 17.333 16 41.333 16 72c0 46 -18 91 -54 135l-310 380c-33.333 40.667 -50 88 -50 142c0 23.333 3.33301 46 10 68
c23.333 79.333 68.333 133 135 161l745 310v-186l-595 -250c-47.333 -20 -78 -43.333 -92 -70c-4 -7.33301 -6 -19.333 -6 -36c0 -21.333 10.333 -44.333 31 -69l583 -705c14.667 -17.333 34.667 -30.666 60 -39.999c28.667 -10.667 64.334 -16 107.001 -16h88v-184h-132
c-43.333 0 -84.333 8 -123 24c-68.667 28.667 -114 56.667 -136 84l-97 120c-16.667 -42.667 -45 -78.667 -85 -108zM1833 1685l-863 -354v150l863 354v-150zM1025 2100h150v-150h-150v150zM1150 1850h150v-150h-150v150zM900 1850h150v-150h-150v150z" />
    <glyph glyph-name="uni06B5.init" unicode="&#x6b5;" horiz-adv-x="624" 
d="M265 1662l-195 326h139l130 -195l130 195h139l-195 -326h-148zM431 371c0 -118.667 -29 -211.668 -87 -279.001c-53.333 -61.333 -131.333 -92 -234 -92h-130v184h75c66 0 113.667 14.667 143 44c32.667 32.667 49 84.334 49 155.001v1173h184v-1185z" />
    <glyph glyph-name="uni06B5.medi" unicode="&#x6b5;" horiz-adv-x="678" 
d="M265 1662l-195 326h139l130 -195l130 195h139l-195 -326h-148zM339 86c-51.333 -57.333 -127.667 -86 -229 -86h-130v184h75c66 0 113.667 14.667 143 44c32.667 32.667 49 84.334 49 155.001v1173h184v-1173c0 -70.667 16.333 -122.334 49 -155.001
c29.333 -29.333 77 -44 143 -44h75v-184h-130c-100 0 -176.333 28.667 -229 86z" />
    <glyph glyph-name="uni06B5.fina" unicode="&#x6b5;" horiz-adv-x="1551" 
d="M1138 1662l-195 326h139l130 -195l130 195h139l-195 -326h-148zM1042 73c52 84 78 201.67 78 353.003v1130h184v-1173c0 -70.667 16.333 -122.334 49 -155.001c29.333 -29.333 77 -44 143 -44h75v-184h-130c-74.667 0 -138 17 -190 51
c-12 -30.667 -27 -59.334 -45 -86.001c-80.667 -118 -208 -199 -382 -243c-89.333 -22.667 -162.333 -34 -219 -34c-66 0 -122 7.33301 -168 22c-194.667 60.667 -292.334 182.334 -293.001 365.001c-0.666992 92 20.333 168.667 63 230h184
c-43.333 -76.667 -65 -153.334 -65 -230.001c0 -84 55.333 -148 166 -192c26.667 -10.667 64.334 -16 113.001 -16c53.333 0 116.333 11.333 189 34c116 35.333 198.667 92.666 248 171.999z" />
    <glyph glyph-name="uni06B6.init" unicode="&#x6b6;" horiz-adv-x="624" 
d="M431 371c0 -118.667 -29 -211.668 -87 -279.001c-53.333 -61.333 -131.333 -92 -234 -92h-130v184h75c66 0 113.667 14.667 143 44c32.667 32.667 49 84.334 49 155.001v1173h184v-1185zM257 1950h150v-150h-150v150z" />
    <glyph glyph-name="uni06B6.medi" unicode="&#x6b6;" horiz-adv-x="678" 
d="M339 86c-51.333 -57.333 -127.667 -86 -229 -86h-130v184h75c66 0 113.667 14.667 143 44c32.667 32.667 49 84.334 49 155.001v1173h184v-1173c0 -70.667 16.333 -122.334 49 -155.001c29.333 -29.333 77 -44 143 -44h75v-184h-130c-100 0 -176.333 28.667 -229 86z
M256.999 1950h150v-150h-150v150z" />
    <glyph glyph-name="uni06B6.fina" unicode="&#x6b6;" horiz-adv-x="1551" 
d="M1042 73c52 84 78 201.67 78 353.003v1130h184v-1173c0 -70.667 16.333 -122.334 49 -155.001c29.333 -29.333 77 -44 143 -44h75v-184h-130c-74.667 0 -138 17 -190 51c-12 -30.667 -27 -59.334 -45 -86.001c-80.667 -118 -208 -199 -382 -243
c-89.333 -22.667 -162.333 -34 -219 -34c-66 0 -122 7.33301 -168 22c-194.667 60.667 -292.334 182.334 -293.001 365.001c-0.666992 92 20.333 168.667 63 230h184c-43.333 -76.667 -65 -153.334 -65 -230.001c0 -84 55.333 -148 166 -192
c26.667 -10.667 64.334 -16 113.001 -16c53.333 0 116.333 11.333 189 34c116 35.333 198.667 92.666 248 171.999zM1130 1950h150v-150h-150v150z" />
    <glyph glyph-name="uni06B7.init" unicode="&#x6b7;" horiz-adv-x="624" 
d="M431 371c0 -118.667 -29 -211.668 -87 -279.001c-53.333 -61.333 -131.333 -92 -234 -92h-130v184h75c66 0 113.667 14.667 143 44c32.667 32.667 49 84.334 49 155.001v1173h184v-1185zM252 2100h150v-150h-150v150zM377 1850h150v-150h-150v150zM127 1850h150v-150
h-150v150z" />
    <glyph glyph-name="uni06B7.medi" unicode="&#x6b7;" horiz-adv-x="678" 
d="M339 86c-51.333 -57.333 -127.667 -86 -229 -86h-130v184h75c66 0 113.667 14.667 143 44c32.667 32.667 49 84.334 49 155.001v1173h184v-1173c0 -70.667 16.333 -122.334 49 -155.001c29.333 -29.333 77 -44 143 -44h75v-184h-130c-100 0 -176.333 28.667 -229 86z
M251.999 2100h150v-150h-150v150zM376.999 1850h150v-150h-150v150zM126.999 1850h150v-150h-150v150z" />
    <glyph glyph-name="uni06B7.fina" unicode="&#x6b7;" horiz-adv-x="1551" 
d="M1042 73c52 84 78 201.67 78 353.003v1130h184v-1173c0 -70.667 16.333 -122.334 49 -155.001c29.333 -29.333 77 -44 143 -44h75v-184h-130c-74.667 0 -138 17 -190 51c-12 -30.667 -27 -59.334 -45 -86.001c-80.667 -118 -208 -199 -382 -243
c-89.333 -22.667 -162.333 -34 -219 -34c-66 0 -122 7.33301 -168 22c-194.667 60.667 -292.334 182.334 -293.001 365.001c-0.666992 92 20.333 168.667 63 230h184c-43.333 -76.667 -65 -153.334 -65 -230.001c0 -84 55.333 -148 166 -192
c26.667 -10.667 64.334 -16 113.001 -16c53.333 0 116.333 11.333 189 34c116 35.333 198.667 92.666 248 171.999zM1125 2100h150v-150h-150v150zM1250 1850h150v-150h-150v150zM1000 1850h150v-150h-150v150z" />
    <glyph glyph-name="uni06B8.init" unicode="&#x6b8;" horiz-adv-x="624" 
d="M431 371c0 -118.667 -29 -211.668 -87 -279.001c-53.333 -61.333 -131.333 -92 -234 -92h-130v184h75c66 0 113.667 14.667 143 44c32.667 32.667 49 84.334 49 155.001v1173h184v-1185zM224 -350.001h150v-150h-150v150zM349 -100.001h150v-150h-150v150zM99 -100.001
h150v-150h-150v150z" />
    <glyph glyph-name="uni06B8.medi" unicode="&#x6b8;" horiz-adv-x="678" 
d="M339 86c-51.333 -57.333 -127.667 -86 -229 -86h-130v184h75c66 0 113.667 14.667 143 44c32.667 32.667 49 84.334 49 155.001v1173h184v-1173c0 -70.667 16.333 -122.334 49 -155.001c29.333 -29.333 77 -44 143 -44h75v-184h-130c-100 0 -176.333 28.667 -229 86z
M253.999 -350h150v-150h-150v150zM378.999 -100h150v-150h-150v150zM128.999 -100h150v-150h-150v150z" />
    <glyph glyph-name="uni06B8.fina" unicode="&#x6b8;" horiz-adv-x="1551" 
d="M1042 73c52 84 78 201.67 78 353.003v1130h184v-1173c0 -70.667 16.333 -122.334 49 -155.001c29.333 -29.333 77 -44 143 -44h75v-184h-130c-74.667 0 -138 17 -190 51c-12 -30.667 -27 -59.334 -45 -86.001c-80.667 -118 -208 -199 -382 -243
c-89.333 -22.667 -162.333 -34 -219 -34c-66 0 -122 7.33301 -168 22c-194.667 60.667 -292.334 182.334 -293.001 365.001c-0.666992 92 20.333 168.667 63 230h184c-43.333 -76.667 -65 -153.334 -65 -230.001c0 -84 55.333 -148 166 -192
c26.667 -10.667 64.334 -16 113.001 -16c53.333 0 116.333 11.333 189 34c116 35.333 198.667 92.666 248 171.999zM675 -649.997h150v-150h-150v150zM800 -399.997h150v-150h-150v150zM550 -399.997h150v-150h-150v150z" />
    <glyph glyph-name="uni06B9.init" unicode="&#x6b9;" horiz-adv-x="570" 
d="M224 1000h150v-150h-150v150zM299 86c-48 -57.333 -124.333 -86.001 -229 -86.001h-90v184h35c66 0 113.667 14.667 143 44c32.667 32.667 49 84.334 49 155.001v217h184v-217c0 -124.667 -30.667 -223.667 -92 -297zM224 -150.001h150v-150h-150v150z" />
    <glyph glyph-name="uni06B9.medi" unicode="&#x6b9;" horiz-adv-x="618" 
d="M224 1000h150v-150h-150v150zM299 86c-51.333 -57.333 -127.667 -86 -229 -86h-90v184h35c66 0 113.667 14.667 143 44c32.667 32.667 49 84.334 49 155.001v217h184v-217c0 -70.667 16.333 -122.334 49 -155.001c29.333 -29.333 77 -44 143 -44h55v-184h-110
c-100 0 -176.333 28.667 -229 86zM223.999 -150h150v-150h-150v150z" />
    <glyph glyph-name="uni06B9.fina" unicode="&#x6b9;" horiz-adv-x="1559" 
d="M1248 581c29.333 -64.667 52.998 -129.002 70.998 -193.002c14.667 -53.333 38.667 -100 72 -140c35.333 -42.667 73 -64 113 -64h75v-184h-130c-47.333 0 -82.333 16 -105 48c-2 -72.667 -32.667 -158 -92 -256c-80 -132.667 -199.667 -221 -359 -265
c-64.667 -18 -127.667 -27 -189 -27c-77.333 0 -153.666 12.333 -228.999 37c-218.667 71.333 -328 225.333 -328 462c0 116.667 15.667 222 47 316h184c-32.667 -91.333 -49 -196.666 -49 -315.999c0 -157.333 67 -253.666 201 -288.999c60 -16 115.333 -24 166 -24
c58.667 0 114.334 6.66699 167.001 20c129.333 32 219 123.667 269 275c22 67.333 33 138.333 33 213c0 122.667 -33.667 251.667 -101 387h184zM574.998 699.998h150v-150h-150v150zM699.998 -675.002h150v-150h-150v150z" />
    <glyph glyph-name="uni06BA.init" unicode="&#x6ba;" horiz-adv-x="570" 
d="M299 86c-48 -57.333 -124.333 -86.001 -229 -86.001h-90v184h35c66 0 113.667 14.667 143 44c32.667 32.667 49 84.334 49 155.001v217h184v-217c0 -124.667 -30.667 -223.667 -92 -297zM224 999.999h150v-150h-150v150z" />
    <glyph glyph-name="uni06BA.medi" unicode="&#x6ba;" horiz-adv-x="618" 
d="M299 86c-51.333 -57.333 -127.667 -86 -229 -86h-90v184h35c66 0 113.667 14.667 143 44c32.667 32.667 49 84.334 49 155.001v217h184v-217c0 -70.667 16.333 -122.334 49 -155.001c29.333 -29.333 77 -44 143 -44h55v-184h-110c-100 0 -176.333 28.667 -229 86z
M223.999 1000h150v-150h-150v150z" />
    <glyph glyph-name="uni06BC.init" unicode="&#x6bc;" horiz-adv-x="570" 
d="M224 1000h150v-150h-150v150zM299 86c-48 -57.333 -124.333 -86.001 -229 -86.001h-90v184h35c66 0 113.667 14.667 143 44c32.667 32.667 49 84.334 49 155.001v217h184v-217c0 -124.667 -30.667 -223.667 -92 -297zM396 -48.001c0 26.667 -9.33301 49.333 -28 68
c-18.667 19.333 -41.667 29 -69 29s-50.333 -9.33301 -69 -28s-28 -41.667 -28 -69c0 -28 9.33301 -51.333 28 -70c18.667 -18 41.667 -27 69 -27s50.333 9.33301 69 28s28 41.667 28 69zM518 -48.002c0 -61.333 -21 -113.333 -63 -156
c-42.667 -42.667 -94.667 -64 -156 -64s-113 21.333 -155 64c-42.667 42.667 -64 94.667 -64 156s21.333 113.333 64 156c42 42 93.667 63 155 63s113.333 -21 156 -63c42 -42.667 63 -94.667 63 -156z" />
    <glyph glyph-name="uni06BC.medi" unicode="&#x6bc;" horiz-adv-x="618" 
d="M224 1000h150v-150h-150v150zM299 86c-51.333 -57.333 -127.667 -86 -229 -86h-90v184h35c66 0 113.667 14.667 143 44c32.667 32.667 49 84.334 49 155.001v217h184v-217c0 -70.667 16.333 -122.334 49 -155.001c29.333 -29.333 77 -44 143 -44h55v-184h-110
c-100 0 -176.333 28.667 -229 86zM395.999 -48c0 26.667 -9.33301 49.333 -28 68c-18.667 19.333 -41.667 29 -69 29s-50.333 -9.33301 -69 -28s-28 -41.667 -28 -69c0 -28 9.33301 -51.333 28 -70c18.667 -18 41.667 -27 69 -27s50.333 9.33301 69 28s28 41.667 28 69z
M517.999 -48.001c0 -61.333 -21 -113.333 -63 -156c-42.667 -42.667 -94.667 -64 -156 -64s-113 21.333 -155 64c-42.667 42.667 -64 94.667 -64 156s21.333 113.333 64 156c42 42 93.667 63 155 63s113.333 -21 156 -63c42 -42.667 63 -94.667 63 -156z" />
    <glyph glyph-name="uni06BC.fina" unicode="&#x6bc;" horiz-adv-x="1559" 
d="M1248 581c29.333 -64.667 52.998 -129.002 70.998 -193.002c14.667 -53.333 38.667 -100 72 -140c35.333 -42.667 73 -64 113 -64h75v-184h-130c-47.333 0 -82.333 16 -105 48c-2 -72.667 -32.667 -158 -92 -256c-80 -132.667 -199.667 -221 -359 -265
c-64.667 -18 -127.667 -27 -189 -27c-77.333 0 -153.666 12.333 -228.999 37c-218.667 71.333 -328 225.333 -328 462c0 116.667 15.667 222 47 316h184c-32.667 -91.333 -49 -196.666 -49 -315.999c0 -157.333 67 -253.666 201 -288.999c60 -16 115.333 -24 166 -24
c58.667 0 114.334 6.66699 167.001 20c129.333 32 219 123.667 269 275c22 67.333 33 138.333 33 213c0 122.667 -33.667 251.667 -101 387h184zM574.998 699.998h150v-150h-150v150zM865.998 -630.002c0 26.667 -9.33301 49.333 -28 68c-18.667 19.333 -41.667 29 -69 29
s-50.333 -9.33301 -69 -28s-28 -41.667 -28 -69c0 -28 9.33301 -51.333 28 -70c18.667 -18 41.667 -27 69 -27s50.333 9.33301 69 28s28 41.667 28 69zM987.998 -630.003c0 -61.333 -21 -113.333 -63 -156c-42.667 -42.667 -94.667 -64 -156 -64s-113 21.333 -155 64
c-42.667 42.667 -64 94.667 -64 156s21.333 113.333 64 156c42 42 93.667 63 155 63s113.333 -21 156 -63c42 -42.667 63 -94.667 63 -156z" />
    <glyph glyph-name="uni06BD.init" unicode="&#x6bd;" horiz-adv-x="570" 
d="M299 86c-48 -57.333 -124.333 -86.001 -229 -86.001h-90v184h35c66 0 113.667 14.667 143 44c32.667 32.667 49 84.334 49 155.001v217h184v-217c0 -124.667 -30.667 -223.667 -92 -297zM224 1250h150v-150h-150v150zM349 999.999h150v-150h-150v150zM99 999.999h150
v-150h-150v150z" />
    <glyph glyph-name="uni06BD.medi" unicode="&#x6bd;" horiz-adv-x="618" 
d="M299 86c-51.333 -57.333 -127.667 -86 -229 -86h-90v184h35c66 0 113.667 14.667 143 44c32.667 32.667 49 84.334 49 155.001v217h184v-217c0 -70.667 16.333 -122.334 49 -155.001c29.333 -29.333 77 -44 143 -44h55v-184h-110c-100 0 -176.333 28.667 -229 86z
M223.999 1250h150v-150h-150v150zM348.999 1000h150v-150h-150v150zM98.999 1000h150v-150h-150v150z" />
    <glyph glyph-name="uni06BD.fina" unicode="&#x6bd;" horiz-adv-x="1559" 
d="M1248 581c29.333 -64.667 52.998 -129.002 70.998 -193.002c14.667 -53.333 38.667 -100 72 -140c35.333 -42.667 73 -64 113 -64h75v-184h-130c-47.333 0 -82.333 16 -105 48c-2 -72.667 -32.667 -158 -92 -256c-80 -132.667 -199.667 -221 -359 -265
c-64.667 -18 -127.667 -27 -189 -27c-77.333 0 -153.666 12.333 -228.999 37c-218.667 71.333 -328 225.333 -328 462c0 116.667 15.667 222 47 316h184c-32.667 -91.333 -49 -196.666 -49 -315.999c0 -157.333 67 -253.666 201 -288.999c60 -16 115.333 -24 166 -24
c58.667 0 114.334 6.66699 167.001 20c129.333 32 219 123.667 269 275c22 67.333 33 138.333 33 213c0 122.667 -33.667 251.667 -101 387h184zM624.998 949.998h150v-150h-150v150zM749.998 699.998h150v-150h-150v150zM499.998 699.998h150v-150h-150v150z" />
    <glyph glyph-name="uni06BF.init" unicode="&#x6bf;" horiz-adv-x="1266" 
d="M851 541c-55.333 15.333 -117.331 30.665 -185.998 45.998c-56.667 12.667 -145 24.334 -265 35.001c-54.667 4.66699 -135.667 5 -243 1v184c48 4.66699 97 7.33398 147 8.00098c108 0 219.333 -11.667 334 -35c172 -34.667 331.333 -84.667 478 -150v-154
c-50.667 -16 -105.334 -41.333 -164.001 -76c-110.667 -65.333 -190.667 -120 -240 -164c-96.667 -86 -170 -138 -220 -156c-147.333 -53.333 -275.333 -80 -384 -80h-128v184h100c151.333 0 270 24 356 72c69.333 38.667 142.666 93.334 219.999 164.001
c62.667 57.333 127.667 97.666 195 120.999zM525.002 -300.001h150v-150h-150v150zM650.002 -50.001h150v-150h-150v150zM400.002 -50.001h150v-150h-150v150zM525.002 1100h150v-150h-150v150z" />
    <glyph glyph-name="uni06BF.medi" unicode="&#x6bf;" horiz-adv-x="1322" 
d="M638 780c172 -34.667 331.334 -84.668 478.001 -150.001v-154c-43.333 -13.333 -89.333 -33.666 -138 -60.999c33.333 -52 60 -89.333 80 -112c69.333 -79.333 142 -119 218 -119h66v-184h-86c-139.333 0 -251 56 -335 168c-26.667 36 -59.667 86.333 -99 151
c-46 -30.667 -82.667 -58.334 -110 -83.001c-96.667 -86 -170 -138 -220 -156c-147.333 -53.333 -275.333 -80 -384 -80h-128v184h100c151.333 0 270 24 356 72c69.333 38.667 142.666 93.334 219.999 164.001c62.667 57.333 127.667 97.666 195 120.999
c-55.333 15.333 -117.333 30.666 -186 45.999c-56.667 12.667 -145 24.334 -265 35.001c-54.667 4.66699 -135.667 5 -243 1v184c48 4.66699 97 7.33398 147 8.00098c108 0 219.333 -11.667 334 -35zM537.001 -300.001h150v-150h-150v150zM662.001 -50.001h150v-150h-150
v150zM412.001 -50.001h150v-150h-150v150zM525.001 1100h150v-150h-150v150z" />
    <glyph glyph-name="uni06BF.fina" unicode="&#x6bf;" horiz-adv-x="1322" 
d="M1302 184h40.002v-184h-49c-86 0 -170 50 -252 150c-54.667 66.667 -102.334 152 -143.001 256l-79 193c-76 -16 -146.667 -50.667 -212 -104c-149.333 -122 -224 -267 -224 -435c0 -91.333 24.667 -168.333 74 -231c86 -109.333 238.667 -164 458 -164
c128.667 0 263.667 39.333 405 118v-184c-100 -66 -233.333 -99 -400 -99c-278.667 0 -474.334 64.667 -587.001 194c-87.333 100 -131 224.667 -131 374c0 172 70.667 332.333 212 481c64 67.333 141.667 118.333 233 153h-25c-63.333 0 -141.666 -6.33301 -234.999 -19
c-90 -12.667 -166.667 -32.667 -230 -60v184c181.333 42 336.333 63 465 63c196 0 360.667 -18 494 -54v-154c-72.667 0 -119.334 -4.33301 -140.001 -13l29 -91c34 -106.667 75 -191.667 123 -255c60 -79.333 118 -119 174 -119zM575.002 1200h150v-150h-150v150z
M612.002 -75h150v-150h-150v150zM737.002 175h150v-150h-150v150zM487.002 175h150v-150h-150v150z" />
    <glyph glyph-name="uni06CE.init" unicode="&#x6ce;" horiz-adv-x="570" 
d="M225 762l-195 326h139l130 -195l130 195h139l-195 -326h-148zM349 -150h150v-150h-150v150zM99 -150h150v-150h-150v150zM299 86c-48 -57.333 -124.333 -86.001 -229 -86.001h-90v184h35c66 0 113.667 14.667 143 44c32.667 32.667 49 84.334 49 155.001v217h184v-217
c0 -124.667 -30.667 -223.667 -92 -297z" />
    <glyph glyph-name="uni06CE.medi" unicode="&#x6ce;" horiz-adv-x="618" 
d="M225 762l-195 326h139l130 -195l130 195h139l-195 -326h-148zM349 -150h150v-150h-150v150zM99 -150h150v-150h-150v150zM299 86c-51.333 -57.333 -127.667 -86 -229 -86h-90v184h35c66 0 113.667 14.667 143 44c32.667 32.667 49 84.334 49 155.001v217h184v-217
c0 -70.667 16.333 -122.334 49 -155.001c29.333 -29.333 77 -44 143 -44h55v-184h-110c-100 0 -176.333 28.667 -229 86z" />
    <glyph glyph-name="uni06CE.fina" unicode="&#x6ce;" horiz-adv-x="1707" 
d="M626 512l-195 326h139l130 -195l130 195h139l-195 -326h-148zM1100 -33c60.667 34 90.999 61.9961 90.999 83.9961c-0.666992 28.667 -16.667 47.334 -48 56.001c-19.333 5.33301 -39 21.333 -59 48c-29.333 39.333 -44 79.333 -44 120c0 43.333 17.333 85 52 125
c53.333 62.667 108 98.667 164 108c20 4 44 6 72 6c78 0 146 -44.667 204 -134c85.333 -130.667 138.666 -196 159.999 -196h35v-184h-35c-76 0 -151.333 57.333 -226 172c-72 110 -116.667 165 -134 165c-24 0 -41 -2 -51 -6c-30 -11.333 -45 -28.666 -45 -51.999
c0 -32 21.667 -57 65 -75c48.667 -20 74 -71 76 -153c2 -65.333 -34.667 -126.666 -110 -183.999c-85.333 -64 -200.666 -106.333 -345.999 -127c-59.333 -8 -123.666 -12 -192.999 -12c-125.333 0 -227 13.667 -305 41c-195.333 68.667 -293 190.334 -293 365.001
c0 102 21 183 63 243h184c-43.333 -60 -65 -141 -65 -243c0 -76 55.333 -140 166 -192c44 -20.667 125.667 -31 245 -31c60.667 0 116.667 2.66699 168 8c99.333 10 169 26 209 48z" />
    <glyph glyph-name="uni06D5.fina" unicode="&#x6d5;" horiz-adv-x="1098" 
d="M676 282c-10 28 -19.333 58.333 -28 91c-8.66699 33.333 -17 83.666 -25 150.999c-80 -8 -147.333 -34.333 -202 -79c-74 -59.333 -110.333 -109.666 -109 -150.999c0.666992 -27.333 31 -49.333 91 -66s151 1.33301 273 54zM609 668
c-2.66699 26 -5.00195 53.333 -7.00195 82h184c0.666992 -112 13 -226 37 -342c14 -67.333 39.667 -127.333 77 -180c20.667 -29.333 68.334 -44 143.001 -44h75v-184h-130c-60 0 -114.333 17 -163 51c-30 20.667 -57.667 50.667 -83 90c-92 -48.667 -190 -73 -294 -73
c-37.333 0 -75.333 5 -114 15c-126 32 -189 99.333 -189 202c0 115.333 68 215.333 204 300c72.667 45.333 159.334 73 260.001 83z" />
    <glyph glyph-name="uniFB52" unicode="&#x67b;" horiz-adv-x="1928" arabic-form="isolated" 
d="M825 -350h150v-150h-150v150zM825 -100h150v-150h-150v150zM1756 669c10 -60 14.999 -113.333 14.999 -160c0 -90 -25.333 -168.667 -76 -236c-85.333 -114 -233.666 -192.333 -444.999 -235c-190 -38.667 -346.667 -58 -470 -58c-127.333 0 -234 12.667 -320 38
c-220 64.667 -330 186.334 -330 365.001c0 92 21 168.667 63 230h184c-43.333 -62.667 -65 -139.334 -65 -230.001c0 -83.333 67.667 -147.333 203 -192c69.333 -22.667 154.333 -34 255 -34c123.333 0 273.333 19 450 57c170 36 277.333 91.667 322 167
c36.667 62 55 118 55 168c0 39.333 -8.33301 79.333 -25 120h184z" />
    <glyph glyph-name="uniFB53" unicode="&#x67b;" horiz-adv-x="2011" arabic-form="final" 
d="M825 -350h150v-150h-150v150zM825 -100h150v-150h-150v150zM1775 504c0 -138.667 23.333 -227.668 70 -267.001c42 -35.333 84 -53 126 -53h60v-184h-102c-77.333 0 -139.666 24.333 -186.999 73c-53.333 55.333 -88 105 -104 149
c-103.333 -87.333 -232.666 -148.666 -387.999 -183.999c-172.667 -38.667 -329.334 -58 -470.001 -58c-130.667 0 -237.334 12.667 -320.001 38c-219.333 67.333 -329.333 189 -330 365c-0.666992 92 20.333 168.667 63 230h184c-43.333 -62.667 -65 -139.334 -65 -230.001
c0 -83.333 67.667 -147.333 203 -192c69.333 -22.667 154.333 -34 255 -34c173.333 1.33301 323.333 20.333 450 57c132.667 38.667 240 94.334 322 167.001c39.333 34.667 59 91.667 59 171c0 41.333 -9.66699 80.333 -29 117h184c12.667 -50 19 -105 19 -165z" />
    <glyph glyph-name="uniFB54" unicode="&#x67b;" horiz-adv-x="570" arabic-form="initial" 
d="M299 86c-48 -57.333 -124.333 -86.001 -229 -86.001h-90v184h35c66 0 113.667 14.667 143 44c32.667 32.667 49 84.334 49 155.001v217h184v-217c0 -124.667 -30.667 -223.667 -92 -297zM224 -350.001h150v-150h-150v150zM224 -100.001h150v-150h-150v150z" />
    <glyph glyph-name="uniFB55" unicode="&#x67b;" horiz-adv-x="618" arabic-form="medial" 
d="M224 -350h150v-150h-150v150zM224 -100h150v-150h-150v150zM299 86c-51.333 -57.333 -127.667 -86 -229 -86h-90v184h35c66 0 113.667 14.667 143 44c32.667 32.667 49 84.334 49 155.001v217h184v-217c0 -70.667 16.333 -122.334 49 -155.001
c29.333 -29.333 77 -44 143 -44h55v-184h-110c-100 0 -176.333 28.667 -229 86z" />
    <glyph glyph-name="uniFB56" unicode="&#x67e;" horiz-adv-x="1928" arabic-form="isolated" 
d="M825 -350h150v-150h-150v150zM950 -100h150v-150h-150v150zM700 -100h150v-150h-150v150zM1756 669c10 -60 14.999 -113.333 14.999 -160c0 -90 -25.333 -168.667 -76 -236c-85.333 -114 -233.666 -192.333 -444.999 -235c-190 -38.667 -346.667 -58 -470 -58
c-127.333 0 -234 12.667 -320 38c-220 64.667 -330 186.334 -330 365.001c0 92 21 168.667 63 230h184c-43.333 -62.667 -65 -139.334 -65 -230.001c0 -83.333 67.667 -147.333 203 -192c69.333 -22.667 154.333 -34 255 -34c123.333 0 273.333 19 450 57
c170 36 277.333 91.667 322 167c36.667 62 55 118 55 168c0 39.333 -8.33301 79.333 -25 120h184z" />
    <glyph glyph-name="uniFB57" unicode="&#x67e;" horiz-adv-x="2011" arabic-form="final" 
d="M825 -350h150v-150h-150v150zM950 -100h150v-150h-150v150zM700 -100h150v-150h-150v150zM1775 504c0 -138.667 23.333 -227.668 70 -267.001c42 -35.333 84 -53 126 -53h60v-184h-102c-77.333 0 -139.666 24.333 -186.999 73c-53.333 55.333 -88 105 -104 149
c-103.333 -87.333 -232.666 -148.666 -387.999 -183.999c-172.667 -38.667 -329.334 -58 -470.001 -58c-130.667 0 -237.334 12.667 -320.001 38c-219.333 67.333 -329.333 189 -330 365c-0.666992 92 20.333 168.667 63 230h184c-43.333 -62.667 -65 -139.334 -65 -230.001
c0 -83.333 67.667 -147.333 203 -192c69.333 -22.667 154.333 -34 255 -34c173.333 1.33301 323.333 20.333 450 57c132.667 38.667 240 94.334 322 167.001c39.333 34.667 59 91.667 59 171c0 41.333 -9.66699 80.333 -29 117h184c12.667 -50 19 -105 19 -165z" />
    <glyph glyph-name="uniFB58" unicode="&#x67e;" horiz-adv-x="570" arabic-form="initial" 
d="M299 86c-48 -57.333 -124.333 -86.001 -229 -86.001h-90v184h35c66 0 113.667 14.667 143 44c32.667 32.667 49 84.334 49 155.001v217h184v-217c0 -124.667 -30.667 -223.667 -92 -297zM224 -350.001h150v-150h-150v150zM349 -100.001h150v-150h-150v150zM99 -100.001
h150v-150h-150v150z" />
    <glyph glyph-name="uniFB59" unicode="&#x67e;" horiz-adv-x="618" arabic-form="medial" 
d="M299 86c-51.333 -57.333 -127.667 -86 -229 -86h-90v184h35c66 0 113.667 14.667 143 44c32.667 32.667 49 84.334 49 155.001v217h184v-217c0 -70.667 16.333 -122.334 49 -155.001c29.333 -29.333 77 -44 143 -44h55v-184h-110c-100 0 -176.333 28.667 -229 86z
M223.999 -350h150v-150h-150v150zM348.999 -100h150v-150h-150v150zM98.999 -100h150v-150h-150v150z" />
    <glyph glyph-name="uniFB5A" unicode="&#x680;" horiz-adv-x="1928" arabic-form="isolated" 
d="M950 -350h150v-150h-150v150zM950 -100h150v-150h-150v150zM700 -350h150v-150h-150v150zM700 -100h150v-150h-150v150zM1756 669c10 -60 14.999 -113.333 14.999 -160c0 -90 -25.333 -168.667 -76 -236c-85.333 -114 -233.666 -192.333 -444.999 -235
c-190 -38.667 -346.667 -58 -470 -58c-127.333 0 -234 12.667 -320 38c-220 64.667 -330 186.334 -330 365.001c0 92 21 168.667 63 230h184c-43.333 -62.667 -65 -139.334 -65 -230.001c0 -83.333 67.667 -147.333 203 -192c69.333 -22.667 154.333 -34 255 -34
c123.333 0 273.333 19 450 57c170 36 277.333 91.667 322 167c36.667 62 55 118 55 168c0 39.333 -8.33301 79.333 -25 120h184z" />
    <glyph glyph-name="uniFB5B" unicode="&#x680;" horiz-adv-x="2011" arabic-form="final" 
d="M950 -350h150v-150h-150v150zM950 -100h150v-150h-150v150zM700 -350h150v-150h-150v150zM700 -100h150v-150h-150v150zM1775 504c0 -138.667 23.333 -227.668 70 -267.001c42 -35.333 84 -53 126 -53h60v-184h-102c-77.333 0 -139.666 24.333 -186.999 73
c-53.333 55.333 -88 105 -104 149c-103.333 -87.333 -232.666 -148.666 -387.999 -183.999c-172.667 -38.667 -329.334 -58 -470.001 -58c-130.667 0 -237.334 12.667 -320.001 38c-219.333 67.333 -329.333 189 -330 365c-0.666992 92 20.333 168.667 63 230h184
c-43.333 -62.667 -65 -139.334 -65 -230.001c0 -83.333 67.667 -147.333 203 -192c69.333 -22.667 154.333 -34 255 -34c173.333 1.33301 323.333 20.333 450 57c132.667 38.667 240 94.334 322 167.001c39.333 34.667 59 91.667 59 171c0 41.333 -9.66699 80.333 -29 117
h184c12.667 -50 19 -105 19 -165z" />
    <glyph glyph-name="uniFB5C" unicode="&#x680;" horiz-adv-x="570" arabic-form="initial" 
d="M299 86c-48 -57.333 -124.333 -86.001 -229 -86.001h-90v184h35c66 0 113.667 14.667 143 44c32.667 32.667 49 84.334 49 155.001v217h184v-217c0 -124.667 -30.667 -223.667 -92 -297zM349 -350.001h150v-150h-150v150zM349 -100.001h150v-150h-150v150zM99 -350.001
h150v-150h-150v150zM99 -100.001h150v-150h-150v150z" />
    <glyph glyph-name="uniFB5D" unicode="&#x680;" horiz-adv-x="618" arabic-form="medial" 
d="M299 86c-51.333 -57.333 -127.667 -86 -229 -86h-90v184h35c66 0 113.667 14.667 143 44c32.667 32.667 49 84.334 49 155.001v217h184v-217c0 -70.667 16.333 -122.334 49 -155.001c29.333 -29.333 77 -44 143 -44h55v-184h-110c-100 0 -176.333 28.667 -229 86z
M348.999 -350h150v-150h-150v150zM348.999 -100h150v-150h-150v150zM98.999 -350h150v-150h-150v150zM98.999 -100h150v-150h-150v150z" />
    <glyph glyph-name="uniFB5E" unicode="&#x67a;" horiz-adv-x="1928" arabic-form="isolated" 
d="M825 800h150v-150h-150v150zM825 1050h150v-150h-150v150zM1756 669c10 -60 14.999 -113.333 14.999 -160c0 -90 -25.333 -168.667 -76 -236c-85.333 -114 -233.666 -192.333 -444.999 -235c-190 -38.667 -346.667 -58 -470 -58c-127.333 0 -234 12.667 -320 38
c-220 64.667 -330 186.334 -330 365.001c0 92 21 168.667 63 230h184c-43.333 -62.667 -65 -139.334 -65 -230.001c0 -83.333 67.667 -147.333 203 -192c69.333 -22.667 154.333 -34 255 -34c123.333 0 273.333 19 450 57c170 36 277.333 91.667 322 167
c36.667 62 55 118 55 168c0 39.333 -8.33301 79.333 -25 120h184z" />
    <glyph glyph-name="uniFB5F" unicode="&#x67a;" horiz-adv-x="2011" arabic-form="final" 
d="M825 800h150v-150h-150v150zM825 1050h150v-150h-150v150zM1775 504c0 -138.667 23.333 -227.668 70 -267.001c42 -35.333 84 -53 126 -53h60v-184h-102c-77.333 0 -139.666 24.333 -186.999 73c-53.333 55.333 -88 105 -104 149
c-103.333 -87.333 -232.666 -148.666 -387.999 -183.999c-172.667 -38.667 -329.334 -58 -470.001 -58c-130.667 0 -237.334 12.667 -320.001 38c-219.333 67.333 -329.333 189 -330 365c-0.666992 92 20.333 168.667 63 230h184c-43.333 -62.667 -65 -139.334 -65 -230.001
c0 -83.333 67.667 -147.333 203 -192c69.333 -22.667 154.333 -34 255 -34c173.333 1.33301 323.333 20.333 450 57c132.667 38.667 240 94.334 322 167.001c39.333 34.667 59 91.667 59 171c0 41.333 -9.66699 80.333 -29 117h184c12.667 -50 19 -105 19 -165z" />
    <glyph glyph-name="uniFB60" unicode="&#x67a;" horiz-adv-x="570" arabic-form="initial" 
d="M299 86c-48 -57.333 -124.333 -86.001 -229 -86.001h-90v184h35c66 0 113.667 14.667 143 44c32.667 32.667 49 84.334 49 155.001v217h184v-217c0 -124.667 -30.667 -223.667 -92 -297zM224 999.999h150v-150h-150v150zM224 1250h150v-150h-150v150z" />
    <glyph glyph-name="uniFB61" unicode="&#x67a;" horiz-adv-x="618" arabic-form="medial" 
d="M299 86c-51.333 -57.333 -127.667 -86 -229 -86h-90v184h35c66 0 113.667 14.667 143 44c32.667 32.667 49 84.334 49 155.001v217h184v-217c0 -70.667 16.333 -122.334 49 -155.001c29.333 -29.333 77 -44 143 -44h55v-184h-110c-100 0 -176.333 28.667 -229 86z
M223.999 1000h150v-150h-150v150zM223.999 1250h150v-150h-150v150z" />
    <glyph glyph-name="uniFB62" unicode="&#x67f;" horiz-adv-x="1928" arabic-form="isolated" 
d="M950 800h150v-150h-150v150zM950 1050h150v-150h-150v150zM700 800h150v-150h-150v150zM700 1050h150v-150h-150v150zM1756 669c10 -60 14.999 -113.333 14.999 -160c0 -90 -25.333 -168.667 -76 -236c-85.333 -114 -233.666 -192.333 -444.999 -235
c-190 -38.667 -346.667 -58 -470 -58c-127.333 0 -234 12.667 -320 38c-220 64.667 -330 186.334 -330 365.001c0 92 21 168.667 63 230h184c-43.333 -62.667 -65 -139.334 -65 -230.001c0 -83.333 67.667 -147.333 203 -192c69.333 -22.667 154.333 -34 255 -34
c123.333 0 273.333 19 450 57c170 36 277.333 91.667 322 167c36.667 62 55 118 55 168c0 39.333 -8.33301 79.333 -25 120h184z" />
    <glyph glyph-name="uniFB63" unicode="&#x67f;" horiz-adv-x="2011" arabic-form="final" 
d="M1775 504c0 -138.667 23.333 -227.668 70 -267.001c42 -35.333 84 -53 126 -53h60v-184h-102c-77.333 0 -139.666 24.333 -186.999 73c-53.333 55.333 -88 105 -104 149c-103.333 -87.333 -232.666 -148.666 -387.999 -183.999
c-172.667 -38.667 -329.334 -58 -470.001 -58c-130.667 0 -237.334 12.667 -320.001 38c-219.333 67.333 -329.333 189 -330 365c-0.666992 92 20.333 168.667 63 230h184c-43.333 -62.667 -65 -139.334 -65 -230.001c0 -83.333 67.667 -147.333 203 -192
c69.333 -22.667 154.333 -34 255 -34c173.333 1.33301 323.333 20.333 450 57c132.667 38.667 240 94.334 322 167.001c39.333 34.667 59 91.667 59 171c0 41.333 -9.66699 80.333 -29 117h184c12.667 -50 19 -105 19 -165zM950 799.999h150v-150h-150v150zM950 1050h150
v-150h-150v150zM700 799.999h150v-150h-150v150zM700 1050h150v-150h-150v150z" />
    <glyph glyph-name="uniFB64" unicode="&#x67f;" horiz-adv-x="570" arabic-form="initial" 
d="M299 86c-48 -57.333 -124.333 -86.001 -229 -86.001h-90v184h35c66 0 113.667 14.667 143 44c32.667 32.667 49 84.334 49 155.001v217h184v-217c0 -124.667 -30.667 -223.667 -92 -297zM349 999.999h150v-150h-150v150zM349 1250h150v-150h-150v150zM99 999.999h150
v-150h-150v150zM99 1250h150v-150h-150v150z" />
    <glyph glyph-name="uniFB65" unicode="&#x67f;" horiz-adv-x="618" arabic-form="medial" 
d="M299 86c-51.333 -57.333 -127.667 -86 -229 -86h-90v184h35c66 0 113.667 14.667 143 44c32.667 32.667 49 84.334 49 155.001v217h184v-217c0 -70.667 16.333 -122.334 49 -155.001c29.333 -29.333 77 -44 143 -44h55v-184h-110c-100 0 -176.333 28.667 -229 86z
M348.999 1000h150v-150h-150v150zM348.999 1250h150v-150h-150v150zM98.999 1000h150v-150h-150v150zM98.999 1250h150v-150h-150v150z" />
    <glyph glyph-name="uniFB66" unicode="&#x679;" horiz-adv-x="1928" arabic-form="isolated" 
d="M849 778h55c52 0 85.333 4.33301 100 13c35.333 22 53 40 53 54c0 21.333 -10 37.333 -30 48c-0.666992 0.666992 -24.667 -8.33301 -72 -27c-34.667 -14 -70 -43.333 -106 -88zM927 677h-175h-112v101h81v399h102v-321c24 48.667 70.667 86.334 140 113.001
c42 16 86.333 15.333 133 -2c43.333 -16.667 65 -52.334 65 -107.001c0 -60.667 -21.333 -107.667 -64 -141c-36 -28 -92.667 -42 -170 -42zM1756 669c10 -60 14.999 -113.333 14.999 -160c0 -90 -25.333 -168.667 -76 -236c-85.333 -114 -233.666 -192.333 -444.999 -235
c-190 -38.667 -346.667 -58 -470 -58c-127.333 0 -234 12.667 -320 38c-220 64.667 -330 186.334 -330 365.001c0 92 21 168.667 63 230h184c-43.333 -62.667 -65 -139.334 -65 -230.001c0 -83.333 67.667 -147.333 203 -192c69.333 -22.667 154.333 -34 255 -34
c123.333 0 273.333 19 450 57c170 36 277.333 91.667 322 167c36.667 62 55 118 55 168c0 39.333 -8.33301 79.333 -25 120h184z" />
    <glyph glyph-name="uniFB67" unicode="&#x679;" horiz-adv-x="2011" arabic-form="final" 
d="M1775 504c0 -138.667 23.333 -227.668 70 -267.001c42 -35.333 84 -53 126 -53h60v-184h-102c-77.333 0 -139.666 24.333 -186.999 73c-53.333 55.333 -88 105 -104 149c-103.333 -87.333 -232.666 -148.666 -387.999 -183.999
c-172.667 -38.667 -329.334 -58 -470.001 -58c-130.667 0 -237.334 12.667 -320.001 38c-219.333 67.333 -329.333 189 -330 365c-0.666992 92 20.333 168.667 63 230h184c-43.333 -62.667 -65 -139.334 -65 -230.001c0 -83.333 67.667 -147.333 203 -192
c69.333 -22.667 154.333 -34 255 -34c173.333 1.33301 323.333 20.333 450 57c132.667 38.667 240 94.334 322 167.001c39.333 34.667 59 91.667 59 171c0 41.333 -9.66699 80.333 -29 117h184c12.667 -50 19 -105 19 -165zM849 777.999h55c52 0 85.333 4.33301 100 13
c35.333 22 53 40 53 54c0 21.333 -10 37.333 -30 48c-0.666992 0.666992 -24.667 -8.33301 -72 -27c-34.667 -14 -70 -43.333 -106 -88zM927 676.999h-175h-112v101h81v399h102v-321c24 48.667 70.667 86.334 140 113.001c42 16 86.333 15.333 133 -2
c43.333 -16.667 65 -52.334 65 -107.001c0 -60.667 -21.333 -107.667 -64 -141c-36 -28 -92.667 -42 -170 -42z" />
    <glyph glyph-name="uniFB68" unicode="&#x679;" horiz-adv-x="570" arabic-form="initial" 
d="M299 86c-48 -57.333 -124.333 -86.001 -229 -86.001h-90v184h35c66 0 113.667 14.667 143 44c32.667 32.667 49 84.334 49 155.001v217h184v-217c0 -124.667 -30.667 -223.667 -92 -297zM248 977.999h55c52 0 85.333 4.33301 100 13c35.333 22 53 40 53 54
c0 21.333 -10 37.333 -30 48c-0.666992 0.666992 -24.667 -8.33301 -72 -27c-34.667 -14 -70 -43.333 -106 -88zM326 876.999h-175h-112v101h81v399h102v-321c24 48.667 70.667 86.334 140 113.001c42 16 86.333 15.333 133 -2c43.333 -16.667 65 -52.334 65 -107.001
c0 -60.667 -21.333 -107.667 -64 -141c-36 -28 -92.667 -42 -170 -42z" />
    <glyph glyph-name="uniFB69" unicode="&#x679;" horiz-adv-x="618" arabic-form="medial" 
d="M299 86c-51.333 -57.333 -127.667 -86 -229 -86h-90v184h35c66 0 113.667 14.667 143 44c32.667 32.667 49 84.334 49 155.001v217h184v-217c0 -70.667 16.333 -122.334 49 -155.001c29.333 -29.333 77 -44 143 -44h55v-184h-110c-100 0 -176.333 28.667 -229 86z
M247.999 978h55c52 0 85.333 4.33301 100 13c35.333 22 53 40 53 54c0 21.333 -10 37.333 -30 48c-0.666992 0.666992 -24.667 -8.33301 -72 -27c-34.667 -14 -70 -43.333 -106 -88zM325.999 877h-175h-112v101h81v399h102v-321c24 48.667 70.667 86.334 140 113.001
c42 16 86.333 15.333 133 -2c43.333 -16.667 65 -52.334 65 -107.001c0 -60.667 -21.333 -107.667 -64 -141c-36 -28 -92.667 -42 -170 -42z" />
    <glyph glyph-name="uniFB6A" unicode="&#x6a4;" horiz-adv-x="2123" arabic-form="isolated" 
d="M1525 1550h150v-150h-150v150zM1650 1300h150v-150h-150v150zM1400 1300h150v-150h-150v150zM1717 537c27.333 28.667 41.002 68.666 41.002 119.999c0 39.333 -22 76 -66 110c-20.667 16.667 -45.667 24.667 -75 24c-34.667 -0.666992 -65.334 -15 -92.001 -43
c-26.667 -27.333 -40.334 -58 -41.001 -92c0 -53.333 18.333 -92.666 55 -117.999c26.667 -16.667 54 -25 82 -25c48 0 80 8 96 24zM1872 218.999c-73.333 -120 -215.665 -203.333 -426.998 -250c-182 -40.667 -368.667 -61 -560 -61
c-196.667 0 -338.334 13.667 -425.001 41c-219.333 66.667 -329.333 188.334 -330 365.001c-0.666992 92 20.333 168.667 63 230h184c-43.333 -62.667 -65 -139.334 -65 -230.001c0 -77.333 67.667 -141.333 203 -192c60 -22.667 183.333 -34 370 -34
c214 0 390.667 19 530 57c143.333 39.333 248.333 95 315 167c23.333 25.333 41.666 64 54.999 116c-42 -50 -103.667 -75 -185 -75c-88.667 0 -158 22.333 -208 67c-65.333 58 -98 130 -98 216c0 34.667 2.66699 66.667 8 96c15.333 98.667 73 171 173 217
c52 24 103.333 36 154 36c60 0 112 -16.667 156 -50c64 -48 111.333 -106 142 -174c16 -36 23.667 -99.667 23 -191c-1.33301 -150.667 -27.333 -267.667 -78 -351z" />
    <glyph glyph-name="uniFB6B" unicode="&#x6a4;" horiz-adv-x="2120" arabic-form="final" 
d="M1656 36c-69.333 -28.667 -140.669 -51.001 -214.002 -67.001c-186.667 -40 -370.667 -60 -552 -60c-203.333 0.666992 -346.666 14 -429.999 40c-219.333 68.667 -329.333 190.334 -330 365.001c-0.666992 92 20.333 168.667 63 230h184
c-43.333 -62.667 -65 -139.334 -65 -230.001c0 -76.667 67.667 -140.667 203 -192c54 -20.667 180.667 -31 380 -31c154.667 0 327 18 517 54l28 4c-22.667 18 -43.667 41.667 -63 71c-54.667 82.667 -82 164.334 -82 245.001c0 20.667 1.33301 43 4 67
c14.667 103.333 84.667 180 210 230c38.667 15.333 75.334 23 110.001 23c54.667 0 109 -16.667 163 -50c91.333 -55.333 143 -133 155 -233c2.66699 -24.667 4 -47 4 -67c0 -96 -26.667 -179.333 -80 -250c6 -0.666992 11.333 -1 16 -1h263v-184h-268
c-70 0 -142 12 -216 36zM1656 222.999c69.333 43.333 104.002 105.667 104.002 187c0 13.333 -1.66699 29 -5 47c-9.33301 47.333 -31.333 84 -66 110c-22.667 16.667 -47.334 25 -74.001 25c-16 0 -31.333 -3.33301 -46 -10c-40.667 -16.667 -67.334 -45 -80.001 -85
c-4 -12.667 -6 -25 -6 -37c0 -37.333 13.667 -78 41 -122c32.667 -52 76.667 -90.333 132 -115zM1525 1350h150v-150h-150v150zM1650 1100h150v-150h-150v150zM1400 1100h150v-150h-150v150z" />
    <glyph glyph-name="uniFB6C" unicode="&#x6a4;" horiz-adv-x="979" arabic-form="initial" 
d="M598 537c27.333 28.667 41.002 68.666 41.002 119.999c0 39.333 -22 76 -66 110c-20.667 16.667 -45.667 24.667 -75 24c-34.667 -0.666992 -65.334 -15 -92.001 -43c-26.667 -27.333 -40.334 -58 -41.001 -92c0 -53.333 18.333 -92.666 55 -117.999
c26.667 -16.667 54 -25 82 -25c48 0 80 8 96 24zM-19.998 183.999h241.001c56 0 134.333 7.66699 235 23c52.667 8 99 43 139 105c20.667 32 36 64.667 46 98c-42 -36.667 -95.333 -55.667 -160 -57c-86.667 -1.33301 -156 21 -208 67c-65.333 58 -98 130 -98 216
c0 34.667 2.66699 66.667 8 96c15.333 98.667 73 171 173 217c52 24 103.333 36 154 36c60 0 112 -16.667 156 -50c64 -48 111.333 -106 142 -174c15.333 -34 23 -97.667 23 -191c0 -138.667 -26 -255.667 -78 -351c-49.333 -90.667 -115.333 -150.667 -198 -180
c-72.667 -26 -157.334 -39 -254.001 -39h-321v184zM425.003 1550h150v-150h-150v150zM550.003 1300h150v-150h-150v150zM300.003 1300h150v-150h-150v150z" />
    <glyph glyph-name="uniFB6D" unicode="&#x6a4;" horiz-adv-x="1036" arabic-form="medial" 
d="M614 762c122 -53.333 191.001 -130 207.001 -230c5.33301 -33.333 8 -64 8 -92c0 -48.667 -7 -89.334 -21 -122.001c-19.333 -44.667 -41 -83.667 -65 -117c26 -11.333 88 -17 186 -17h127v-184h-217c-90.667 0 -197.667 19 -321 57c-123.333 -38 -230.333 -57 -321 -57
h-217v184h127c98 0 160 5.66699 186 17c-19.333 26.667 -41 65.667 -65 117c-14 30.667 -21 71.334 -21 122.001c0 29.333 2.66699 60 8 92c15.333 95.333 84.666 172 207.999 230c20 9.33301 51.667 14 95 14c42 0 74 -4.66699 96 -14zM518.001 592
c-10 0 -21 -3.33398 -33 -10.001c-37.333 -21.333 -64 -49.666 -80 -84.999c-6.66699 -14 -10 -30.667 -10 -50c0 -28.667 8 -60.667 24 -96c20.667 -45.333 53.667 -75.333 99 -90c42 14 75 44 99 90c16.667 33.333 25 65.333 25 96c0 16 -3.66699 32.667 -11 50
c-15.333 34.667 -42 63 -80 85c-12.667 6.66699 -23.667 10 -33 10zM443.001 1400h150v-150h-150v150zM568.001 1150h150v-150h-150v150zM318.001 1150h150v-150h-150v150z" />
    <glyph glyph-name="uniFB6E" unicode="&#x6a6;" horiz-adv-x="2123" arabic-form="isolated" 
d="M1650 1300h150v-150h-150v150zM1650 1550h150v-150h-150v150zM1400 1300h150v-150h-150v150zM1400 1550h150v-150h-150v150zM1717 537c27.333 28.667 41.002 68.666 41.002 119.999c0 39.333 -22 76 -66 110c-20.667 16.667 -45.667 24.667 -75 24
c-34.667 -0.666992 -65.334 -15 -92.001 -43c-26.667 -27.333 -40.334 -58 -41.001 -92c0 -53.333 18.333 -92.666 55 -117.999c26.667 -16.667 54 -25 82 -25c48 0 80 8 96 24zM1872 218.999c-73.333 -120 -215.665 -203.333 -426.998 -250
c-182 -40.667 -368.667 -61 -560 -61c-196.667 0 -338.334 13.667 -425.001 41c-219.333 66.667 -329.333 188.334 -330 365.001c-0.666992 92 20.333 168.667 63 230h184c-43.333 -62.667 -65 -139.334 -65 -230.001c0 -77.333 67.667 -141.333 203 -192
c60 -22.667 183.333 -34 370 -34c214 0 390.667 19 530 57c143.333 39.333 248.333 95 315 167c23.333 25.333 41.666 64 54.999 116c-42 -50 -103.667 -75 -185 -75c-88.667 0 -158 22.333 -208 67c-65.333 58 -98 130 -98 216c0 34.667 2.66699 66.667 8 96
c15.333 98.667 73 171 173 217c52 24 103.333 36 154 36c60 0 112 -16.667 156 -50c64 -48 111.333 -106 142 -174c16 -36 23.667 -99.667 23 -191c-1.33301 -150.667 -27.333 -267.667 -78 -351z" />
    <glyph glyph-name="uniFB6F" unicode="&#x6a6;" horiz-adv-x="2120" arabic-form="final" 
d="M1656 36c-69.333 -28.667 -140.669 -51.001 -214.002 -67.001c-186.667 -40 -370.667 -60 -552 -60c-203.333 0.666992 -346.666 14 -429.999 40c-219.333 68.667 -329.333 190.334 -330 365.001c-0.666992 92 20.333 168.667 63 230h184
c-43.333 -62.667 -65 -139.334 -65 -230.001c0 -76.667 67.667 -140.667 203 -192c54 -20.667 180.667 -31 380 -31c154.667 0 327 18 517 54l28 4c-22.667 18 -43.667 41.667 -63 71c-54.667 82.667 -82 164.334 -82 245.001c0 20.667 1.33301 43 4 67
c14.667 103.333 84.667 180 210 230c38.667 15.333 75.334 23 110.001 23c54.667 0 109 -16.667 163 -50c91.333 -55.333 143 -133 155 -233c2.66699 -24.667 4 -47 4 -67c0 -96 -26.667 -179.333 -80 -250c6 -0.666992 11.333 -1 16 -1h263v-184h-268
c-70 0 -142 12 -216 36zM1656 222.999c69.333 43.333 104.002 105.667 104.002 187c0 13.333 -1.66699 29 -5 47c-9.33301 47.333 -31.333 84 -66 110c-22.667 16.667 -47.334 25 -74.001 25c-16 0 -31.333 -3.33301 -46 -10c-40.667 -16.667 -67.334 -45 -80.001 -85
c-4 -12.667 -6 -25 -6 -37c0 -37.333 13.667 -78 41 -122c32.667 -52 76.667 -90.333 132 -115zM1650 1100h150v-150h-150v150zM1650 1350h150v-150h-150v150zM1400 1100h150v-150h-150v150zM1400 1350h150v-150h-150v150z" />
    <glyph glyph-name="uniFB70" unicode="&#x6a6;" horiz-adv-x="979" arabic-form="initial" 
d="M598 537c27.333 28.667 41.002 68.666 41.002 119.999c0 39.333 -22 76 -66 110c-20.667 16.667 -45.667 24.667 -75 24c-34.667 -0.666992 -65.334 -15 -92.001 -43c-26.667 -27.333 -40.334 -58 -41.001 -92c0 -53.333 18.333 -92.666 55 -117.999
c26.667 -16.667 54 -25 82 -25c48 0 80 8 96 24zM-19.998 183.999h241.001c56 0 134.333 7.66699 235 23c52.667 8 99 43 139 105c20.667 32 36 64.667 46 98c-42 -36.667 -95.333 -55.667 -160 -57c-86.667 -1.33301 -156 21 -208 67c-65.333 58 -98 130 -98 216
c0 34.667 2.66699 66.667 8 96c15.333 98.667 73 171 173 217c52 24 103.333 36 154 36c60 0 112 -16.667 156 -50c64 -48 111.333 -106 142 -174c15.333 -34 23 -97.667 23 -191c0 -138.667 -26 -255.667 -78 -351c-49.333 -90.667 -115.333 -150.667 -198 -180
c-72.667 -26 -157.334 -39 -254.001 -39h-321v184zM550.003 1300h150v-150h-150v150zM550.003 1550h150v-150h-150v150zM300.003 1300h150v-150h-150v150zM300.003 1550h150v-150h-150v150z" />
    <glyph glyph-name="uniFB71" unicode="&#x6a6;" horiz-adv-x="1036" arabic-form="medial" 
d="M614 762c122 -53.333 191.001 -130 207.001 -230c5.33301 -33.333 8 -64 8 -92c0 -48.667 -7 -89.334 -21 -122.001c-19.333 -44.667 -41 -83.667 -65 -117c26 -11.333 88 -17 186 -17h127v-184h-217c-90.667 0 -197.667 19 -321 57c-123.333 -38 -230.333 -57 -321 -57
h-217v184h127c98 0 160 5.66699 186 17c-19.333 26.667 -41 65.667 -65 117c-14 30.667 -21 71.334 -21 122.001c0 29.333 2.66699 60 8 92c15.333 95.333 84.666 172 207.999 230c20 9.33301 51.667 14 95 14c42 0 74 -4.66699 96 -14zM518.001 592
c-10 0 -21 -3.33398 -33 -10.001c-37.333 -21.333 -64 -49.666 -80 -84.999c-6.66699 -14 -10 -30.667 -10 -50c0 -28.667 8 -60.667 24 -96c20.667 -45.333 53.667 -75.333 99 -90c42 14 75 44 99 90c16.667 33.333 25 65.333 25 96c0 16 -3.66699 32.667 -11 50
c-15.333 34.667 -42 63 -80 85c-12.667 6.66699 -23.667 10 -33 10zM568.001 1150h150v-150h-150v150zM568.001 1400h150v-150h-150v150zM318.001 1150h150v-150h-150v150zM318.001 1400h150v-150h-150v150z" />
    <glyph glyph-name="uniFB72" unicode="&#x684;" horiz-adv-x="1322" arabic-form="isolated" 
d="M775 75h150v-150h-150v150zM775 325h150v-150h-150v150zM157 807c184 42 340.999 63 470.999 63c194.667 0 357.334 -18 488.001 -54v-154c-196 0 -365.667 -55.667 -509 -167c-149.333 -116 -224 -261 -224 -435c0 -90 24.667 -167 74 -231
c84.667 -109.333 237.334 -164 458.001 -164c128.667 0 263.667 39.333 405 118v-184c-100 -66 -233.333 -99 -400 -99c-278.667 0 -474.334 64.667 -587.001 194c-87.333 100 -131 224.667 -131 374c0 172 70.667 332.333 212 481c64 67.333 141.667 118.333 233 153
c-67.333 0 -154 -6.33301 -260 -19c-84 -10 -160.667 -30 -230 -60v184z" />
    <glyph glyph-name="uniFB73" unicode="&#x684;" horiz-adv-x="1322" arabic-form="final" 
d="M675 25h150v-150h-150v150zM675 275h150v-150h-150v150zM1302 184h40.002v-184h-49c-86 0 -170 50 -252 150c-54.667 66.667 -102.334 152 -143.001 256l-79 193c-76 -16 -146.667 -50.667 -212 -104c-149.333 -122 -224 -267 -224 -435
c0 -91.333 24.667 -168.333 74 -231c86 -109.333 238.667 -164 458 -164c128.667 0 263.667 39.333 405 118v-184c-100 -66 -233.333 -99 -400 -99c-278.667 0 -474.334 64.667 -587.001 194c-87.333 100 -131 224.667 -131 374c0 172 70.667 332.333 212 481
c64 67.333 141.667 118.333 233 153h-25c-63.333 0 -141.666 -6.33301 -234.999 -19c-90 -12.667 -166.667 -32.667 -230 -60v184c181.333 42 336.333 63 465 63c196 0 360.667 -18 494 -54v-154c-72.667 0 -119.334 -4.33301 -140.001 -13l29 -91
c34 -106.667 75 -191.667 123 -255c60 -79.333 118 -119 174 -119z" />
    <glyph glyph-name="uniFB74" unicode="&#x684;" horiz-adv-x="1266" arabic-form="initial" 
d="M851 541c-55.333 15.333 -117.331 30.665 -185.998 45.998c-56.667 12.667 -145 24.334 -265 35.001c-54.667 4.66699 -135.667 5 -243 1v184c48 4.66699 97 7.33398 147 8.00098c108 0 219.333 -11.667 334 -35c172 -34.667 331.333 -84.667 478 -150v-154
c-50.667 -16 -105.334 -41.333 -164.001 -76c-110.667 -65.333 -190.667 -120 -240 -164c-96.667 -86 -170 -138 -220 -156c-147.333 -53.333 -275.333 -80 -384 -80h-128v184h100c151.333 0 270 24 356 72c69.333 38.667 142.666 93.334 219.999 164.001
c62.667 57.333 127.667 97.666 195 120.999zM525.002 -300.001h150v-150h-150v150zM525.002 -50.001h150v-150h-150v150z" />
    <glyph glyph-name="uniFB75" unicode="&#x684;" horiz-adv-x="1322" arabic-form="medial" 
d="M638 780c172 -34.667 331.334 -84.668 478.001 -150.001v-154c-43.333 -13.333 -89.333 -33.666 -138 -60.999c33.333 -52 60 -89.333 80 -112c69.333 -79.333 142 -119 218 -119h66v-184h-86c-139.333 0 -251 56 -335 168c-26.667 36 -59.667 86.333 -99 151
c-46 -30.667 -82.667 -58.334 -110 -83.001c-96.667 -86 -170 -138 -220 -156c-147.333 -53.333 -275.333 -80 -384 -80h-128v184h100c151.333 0 270 24 356 72c69.333 38.667 142.666 93.334 219.999 164.001c62.667 57.333 127.667 97.666 195 120.999
c-55.333 15.333 -117.333 30.666 -186 45.999c-56.667 12.667 -145 24.334 -265 35.001c-54.667 4.66699 -135.667 5 -243 1v184c48 4.66699 97 7.33398 147 8.00098c108 0 219.333 -11.667 334 -35zM525.001 -300.001h150v-150h-150v150zM525.001 -50.001h150v-150h-150
v150z" />
    <glyph glyph-name="uniFB76" unicode="&#x683;" horiz-adv-x="1322" arabic-form="isolated" 
d="M900 175h150v-150h-150v150zM650 175h150v-150h-150v150zM157 807c184 42 340.999 63 470.999 63c194.667 0 357.334 -18 488.001 -54v-154c-196 0 -365.667 -55.667 -509 -167c-149.333 -116 -224 -261 -224 -435c0 -90 24.667 -167 74 -231
c84.667 -109.333 237.334 -164 458.001 -164c128.667 0 263.667 39.333 405 118v-184c-100 -66 -233.333 -99 -400 -99c-278.667 0 -474.334 64.667 -587.001 194c-87.333 100 -131 224.667 -131 374c0 172 70.667 332.333 212 481c64 67.333 141.667 118.333 233 153
c-67.333 0 -154 -6.33301 -260 -19c-84 -10 -160.667 -30 -230 -60v184z" />
    <glyph glyph-name="uniFB77" unicode="&#x683;" horiz-adv-x="1322" arabic-form="final" 
d="M800 125h150v-150h-150v150zM550 125h150v-150h-150v150zM1302 184h40.002v-184h-49c-86 0 -170 50 -252 150c-54.667 66.667 -102.334 152 -143.001 256l-79 193c-76 -16 -146.667 -50.667 -212 -104c-149.333 -122 -224 -267 -224 -435
c0 -91.333 24.667 -168.333 74 -231c86 -109.333 238.667 -164 458 -164c128.667 0 263.667 39.333 405 118v-184c-100 -66 -233.333 -99 -400 -99c-278.667 0 -474.334 64.667 -587.001 194c-87.333 100 -131 224.667 -131 374c0 172 70.667 332.333 212 481
c64 67.333 141.667 118.333 233 153h-25c-63.333 0 -141.666 -6.33301 -234.999 -19c-90 -12.667 -166.667 -32.667 -230 -60v184c181.333 42 336.333 63 465 63c196 0 360.667 -18 494 -54v-154c-72.667 0 -119.334 -4.33301 -140.001 -13l29 -91
c34 -106.667 75 -191.667 123 -255c60 -79.333 118 -119 174 -119z" />
    <glyph glyph-name="uniFB78" unicode="&#x683;" horiz-adv-x="1266" arabic-form="initial" 
d="M851 541c-55.333 15.333 -117.331 30.665 -185.998 45.998c-56.667 12.667 -145 24.334 -265 35.001c-54.667 4.66699 -135.667 5 -243 1v184c48 4.66699 97 7.33398 147 8.00098c108 0 219.333 -11.667 334 -35c172 -34.667 331.333 -84.667 478 -150v-154
c-50.667 -16 -105.334 -41.333 -164.001 -76c-110.667 -65.333 -190.667 -120 -240 -164c-96.667 -86 -170 -138 -220 -156c-147.333 -53.333 -275.333 -80 -384 -80h-128v184h100c151.333 0 270 24 356 72c69.333 38.667 142.666 93.334 219.999 164.001
c62.667 57.333 127.667 97.666 195 120.999zM650.002 -50.001h150v-150h-150v150zM400.002 -50.001h150v-150h-150v150z" />
    <glyph glyph-name="uniFB79" unicode="&#x683;" horiz-adv-x="1322" arabic-form="medial" 
d="M638 780c172 -34.667 331.334 -84.668 478.001 -150.001v-154c-43.333 -13.333 -89.333 -33.666 -138 -60.999c33.333 -52 60 -89.333 80 -112c69.333 -79.333 142 -119 218 -119h66v-184h-86c-139.333 0 -251 56 -335 168c-26.667 36 -59.667 86.333 -99 151
c-46 -30.667 -82.667 -58.334 -110 -83.001c-96.667 -86 -170 -138 -220 -156c-147.333 -53.333 -275.333 -80 -384 -80h-128v184h100c151.333 0 270 24 356 72c69.333 38.667 142.666 93.334 219.999 164.001c62.667 57.333 127.667 97.666 195 120.999
c-55.333 15.333 -117.333 30.666 -186 45.999c-56.667 12.667 -145 24.334 -265 35.001c-54.667 4.66699 -135.667 5 -243 1v184c48 4.66699 97 7.33398 147 8.00098c108 0 219.333 -11.667 334 -35zM650.001 -50.001h150v-150h-150v150zM400.001 -50.001h150v-150h-150v150
z" />
    <glyph glyph-name="uniFB7A" unicode="&#x686;" horiz-adv-x="1322" arabic-form="isolated" 
d="M787 50h150v-150h-150v150zM912 300h150v-150h-150v150zM662 300h150v-150h-150v150zM157 807c184 42 340.999 63 470.999 63c194.667 0 357.334 -18 488.001 -54v-154c-196 0 -365.667 -55.667 -509 -167c-149.333 -116 -224 -261 -224 -435c0 -90 24.667 -167 74 -231
c84.667 -109.333 237.334 -164 458.001 -164c128.667 0 263.667 39.333 405 118v-184c-100 -66 -233.333 -99 -400 -99c-278.667 0 -474.334 64.667 -587.001 194c-87.333 100 -131 224.667 -131 374c0 172 70.667 332.333 212 481c64 67.333 141.667 118.333 233 153
c-67.333 0 -154 -6.33301 -260 -19c-84 -10 -160.667 -30 -230 -60v184z" />
    <glyph glyph-name="uniFB7B" unicode="&#x686;" horiz-adv-x="1322" arabic-form="final" 
d="M662 -50h150v-150h-150v150zM787 200h150v-150h-150v150zM537 200h150v-150h-150v150zM1302 184h40.002v-184h-49c-86 0 -170 50 -252 150c-54.667 66.667 -102.334 152 -143.001 256l-79 193c-76 -16 -146.667 -50.667 -212 -104c-149.333 -122 -224 -267 -224 -435
c0 -91.333 24.667 -168.333 74 -231c86 -109.333 238.667 -164 458 -164c128.667 0 263.667 39.333 405 118v-184c-100 -66 -233.333 -99 -400 -99c-278.667 0 -474.334 64.667 -587.001 194c-87.333 100 -131 224.667 -131 374c0 172 70.667 332.333 212 481
c64 67.333 141.667 118.333 233 153h-25c-63.333 0 -141.666 -6.33301 -234.999 -19c-90 -12.667 -166.667 -32.667 -230 -60v184c181.333 42 336.333 63 465 63c196 0 360.667 -18 494 -54v-154c-72.667 0 -119.334 -4.33301 -140.001 -13l29 -91
c34 -106.667 75 -191.667 123 -255c60 -79.333 118 -119 174 -119z" />
    <glyph glyph-name="uniFB7C" unicode="&#x686;" horiz-adv-x="1266" arabic-form="initial" 
d="M851 541c-55.333 15.333 -117.331 30.665 -185.998 45.998c-56.667 12.667 -145 24.334 -265 35.001c-54.667 4.66699 -135.667 5 -243 1v184c48 4.66699 97 7.33398 147 8.00098c108 0 219.333 -11.667 334 -35c172 -34.667 331.333 -84.667 478 -150v-154
c-50.667 -16 -105.334 -41.333 -164.001 -76c-110.667 -65.333 -190.667 -120 -240 -164c-96.667 -86 -170 -138 -220 -156c-147.333 -53.333 -275.333 -80 -384 -80h-128v184h100c151.333 0 270 24 356 72c69.333 38.667 142.666 93.334 219.999 164.001
c62.667 57.333 127.667 97.666 195 120.999zM525.002 -300.001h150v-150h-150v150zM650.002 -50.001h150v-150h-150v150zM400.002 -50.001h150v-150h-150v150z" />
    <glyph glyph-name="uniFB7D" unicode="&#x686;" horiz-adv-x="1322" arabic-form="medial" 
d="M638 780c172 -34.667 331.334 -84.668 478.001 -150.001v-154c-43.333 -13.333 -89.333 -33.666 -138 -60.999c33.333 -52 60 -89.333 80 -112c69.333 -79.333 142 -119 218 -119h66v-184h-86c-139.333 0 -251 56 -335 168c-26.667 36 -59.667 86.333 -99 151
c-46 -30.667 -82.667 -58.334 -110 -83.001c-96.667 -86 -170 -138 -220 -156c-147.333 -53.333 -275.333 -80 -384 -80h-128v184h100c151.333 0 270 24 356 72c69.333 38.667 142.666 93.334 219.999 164.001c62.667 57.333 127.667 97.666 195 120.999
c-55.333 15.333 -117.333 30.666 -186 45.999c-56.667 12.667 -145 24.334 -265 35.001c-54.667 4.66699 -135.667 5 -243 1v184c48 4.66699 97 7.33398 147 8.00098c108 0 219.333 -11.667 334 -35zM525.001 -300.001h150v-150h-150v150zM650.001 -50.001h150v-150h-150
v150zM400.001 -50.001h150v-150h-150v150z" />
    <glyph glyph-name="uniFB7E" unicode="&#x687;" horiz-adv-x="1322" arabic-form="isolated" 
d="M912 75h150v-150h-150v150zM912 325h150v-150h-150v150zM662 75h150v-150h-150v150zM662 325h150v-150h-150v150zM157 807c184 42 340.999 63 470.999 63c194.667 0 357.334 -18 488.001 -54v-154c-196 0 -365.667 -55.667 -509 -167c-149.333 -116 -224 -261 -224 -435
c0 -90 24.667 -167 74 -231c84.667 -109.333 237.334 -164 458.001 -164c128.667 0 263.667 39.333 405 118v-184c-100 -66 -233.333 -99 -400 -99c-278.667 0 -474.334 64.667 -587.001 194c-87.333 100 -131 224.667 -131 374c0 172 70.667 332.333 212 481
c64 67.333 141.667 118.333 233 153c-67.333 0 -154 -6.33301 -260 -19c-84 -10 -160.667 -30 -230 -60v184z" />
    <glyph glyph-name="uniFB7F" unicode="&#x687;" horiz-adv-x="1322" arabic-form="final" 
d="M787 -50h150v-150h-150v150zM787 200h150v-150h-150v150zM537 -50h150v-150h-150v150zM537 200h150v-150h-150v150zM1302 184h40.002v-184h-49c-86 0 -170 50 -252 150c-54.667 66.667 -102.334 152 -143.001 256l-79 193c-76 -16 -146.667 -50.667 -212 -104
c-149.333 -122 -224 -267 -224 -435c0 -91.333 24.667 -168.333 74 -231c86 -109.333 238.667 -164 458 -164c128.667 0 263.667 39.333 405 118v-184c-100 -66 -233.333 -99 -400 -99c-278.667 0 -474.334 64.667 -587.001 194c-87.333 100 -131 224.667 -131 374
c0 172 70.667 332.333 212 481c64 67.333 141.667 118.333 233 153h-25c-63.333 0 -141.666 -6.33301 -234.999 -19c-90 -12.667 -166.667 -32.667 -230 -60v184c181.333 42 336.333 63 465 63c196 0 360.667 -18 494 -54v-154c-72.667 0 -119.334 -4.33301 -140.001 -13
l29 -91c34 -106.667 75 -191.667 123 -255c60 -79.333 118 -119 174 -119z" />
    <glyph glyph-name="uniFB80" unicode="&#x687;" horiz-adv-x="1266" arabic-form="initial" 
d="M851 541c-55.333 15.333 -117.331 30.665 -185.998 45.998c-56.667 12.667 -145 24.334 -265 35.001c-54.667 4.66699 -135.667 5 -243 1v184c48 4.66699 97 7.33398 147 8.00098c108 0 219.333 -11.667 334 -35c172 -34.667 331.333 -84.667 478 -150v-154
c-50.667 -16 -105.334 -41.333 -164.001 -76c-110.667 -65.333 -190.667 -120 -240 -164c-96.667 -86 -170 -138 -220 -156c-147.333 -53.333 -275.333 -80 -384 -80h-128v184h100c151.333 0 270 24 356 72c69.333 38.667 142.666 93.334 219.999 164.001
c62.667 57.333 127.667 97.666 195 120.999zM650.002 -300.001h150v-150h-150v150zM650.002 -50.001h150v-150h-150v150zM400.002 -300.001h150v-150h-150v150zM400.002 -50.001h150v-150h-150v150z" />
    <glyph glyph-name="uniFB81" unicode="&#x687;" horiz-adv-x="1322" arabic-form="medial" 
d="M638 780c172 -34.667 331.334 -84.668 478.001 -150.001v-154c-43.333 -13.333 -89.333 -33.666 -138 -60.999c33.333 -52 60 -89.333 80 -112c69.333 -79.333 142 -119 218 -119h66v-184h-86c-139.333 0 -251 56 -335 168c-26.667 36 -59.667 86.333 -99 151
c-46 -30.667 -82.667 -58.334 -110 -83.001c-96.667 -86 -170 -138 -220 -156c-147.333 -53.333 -275.333 -80 -384 -80h-128v184h100c151.333 0 270 24 356 72c69.333 38.667 142.666 93.334 219.999 164.001c62.667 57.333 127.667 97.666 195 120.999
c-55.333 15.333 -117.333 30.666 -186 45.999c-56.667 12.667 -145 24.334 -265 35.001c-54.667 4.66699 -135.667 5 -243 1v184c48 4.66699 97 7.33398 147 8.00098c108 0 219.333 -11.667 334 -35zM650.001 -300.001h150v-150h-150v150zM650.001 -50.001h150v-150h-150
v150zM400.001 -300.001h150v-150h-150v150zM400.001 -50.001h150v-150h-150v150z" />
    <glyph glyph-name="uniFB82" unicode="&#x68d;" horiz-adv-x="912" arabic-form="isolated" 
d="M549 -150h150v-150h-150v150zM299 -150h150v-150h-150v150zM391 151c114.667 32.667 183.667 86.333 207 161c5.33301 18 8 41 8 69c0 52 -20 116.667 -60 194c-44 86 -123.667 177.667 -239 275h227c75.333 -60.667 135 -132.334 179 -215.001
c54.667 -101.333 82 -187 82 -257c0 -66 -10.667 -124 -32 -174c-53.333 -129.333 -167.333 -207.666 -342 -234.999c-30.667 -4.66699 -61 -7 -91 -7c-68 0 -136.333 12.667 -205 38v184c76.667 -28 143 -42 199 -42c22 0 44.333 3 67 9z" />
    <glyph glyph-name="uniFB83" unicode="&#x68d;" horiz-adv-x="1075" arabic-form="final" 
d="M549 -150h150v-150h-150v150zM299 -150h150v-150h-150v150zM546 575c-38 81.333 -117.668 172.999 -239.001 274.999h227c64.667 -52 124.334 -123.667 179.001 -215c54 -89.333 81 -173 81 -251c0 -48.667 27.667 -100.667 83 -156c29.333 -29.333 77 -44 143 -44h75
v-184h-130c-98 0 -179.333 43.333 -244 130c-62 -85.333 -162 -139 -300 -161c-30.667 -4.66699 -61 -7 -91 -7c-68 0 -136.333 12.667 -205 38v184c76.667 -28 143 -42 199 -42c22 0 44.333 3 67 9c114.667 32.667 183.667 86.334 207 161.001c5.33301 18 8 41 8 69
c0 45.333 -20 110 -60 194z" />
    <glyph glyph-name="uniFB84" unicode="&#x68c;" horiz-adv-x="912" arabic-form="isolated" 
d="M500 1200h150v-150h-150v150zM250 1200h150v-150h-150v150zM391 151c114.667 32.667 183.667 86.333 207 161c5.33301 18 8 41 8 69c0 52 -20 116.667 -60 194c-44 86 -123.667 177.667 -239 275h227c75.333 -60.667 135 -132.334 179 -215.001
c54.667 -101.333 82 -187 82 -257c0 -66 -10.667 -124 -32 -174c-53.333 -129.333 -167.333 -207.666 -342 -234.999c-30.667 -4.66699 -61 -7 -91 -7c-68 0 -136.333 12.667 -205 38v184c76.667 -28 143 -42 199 -42c22 0 44.333 3 67 9z" />
    <glyph glyph-name="uniFB85" unicode="&#x68c;" horiz-adv-x="1075" arabic-form="final" 
d="M500 1200h150v-150h-150v150zM250 1200h150v-150h-150v150zM546 575c-38 81.333 -117.668 172.999 -239.001 274.999h227c64.667 -52 124.334 -123.667 179.001 -215c54 -89.333 81 -173 81 -251c0 -48.667 27.667 -100.667 83 -156c29.333 -29.333 77 -44 143 -44h75
v-184h-130c-98 0 -179.333 43.333 -244 130c-62 -85.333 -162 -139 -300 -161c-30.667 -4.66699 -61 -7 -91 -7c-68 0 -136.333 12.667 -205 38v184c76.667 -28 143 -42 199 -42c22 0 44.333 3 67 9c114.667 32.667 183.667 86.334 207 161.001c5.33301 18 8 41 8 69
c0 45.333 -20 110 -60 194z" />
    <glyph glyph-name="uniFB86" unicode="&#x68e;" horiz-adv-x="912" arabic-form="isolated" 
d="M375 1450h150v-150h-150v150zM500 1200h150v-150h-150v150zM250 1200h150v-150h-150v150zM391 151c114.667 32.667 183.667 86.333 207 161c5.33301 18 8 41 8 69c0 52 -20 116.667 -60 194c-44 86 -123.667 177.667 -239 275h227
c75.333 -60.667 135 -132.334 179 -215.001c54.667 -101.333 82 -187 82 -257c0 -66 -10.667 -124 -32 -174c-53.333 -129.333 -167.333 -207.666 -342 -234.999c-30.667 -4.66699 -61 -7 -91 -7c-68 0 -136.333 12.667 -205 38v184c76.667 -28 143 -42 199 -42
c22 0 44.333 3 67 9z" />
    <glyph glyph-name="uniFB87" unicode="&#x68e;" horiz-adv-x="1075" arabic-form="final" 
d="M375 1450h150v-150h-150v150zM500 1200h150v-150h-150v150zM250 1200h150v-150h-150v150zM546 575c-38 81.333 -117.668 172.999 -239.001 274.999h227c64.667 -52 124.334 -123.667 179.001 -215c54 -89.333 81 -173 81 -251c0 -48.667 27.667 -100.667 83 -156
c29.333 -29.333 77 -44 143 -44h75v-184h-130c-98 0 -179.333 43.333 -244 130c-62 -85.333 -162 -139 -300 -161c-30.667 -4.66699 -61 -7 -91 -7c-68 0 -136.333 12.667 -205 38v184c76.667 -28 143 -42 199 -42c22 0 44.333 3 67 9
c114.667 32.667 183.667 86.334 207 161.001c5.33301 18 8 41 8 69c0 45.333 -20 110 -60 194z" />
    <glyph glyph-name="uniFB88" unicode="&#x688;" horiz-adv-x="912" arabic-form="isolated" 
d="M399 1128h55c52 0 85.333 4.33301 100 13c35.333 22 53 40 53 54c0 21.333 -10 37.333 -30 48c-0.666992 0.666992 -24.667 -8.33301 -72 -27c-34.667 -14 -70 -43.333 -106 -88zM477 1027h-175h-112v101h81v399h102v-321c24 48.667 70.667 86.334 140 113.001
c42 16 86.333 15.333 133 -2c43.333 -16.667 65 -52.334 65 -107.001c0 -60.667 -21.333 -107.667 -64 -141c-36 -28 -92.667 -42 -170 -42zM391 151c114.667 32.667 183.667 86.333 207 161c5.33301 18 8 41 8 69c0 52 -20 116.667 -60 194
c-44 86 -123.667 177.667 -239 275h227c75.333 -60.667 135 -132.334 179 -215.001c54.667 -101.333 82 -187 82 -257c0 -66 -10.667 -124 -32 -174c-53.333 -129.333 -167.333 -207.666 -342 -234.999c-30.667 -4.66699 -61 -7 -91 -7c-68 0 -136.333 12.667 -205 38v184
c76.667 -28 143 -42 199 -42c22 0 44.333 3 67 9z" />
    <glyph glyph-name="uniFB89" unicode="&#x688;" horiz-adv-x="1075" arabic-form="final" 
d="M399 1128h55c52 0 85.333 4.33301 100 13c35.333 22 53 40 53 54c0 21.333 -10 37.333 -30 48c-0.666992 0.666992 -24.667 -8.33301 -72 -27c-34.667 -14 -70 -43.333 -106 -88zM477 1027h-175h-112v101h81v399h102v-321c24 48.667 70.667 86.334 140 113.001
c42 16 86.333 15.333 133 -2c43.333 -16.667 65 -52.334 65 -107.001c0 -60.667 -21.333 -107.667 -64 -141c-36 -28 -92.667 -42 -170 -42zM546 575c-38 81.333 -117.668 172.999 -239.001 274.999h227c64.667 -52 124.334 -123.667 179.001 -215
c54 -89.333 81 -173 81 -251c0 -48.667 27.667 -100.667 83 -156c29.333 -29.333 77 -44 143 -44h75v-184h-130c-98 0 -179.333 43.333 -244 130c-62 -85.333 -162 -139 -300 -161c-30.667 -4.66699 -61 -7 -91 -7c-68 0 -136.333 12.667 -205 38v184
c76.667 -28 143 -42 199 -42c22 0 44.333 3 67 9c114.667 32.667 183.667 86.334 207 161.001c5.33301 18 8 41 8 69c0 45.333 -20 110 -60 194z" />
    <glyph glyph-name="uniFB8A" unicode="&#x698;" horiz-adv-x="989" arabic-form="isolated" 
d="M625 1200h150v-150h-150v150zM750 950h150v-150h-150v150zM500 950h150v-150h-150v150zM675 158c6.66699 38.667 10.001 81.999 10.001 129.999c0 84 -17.667 171.333 -53 262h184c33.333 -78.667 50 -162 50 -250c0 -54.667 -2.66699 -102.667 -8 -144
c-30.667 -233.333 -143 -401.666 -337 -504.999c-189.333 -100.667 -391.333 -151 -606 -151v184c202.667 0 371.667 42.667 507 128c145.333 92 229.666 207.333 252.999 346z" />
    <glyph glyph-name="uniFB8B" unicode="&#x698;" horiz-adv-x="1130" arabic-form="final" 
d="M632 550h183.999c20 -74.667 31 -122 33 -142c6.66699 -68.667 34.334 -128.667 83.001 -180c28 -29.333 75.667 -44 143 -44h75v-184h-130c-86.667 0 -146.667 20.667 -180 62c-45.333 -185.333 -151.666 -322.333 -318.999 -411
c-189.333 -100.667 -391.333 -151 -606 -151v184c202.667 0 371.667 42.667 507 128c145.333 92 229.666 207.333 252.999 346c6.66699 38.667 10 82 10 130c0 84 -17.667 171.333 -53 262zM624.999 1200h150v-150h-150v150zM749.999 950h150v-150h-150v150zM499.999 950
h150v-150h-150v150z" />
    <glyph glyph-name="uniFB8C" unicode="&#x691;" horiz-adv-x="989" arabic-form="isolated" 
d="M675 158c6.66699 38.667 10.001 81.999 10.001 129.999c0 84 -17.667 171.333 -53 262h184c33.333 -78.667 50 -162 50 -250c0 -54.667 -2.66699 -102.667 -8 -144c-30.667 -233.333 -143 -401.666 -337 -504.999c-189.333 -100.667 -391.333 -151 -606 -151v184
c202.667 0 371.667 42.667 507 128c145.333 92 229.666 207.333 252.999 346zM649.001 927.999h55c52 0 85.333 4.33301 100 13c35.333 22 53 40 53 54c0 21.333 -10 37.333 -30 48c-0.666992 0.666992 -24.667 -8.33301 -72 -27c-34.667 -14 -70 -43.333 -106 -88z
M727.001 826.999h-175h-112v101h81v399h102v-321c24 48.667 70.667 86.334 140 113.001c42 16 86.333 15.333 133 -2c43.333 -16.667 65 -52.334 65 -107.001c0 -60.667 -21.333 -107.667 -64 -141c-36 -28 -92.667 -42 -170 -42z" />
    <glyph glyph-name="uniFB8D" unicode="&#x691;" horiz-adv-x="1130" arabic-form="final" 
d="M632 550h183.999c20 -74.667 31 -122 33 -142c6.66699 -68.667 34.334 -128.667 83.001 -180c28 -29.333 75.667 -44 143 -44h75v-184h-130c-86.667 0 -146.667 20.667 -180 62c-45.333 -185.333 -151.666 -322.333 -318.999 -411
c-189.333 -100.667 -391.333 -151 -606 -151v184c202.667 0 371.667 42.667 507 128c145.333 92 229.666 207.333 252.999 346c6.66699 38.667 10 82 10 130c0 84 -17.667 171.333 -53 262zM648.999 928h55c52 0 85.333 4.33301 100 13c35.333 22 53 40 53 54
c0 21.333 -10 37.333 -30 48c-0.666992 0.666992 -24.667 -8.33301 -72 -27c-34.667 -14 -70 -43.333 -106 -88zM726.999 827h-175h-112v101h81v399h102v-321c24 48.667 70.667 86.334 140 113.001c42 16 86.333 15.333 133 -2c43.333 -16.667 65 -52.334 65 -107.001
c0 -60.667 -21.333 -107.667 -64 -141c-36 -28 -92.667 -42 -170 -42z" />
    <glyph glyph-name="uniFB8E" unicode="&#x6a9;" horiz-adv-x="1833" arabic-form="isolated" 
d="M770 88c122.667 0 248.666 26.667 377.999 80c104.667 43.333 169 83.333 193 120c10.667 17.333 16 41.333 16 72c0 46 -18 91 -54 135l-310 380c-33.333 40.667 -50 88 -50 142c0 23.333 3.33301 46 10 68c23.333 79.333 68.333 133 135 161l745 310v-186l-595 -250
c-47.333 -20 -78 -43.333 -92 -70c-4 -7.33301 -6 -19.333 -6 -36c0 -21.333 10.333 -44.333 31 -69l275 -330c68 -82 102 -164 102 -246c0 -75.333 -20.667 -146.666 -62 -213.999c-35.333 -57.333 -141.333 -114.333 -318 -171
c-151.333 -48.667 -280.666 -73 -387.999 -73c-128 0 -234.667 12.667 -320 38c-220 65.333 -330 187 -330 365c0 92 21 168.667 63 230h184c-43.333 -62.667 -65 -139.334 -65 -230.001c0 -84 67.667 -148 203 -192c69.333 -22.667 154.333 -34 255 -34z" />
    <glyph glyph-name="uniFB8F" unicode="&#x6a9;" horiz-adv-x="1833" arabic-form="final" 
d="M1436 120c-66 -50.667 -155.333 -96 -268 -136c-136.667 -48.667 -266 -73 -388 -73c-128 0 -234.667 12.667 -320 38c-220 65.333 -330 187 -330 365c0 92 21 168.667 63 230h184c-43.333 -62.667 -65 -139.334 -65 -230.001c0 -84 67.667 -148 203 -192
c69.333 -22.667 154.333 -34 255 -34c122.667 0 248.667 26.667 378 80c105.333 43.333 169.666 83.333 192.999 120c10.667 17.333 16 41.333 16 72c0 46 -18 91 -54 135l-310 380c-33.333 40.667 -50 88 -50 142c0 23.333 3.33301 46 10 68
c23.333 79.333 68.333 133 135 161l745 310v-186l-595 -250c-47.333 -20 -78 -43.333 -92 -70c-4 -7.33301 -6 -19.333 -6 -36c0 -21.333 10.333 -44.333 31 -69l583 -705c14.667 -17.333 34.667 -30.666 60 -39.999c28.667 -10.667 64.334 -16 107.001 -16h88v-184h-132
c-43.333 0 -84.333 8 -123 24c-68.667 28.667 -114 56.667 -136 84l-97 120c-16.667 -42.667 -45 -78.667 -85 -108z" />
    <glyph glyph-name="uniFB90" unicode="&#x6a9;" horiz-adv-x="975" arabic-form="initial" 
d="M310 0l-330 -0.00195312v184h310c98.667 0 163 34.667 193 104c10.667 24 16 48 16 72c0 46 -18 91 -54 135l-310 380c-33.333 40.667 -50 88 -50 142c0 23.333 3.33301 46 10 68c20.667 78.667 65.667 132.334 135 161.001l745 310v-186l-595 -250
c-47.333 -20 -78 -43.333 -92 -70c-4 -7.33301 -6 -19.333 -6 -36c0 -21.333 10.333 -44.333 31 -69l275 -330c68 -82 102 -164 102 -246c0 -75.333 -20.667 -146.666 -62 -213.999c-63.333 -103.333 -169.333 -155 -318 -155z" />
    <glyph glyph-name="uniFB91" unicode="&#x6a9;" horiz-adv-x="1131" arabic-form="medial" 
d="M310 0l-330.001 -0.00195312v184h310c98.667 0 163 34.667 193 104c10.667 24 16 48 16 72c0 46 -18 91 -54 135l-310 380c-33.333 40.667 -50 88 -50 142c0 23.333 3.33301 46 10 68c20.667 78.667 65.667 132.334 135 161.001l745 310v-186l-595 -250
c-47.333 -20 -78 -43.333 -92 -70c-4 -7.33301 -6 -19.333 -6 -36c0 -21.333 10.333 -44.333 31 -69l583 -705c14.667 -17.333 34.667 -30.666 60 -39.999c28.667 -10.667 64.334 -16 107.001 -16h88v-184h-132c-43.333 0 -84.333 8 -123 24
c-68.667 28.667 -114 56.667 -136 84l-97 120c-14 -30.667 -26.667 -55 -38 -73c-63.333 -103.333 -168.333 -155 -315 -155z" />
    <glyph glyph-name="uniFB92" unicode="&#x6af;" horiz-adv-x="1833" arabic-form="isolated" 
d="M1833 1685l-863 -354v150l863 354v-150zM770 88c122.667 0 248.666 26.667 377.999 80c104.667 43.333 169 83.333 193 120c10.667 17.333 16 41.333 16 72c0 46 -18 91 -54 135l-310 380c-33.333 40.667 -50 88 -50 142c0 23.333 3.33301 46 10 68
c23.333 79.333 68.333 133 135 161l745 310v-186l-595 -250c-47.333 -20 -78 -43.333 -92 -70c-4 -7.33301 -6 -19.333 -6 -36c0 -21.333 10.333 -44.333 31 -69l275 -330c68 -82 102 -164 102 -246c0 -75.333 -20.667 -146.666 -62 -213.999
c-35.333 -57.333 -141.333 -114.333 -318 -171c-151.333 -48.667 -280.666 -73 -387.999 -73c-128 0 -234.667 12.667 -320 38c-220 65.333 -330 187 -330 365c0 92 21 168.667 63 230h184c-43.333 -62.667 -65 -139.334 -65 -230.001c0 -84 67.667 -148 203 -192
c69.333 -22.667 154.333 -34 255 -34z" />
    <glyph glyph-name="uniFB93" unicode="&#x6af;" horiz-adv-x="1833" arabic-form="final" 
d="M1436 120c-66 -50.667 -155.333 -96 -268 -136c-136.667 -48.667 -266 -73 -388 -73c-128 0 -234.667 12.667 -320 38c-220 65.333 -330 187 -330 365c0 92 21 168.667 63 230h184c-43.333 -62.667 -65 -139.334 -65 -230.001c0 -84 67.667 -148 203 -192
c69.333 -22.667 154.333 -34 255 -34c122.667 0 248.667 26.667 378 80c105.333 43.333 169.666 83.333 192.999 120c10.667 17.333 16 41.333 16 72c0 46 -18 91 -54 135l-310 380c-33.333 40.667 -50 88 -50 142c0 23.333 3.33301 46 10 68
c23.333 79.333 68.333 133 135 161l745 310v-186l-595 -250c-47.333 -20 -78 -43.333 -92 -70c-4 -7.33301 -6 -19.333 -6 -36c0 -21.333 10.333 -44.333 31 -69l583 -705c14.667 -17.333 34.667 -30.666 60 -39.999c28.667 -10.667 64.334 -16 107.001 -16h88v-184h-132
c-43.333 0 -84.333 8 -123 24c-68.667 28.667 -114 56.667 -136 84l-97 120c-16.667 -42.667 -45 -78.667 -85 -108zM1833 1685l-863 -354v150l863 354v-150z" />
    <glyph glyph-name="uniFB94" unicode="&#x6af;" horiz-adv-x="975" arabic-form="initial" 
d="M310 0l-330 -0.00195312v184h310c98.667 0 163 34.667 193 104c10.667 24 16 48 16 72c0 46 -18 91 -54 135l-310 380c-33.333 40.667 -50 88 -50 142c0 23.333 3.33301 46 10 68c20.667 78.667 65.667 132.334 135 161.001l745 310v-186l-595 -250
c-47.333 -20 -78 -43.333 -92 -70c-4 -7.33301 -6 -19.333 -6 -36c0 -21.333 10.333 -44.333 31 -69l275 -330c68 -82 102 -164 102 -246c0 -75.333 -20.667 -146.666 -62 -213.999c-63.333 -103.333 -169.333 -155 -318 -155zM975 1685l-863 -354v150l863 354v-150z" />
    <glyph glyph-name="uniFB95" unicode="&#x6af;" horiz-adv-x="1131" arabic-form="medial" 
d="M310 0l-330.001 -0.00195312v184h310c98.667 0 163 34.667 193 104c10.667 24 16 48 16 72c0 46 -18 91 -54 135l-310 380c-33.333 40.667 -50 88 -50 142c0 23.333 3.33301 46 10 68c20.667 78.667 65.667 132.334 135 161.001l745 310v-186l-595 -250
c-47.333 -20 -78 -43.333 -92 -70c-4 -7.33301 -6 -19.333 -6 -36c0 -21.333 10.333 -44.333 31 -69l583 -705c14.667 -17.333 34.667 -30.666 60 -39.999c28.667 -10.667 64.334 -16 107.001 -16h88v-184h-132c-43.333 0 -84.333 8 -123 24
c-68.667 28.667 -114 56.667 -136 84l-97 120c-14 -30.667 -26.667 -55 -38 -73c-63.333 -103.333 -168.333 -155 -315 -155zM974.999 1685l-863 -354v150l863 354v-150z" />
    <glyph glyph-name="uniFB96" unicode="&#x6b3;" horiz-adv-x="1833" arabic-form="isolated" 
d="M725 -450h150v-150h-150v150zM725 -200h150v-150h-150v150zM770 88c122.667 0 248.666 26.667 377.999 80c104.667 43.333 169 83.333 193 120c10.667 17.333 16 41.333 16 72c0 46 -18 91 -54 135l-310 380c-33.333 40.667 -50 88 -50 142c0 23.333 3.33301 46 10 68
c23.333 79.333 68.333 133 135 161l745 310v-186l-595 -250c-47.333 -20 -78 -43.333 -92 -70c-4 -7.33301 -6 -19.333 -6 -36c0 -21.333 10.333 -44.333 31 -69l275 -330c68 -82 102 -164 102 -246c0 -75.333 -20.667 -146.666 -62 -213.999
c-35.333 -57.333 -141.333 -114.333 -318 -171c-151.333 -48.667 -280.666 -73 -387.999 -73c-128 0 -234.667 12.667 -320 38c-220 65.333 -330 187 -330 365c0 92 21 168.667 63 230h184c-43.333 -62.667 -65 -139.334 -65 -230.001c0 -84 67.667 -148 203 -192
c69.333 -22.667 154.333 -34 255 -34zM1833 1685l-863 -354v150l863 354v-150z" />
    <glyph glyph-name="uniFB97" unicode="&#x6b3;" horiz-adv-x="1833" arabic-form="final" 
d="M1436 120c-66 -50.667 -155.333 -96 -268 -136c-136.667 -48.667 -266 -73 -388 -73c-128 0 -234.667 12.667 -320 38c-220 65.333 -330 187 -330 365c0 92 21 168.667 63 230h184c-43.333 -62.667 -65 -139.334 -65 -230.001c0 -84 67.667 -148 203 -192
c69.333 -22.667 154.333 -34 255 -34c122.667 0 248.667 26.667 378 80c105.333 43.333 169.666 83.333 192.999 120c10.667 17.333 16 41.333 16 72c0 46 -18 91 -54 135l-310 380c-33.333 40.667 -50 88 -50 142c0 23.333 3.33301 46 10 68
c23.333 79.333 68.333 133 135 161l745 310v-186l-595 -250c-47.333 -20 -78 -43.333 -92 -70c-4 -7.33301 -6 -19.333 -6 -36c0 -21.333 10.333 -44.333 31 -69l583 -705c14.667 -17.333 34.667 -30.666 60 -39.999c28.667 -10.667 64.334 -16 107.001 -16h88v-184h-132
c-43.333 0 -84.333 8 -123 24c-68.667 28.667 -114 56.667 -136 84l-97 120c-16.667 -42.667 -45 -78.667 -85 -108zM1833 1685l-863 -354v150l863 354v-150zM725 -450h150v-150h-150v150zM725 -200h150v-150h-150v150z" />
    <glyph glyph-name="uniFB98" unicode="&#x6b3;" horiz-adv-x="975" arabic-form="initial" 
d="M310 0l-330 -0.00195312v184h310c98.667 0 163 34.667 193 104c10.667 24 16 48 16 72c0 46 -18 91 -54 135l-310 380c-33.333 40.667 -50 88 -50 142c0 23.333 3.33301 46 10 68c20.667 78.667 65.667 132.334 135 161.001l745 310v-186l-595 -250
c-47.333 -20 -78 -43.333 -92 -70c-4 -7.33301 -6 -19.333 -6 -36c0 -21.333 10.333 -44.333 31 -69l275 -330c68 -82 102 -164 102 -246c0 -75.333 -20.667 -146.666 -62 -213.999c-63.333 -103.333 -169.333 -155 -318 -155zM975 1685l-863 -354v150l863 354v-150z
M325 -400.002h150v-150h-150v150zM325 -150.002h150v-150h-150v150z" />
    <glyph glyph-name="uniFB99" unicode="&#x6b3;" horiz-adv-x="1131" arabic-form="medial" 
d="M310 0l-330.001 -0.00195312v184h310c98.667 0 163 34.667 193 104c10.667 24 16 48 16 72c0 46 -18 91 -54 135l-310 380c-33.333 40.667 -50 88 -50 142c0 23.333 3.33301 46 10 68c20.667 78.667 65.667 132.334 135 161.001l745 310v-186l-595 -250
c-47.333 -20 -78 -43.333 -92 -70c-4 -7.33301 -6 -19.333 -6 -36c0 -21.333 10.333 -44.333 31 -69l583 -705c14.667 -17.333 34.667 -30.666 60 -39.999c28.667 -10.667 64.334 -16 107.001 -16h88v-184h-132c-43.333 0 -84.333 8 -123 24
c-68.667 28.667 -114 56.667 -136 84l-97 120c-14 -30.667 -26.667 -55 -38 -73c-63.333 -103.333 -168.333 -155 -315 -155zM974.999 1685l-863 -354v150l863 354v-150zM324.999 -400.002h150v-150h-150v150zM324.999 -150.002h150v-150h-150v150z" />
    <glyph glyph-name="uniFB9A" unicode="&#x6b1;" horiz-adv-x="1833" arabic-form="isolated" 
d="M1150 1850h150v-150h-150v150zM900 1850h150v-150h-150v150zM770 88c122.667 0 248.666 26.667 377.999 80c104.667 43.333 169 83.333 193 120c10.667 17.333 16 41.333 16 72c0 46 -18 91 -54 135l-310 380c-33.333 40.667 -50 88 -50 142c0 23.333 3.33301 46 10 68
c23.333 79.333 68.333 133 135 161l745 310v-186l-595 -250c-47.333 -20 -78 -43.333 -92 -70c-4 -7.33301 -6 -19.333 -6 -36c0 -21.333 10.333 -44.333 31 -69l275 -330c68 -82 102 -164 102 -246c0 -75.333 -20.667 -146.666 -62 -213.999
c-35.333 -57.333 -141.333 -114.333 -318 -171c-151.333 -48.667 -280.666 -73 -387.999 -73c-128 0 -234.667 12.667 -320 38c-220 65.333 -330 187 -330 365c0 92 21 168.667 63 230h184c-43.333 -62.667 -65 -139.334 -65 -230.001c0 -84 67.667 -148 203 -192
c69.333 -22.667 154.333 -34 255 -34zM1833 1685l-863 -354v150l863 354v-150z" />
    <glyph glyph-name="uniFB9B" unicode="&#x6b1;" horiz-adv-x="1833" arabic-form="final" 
d="M1436 120c-66 -50.667 -155.333 -96 -268 -136c-136.667 -48.667 -266 -73 -388 -73c-128 0 -234.667 12.667 -320 38c-220 65.333 -330 187 -330 365c0 92 21 168.667 63 230h184c-43.333 -62.667 -65 -139.334 -65 -230.001c0 -84 67.667 -148 203 -192
c69.333 -22.667 154.333 -34 255 -34c122.667 0 248.667 26.667 378 80c105.333 43.333 169.666 83.333 192.999 120c10.667 17.333 16 41.333 16 72c0 46 -18 91 -54 135l-310 380c-33.333 40.667 -50 88 -50 142c0 23.333 3.33301 46 10 68
c23.333 79.333 68.333 133 135 161l745 310v-186l-595 -250c-47.333 -20 -78 -43.333 -92 -70c-4 -7.33301 -6 -19.333 -6 -36c0 -21.333 10.333 -44.333 31 -69l583 -705c14.667 -17.333 34.667 -30.666 60 -39.999c28.667 -10.667 64.334 -16 107.001 -16h88v-184h-132
c-43.333 0 -84.333 8 -123 24c-68.667 28.667 -114 56.667 -136 84l-97 120c-16.667 -42.667 -45 -78.667 -85 -108zM1833 1685l-863 -354v150l863 354v-150zM1150 1850h150v-150h-150v150zM900 1850h150v-150h-150v150z" />
    <glyph glyph-name="uniFB9C" unicode="&#x6b1;" horiz-adv-x="975" arabic-form="initial" 
d="M310 0l-330 -0.00195312v184h310c98.667 0 163 34.667 193 104c10.667 24 16 48 16 72c0 46 -18 91 -54 135l-310 380c-33.333 40.667 -50 88 -50 142c0 23.333 3.33301 46 10 68c20.667 78.667 65.667 132.334 135 161.001l745 310v-186l-595 -250
c-47.333 -20 -78 -43.333 -92 -70c-4 -7.33301 -6 -19.333 -6 -36c0 -21.333 10.333 -44.333 31 -69l275 -330c68 -82 102 -164 102 -246c0 -75.333 -20.667 -146.666 -62 -213.999c-63.333 -103.333 -169.333 -155 -318 -155zM975 1685l-863 -354v150l863 354v-150z
M325 1850h150v-150h-150v150zM75 1850h150v-150h-150v150z" />
    <glyph glyph-name="uniFB9D" unicode="&#x6b1;" horiz-adv-x="1131" arabic-form="medial" 
d="M310 0l-330.001 -0.00195312v184h310c98.667 0 163 34.667 193 104c10.667 24 16 48 16 72c0 46 -18 91 -54 135l-310 380c-33.333 40.667 -50 88 -50 142c0 23.333 3.33301 46 10 68c20.667 78.667 65.667 132.334 135 161.001l745 310v-186l-595 -250
c-47.333 -20 -78 -43.333 -92 -70c-4 -7.33301 -6 -19.333 -6 -36c0 -21.333 10.333 -44.333 31 -69l583 -705c14.667 -17.333 34.667 -30.666 60 -39.999c28.667 -10.667 64.334 -16 107.001 -16h88v-184h-132c-43.333 0 -84.333 8 -123 24
c-68.667 28.667 -114 56.667 -136 84l-97 120c-14 -30.667 -26.667 -55 -38 -73c-63.333 -103.333 -168.333 -155 -315 -155zM974.999 1685l-863 -354v150l863 354v-150zM324.999 1850h150v-150h-150v150zM74.999 1850h150v-150h-150v150z" />
    <glyph glyph-name="uniFB9E" unicode="&#x6ba;" horiz-adv-x="1504" arabic-form="isolated" 
d="M1352 312c0 -115.333 -33.334 -232.334 -100.001 -351.001c-73.333 -131.333 -193 -219.666 -359 -264.999c-64.667 -18 -123.667 -27 -177 -27c-88 0 -168.333 12.333 -241 37c-218.667 70.667 -328 224.667 -328 462c0 156.667 15.667 262 47 316h184
c-32.667 -96 -49 -201.333 -49 -316c0 -158 67 -254.333 201 -289c62 -16 124 -24 186 -24c50.667 0 99.667 6.66699 147 20c128.667 35.333 218.334 127 269.001 275c22.667 65.333 34 130 34 194c0 122.667 -34 258 -102 406h184c69.333 -104 104 -250 104 -438z" />
    <glyph glyph-name="uniFB9F" unicode="&#x6ba;" horiz-adv-x="1559" arabic-form="final" 
d="M1248 581c29.333 -64.667 52.998 -129.002 70.998 -193.002c14.667 -53.333 38.667 -100 72 -140c35.333 -42.667 73 -64 113 -64h75v-184h-130c-47.333 0 -82.333 16 -105 48c-2 -72.667 -32.667 -158 -92 -256c-80 -132.667 -199.667 -221 -359 -265
c-64.667 -18 -127.667 -27 -189 -27c-77.333 0 -153.666 12.333 -228.999 37c-218.667 71.333 -328 225.333 -328 462c0 116.667 15.667 222 47 316h184c-32.667 -91.333 -49 -196.666 -49 -315.999c0 -157.333 67 -253.666 201 -288.999c60 -16 115.333 -24 166 -24
c58.667 0 114.334 6.66699 167.001 20c129.333 32 219 123.667 269 275c22 67.333 33 138.333 33 213c0 122.667 -33.667 251.667 -101 387h184z" />
    <glyph glyph-name="uniFBA0" unicode="&#x6bb;" horiz-adv-x="1504" arabic-form="isolated" 
d="M661 903h55c52 0 85.333 4.33301 100 13c35.333 22 53 40 53 54c0 21.333 -10 37.333 -30 48c-0.666992 0.666992 -24.667 -8.33301 -72 -27c-34.667 -14 -70 -43.333 -106 -88zM739 802h-175h-112v101h81v399h102v-321c24 48.667 70.667 86.334 140 113.001
c42 16 86.333 15.333 133 -2c43.333 -16.667 65 -52.334 65 -107.001c0 -60.667 -21.333 -107.667 -64 -141c-36 -28 -92.667 -42 -170 -42zM1352 312c0 -115.333 -33.334 -232.334 -100.001 -351.001c-73.333 -131.333 -193 -219.666 -359 -264.999
c-64.667 -18 -123.667 -27 -177 -27c-88 0 -168.333 12.333 -241 37c-218.667 70.667 -328 224.667 -328 462c0 156.667 15.667 262 47 316h184c-32.667 -96 -49 -201.333 -49 -316c0 -158 67 -254.333 201 -289c62 -16 124 -24 186 -24c50.667 0 99.667 6.66699 147 20
c128.667 35.333 218.334 127 269.001 275c22.667 65.333 34 130 34 194c0 122.667 -34 258 -102 406h184c69.333 -104 104 -250 104 -438z" />
    <glyph glyph-name="uniFBA1" unicode="&#x6bb;" horiz-adv-x="1559" arabic-form="final" 
d="M1248 581c29.333 -64.667 52.998 -129.002 70.998 -193.002c14.667 -53.333 38.667 -100 72 -140c35.333 -42.667 73 -64 113 -64h75v-184h-130c-47.333 0 -82.333 16 -105 48c-2 -72.667 -32.667 -158 -92 -256c-80 -132.667 -199.667 -221 -359 -265
c-64.667 -18 -127.667 -27 -189 -27c-77.333 0 -153.666 12.333 -228.999 37c-218.667 71.333 -328 225.333 -328 462c0 116.667 15.667 222 47 316h184c-32.667 -91.333 -49 -196.666 -49 -315.999c0 -157.333 67 -253.666 201 -288.999c60 -16 115.333 -24 166 -24
c58.667 0 114.334 6.66699 167.001 20c129.333 32 219 123.667 269 275c22 67.333 33 138.333 33 213c0 122.667 -33.667 251.667 -101 387h184zM660.998 652.998h55c52 0 85.333 4.33301 100 13c35.333 22 53 40 53 54c0 21.333 -10 37.333 -30 48
c-0.666992 0.666992 -24.667 -8.33301 -72 -27c-34.667 -14 -70 -43.333 -106 -88zM738.998 551.998h-175h-112v101h81v399h102v-321c24 48.667 70.667 86.334 140 113.001c42 16 86.333 15.333 133 -2c43.333 -16.667 65 -52.334 65 -107.001
c0 -60.667 -21.333 -107.667 -64 -141c-36 -28 -92.667 -42 -170 -42z" />
    <glyph glyph-name="uniFBA2" unicode="&#x6bb;" horiz-adv-x="570" arabic-form="initial" 
d="M299 86c-48 -57.333 -124.333 -86.001 -229 -86.001h-90v184h35c66 0 113.667 14.667 143 44c32.667 32.667 49 84.334 49 155.001v217h184v-217c0 -124.667 -30.667 -223.667 -92 -297zM248 977.999h55c52 0 85.333 4.33301 100 13c35.333 22 53 40 53 54
c0 21.333 -10 37.333 -30 48c-0.666992 0.666992 -24.667 -8.33301 -72 -27c-34.667 -14 -70 -43.333 -106 -88zM326 876.999h-175h-112v101h81v399h102v-321c24 48.667 70.667 86.334 140 113.001c42 16 86.333 15.333 133 -2c43.333 -16.667 65 -52.334 65 -107.001
c0 -60.667 -21.333 -107.667 -64 -141c-36 -28 -92.667 -42 -170 -42z" />
    <glyph glyph-name="uniFBA3" unicode="&#x6bb;" horiz-adv-x="618" arabic-form="medial" 
d="M299 86c-51.333 -57.333 -127.667 -86 -229 -86h-90v184h35c66 0 113.667 14.667 143 44c32.667 32.667 49 84.334 49 155.001v217h184v-217c0 -70.667 16.333 -122.334 49 -155.001c29.333 -29.333 77 -44 143 -44h55v-184h-110c-100 0 -176.333 28.667 -229 86z
M247.999 978h55c52 0 85.333 4.33301 100 13c35.333 22 53 40 53 54c0 21.333 -10 37.333 -30 48c-0.666992 0.666992 -24.667 -8.33301 -72 -27c-34.667 -14 -70 -43.333 -106 -88zM325.999 877h-175h-112v101h81v399h102v-321c24 48.667 70.667 86.334 140 113.001
c42 16 86.333 15.333 133 -2c43.333 -16.667 65 -52.334 65 -107.001c0 -60.667 -21.333 -107.667 -64 -141c-36 -28 -92.667 -42 -170 -42z" />
    <glyph glyph-name="uniFBAA" unicode="&#x6be;" horiz-adv-x="1430" arabic-form="isolated" 
d="M863 493c0 90 -31.667 135.001 -95 135.001c-43.333 0 -72.5 -14.667 -87.5 -44s-22.5 -54.833 -22.5 -76.5s2.33301 -44.834 7 -69.501c14 -78.667 43.667 -135 89 -169c24 18 48.167 49.667 72.5 95s36.5 88.333 36.5 129zM755 24.001
c-100 -52.667 -186.667 -79 -260 -79c-38 0 -90.667 10.667 -158 32c-128.667 40.667 -193 118.334 -193 233.001c0 49.333 5.33301 92 16 128h184c-9.33301 -41.333 -14 -75.333 -14 -102c0 -46 20.667 -75.333 62 -88s71 -19 89 -19c17.333 0 35.333 1.5 54 4.5
s43 15.5 73 37.5c-48 44 -81.667 110 -101 198c-12 54 -18 105 -18 153c0 49.333 14.667 101 44 155c30 55.333 67.333 83 112 83c4.66699 0 9.33398 -0.333008 14.001 -1c-29.333 26 -71 43.667 -125 53v185c145.333 -44 291.666 -126.333 438.999 -247
c222.667 -182 334 -362 334 -540c0 -68.667 -13.333 -123.334 -40 -164.001c-49.333 -75.333 -132.333 -113 -249 -113c-88 0 -175.667 30.333 -263 91zM1013 508.001c4 -24.667 6.00098 -50 6.00098 -76c0 -98 -32.667 -182 -98 -252l-29 -33
c34.667 -30.667 68.334 -46 101.001 -46c83.333 0 130.666 22.333 141.999 67c4.66699 20 7 45.5 7 76.5s-10.333 71 -31 120s-53.334 96.833 -98.001 143.5z" />
    <glyph glyph-name="uniFBAB" unicode="&#x6be;" horiz-adv-x="1294" arabic-form="final" 
d="M689 159c42 18 97.667 54.332 167 108.999s104 99.334 104 134.001c0 74.667 -28 112 -84 112c-50 0 -99.667 -47 -149 -141c-25.333 -48 -38 -111 -38 -189v-25zM144 209.999c0 49.333 5.33398 91.999 16.001 127.999h184c-9.33301 -41.333 -14 -75.333 -14 -102
c0 -46 20.667 -75.333 62 -88s68.666 -19 81.999 -19h31v55c0 176.667 46 307.334 138 392.001c77.333 71.333 159.333 107 246 107s152.667 -33 198 -99c30.667 -44.667 46 -105 46 -181c-14 -80.667 -52.333 -153.667 -115 -219h296v-184h-344
c108.667 -72 163 -145.667 163 -221s-15.333 -135 -46 -179c-46 -66 -113.667 -99 -203 -99s-174.333 37 -255 111s-121 185.333 -121 334c-38.667 0 -95.667 10.333 -171 31c-128.667 35.333 -193 113 -193 233zM689.001 -17.002c0 -70 12.667 -127.333 38 -172
c53.333 -94 103 -141 149 -141c56 0 84 37.333 84 112c0 34.667 -31.833 77.167 -95.5 127.5s-109.5 79.5 -137.5 87.5z" />
    <glyph glyph-name="uniFBAC" unicode="&#x6be;" horiz-adv-x="1080" arabic-form="initial" 
d="M404 269c24 18 47.333 48.332 70 90.999c26 48 39 92.333 39 133c0 30.667 -5 58.334 -15 83.001c-14.667 34.667 -41.334 52 -80.001 52c-43.333 0 -72.666 -15 -87.999 -45c-14.667 -28.667 -22 -54.667 -22 -78c0 -20 2.33301 -42.333 7 -67
c14 -78.667 43.667 -135 89 -169zM87 183.999c34.667 0 77.999 3.66699 129.999 11c-30 70 -50 128 -60 174c-12 52 -18 99.333 -18 142c0 56 15 111.667 45 167c32 60 73.667 87 125 81c-29.333 26 -71 43.667 -125 53v185c148.667 -45.333 295 -127.666 439 -246.999
c170.667 -139.333 277.334 -283 320.001 -431c9.33301 -34.667 14 -71 14 -109c0 -68.667 -13.333 -123.334 -40 -164.001c-49.333 -75.333 -132.333 -113 -249 -113c-87.333 0 -182.333 36 -285 108c-80 -27.333 -168.667 -41 -266 -41h-137v184h107zM662.999 507.999
c4 -24.667 6 -50 6 -76c0 -98 -32.667 -182 -98 -252l-29 -33c34.667 -30.667 68.334 -46 101.001 -46c83.333 0 130.666 22.333 141.999 67c4.66699 20 7 41 7 63c0 40 -11 86 -33 138c-19.333 46 -51.333 92.333 -96 139z" />
    <glyph glyph-name="uniFBAD" unicode="&#x6be;" horiz-adv-x="944" arabic-form="medial" 
d="M339 184h19c28 0 74 25.333 138 76c76 60 114 107.333 114 142c0 74.667 -28 112 -84 112c-50 0 -99.667 -47 -149 -141c-25.333 -48 -38 -111 -38 -189zM155 184c6 177.333 52 308 138 392c72 71.333 151 107 237 107c92 0 161 -33 207 -99
c30.667 -44.667 46 -105 46 -181c0 -74 -54.333 -147 -163 -219h344v-184h-344c108.667 -72 163 -145 163 -219c0 -76 -15.333 -136.333 -46 -181c-46 -66 -115 -99 -207 -99c-86 0 -165 35.667 -237 107c-86 85.333 -132 216 -138 392h-175v184h175zM339 0
c0 -78 12.667 -141 38 -189c49.333 -94 99 -141 149 -141c56 0 84 37.333 84 112c0 34.667 -38 82 -114 142c-64 50.667 -110 76 -138 76h-19z" />
    <glyph glyph-name="uniFBD3" unicode="&#x6ad;" horiz-adv-x="1688" arabic-form="isolated" 
d="M750 1750h150v-150h-150v150zM875 1500h150v-150h-150v150zM625 1500h150v-150h-150v150zM976 1135l-0.00292969 -82c-49.333 -2.66699 -86.666 -8.66699 -111.999 -18c-53.333 -20 -80 -41 -80 -63c0 -18.667 4.66699 -34 14 -46c8 -10.667 34.667 -19.334 80 -26.001
c68 -10 102 -44.333 102 -103c0 -73.333 -29.333 -124 -88 -152c-54.667 -26 -108 -39 -160 -39c-44 0 -84.667 3.66699 -122 11v88c45.333 -6.66699 83 -10 113 -10c40 0 79 8.66699 117 26c40 17.333 60 36 60 56c0 25.333 -26 43.666 -78 54.999
c-49.333 10.667 -80 25.334 -92 44.001c-21.333 31.333 -31.666 62.333 -30.999 93c1.33301 54 27 93.667 77 119c56.667 28.667 123.334 44.334 200.001 47.001zM1219 281c50.667 48.667 76.001 158.667 76.001 330v945h184v-945c0 -218 -36.667 -368 -110 -450
c-99.333 -111.333 -222.666 -177.333 -369.999 -198c-90.667 -12.667 -175.334 -18.667 -254.001 -18c-138 1.33301 -240.667 12 -308 32c-195.333 58.667 -293 153 -293 283c0 50 5.33301 92.667 16 128h184c-9.33301 -38.667 -14 -72.667 -14 -102
c1.33301 -61.333 55.333 -107.333 162 -138c80.667 -23.333 163.334 -35 248.001 -35c93.333 0 169.666 9 228.999 27c101.333 31.333 184.666 78.333 249.999 141z" />
    <glyph glyph-name="uniFBD4" unicode="&#x6ad;" horiz-adv-x="1726" arabic-form="final" 
d="M976 1135l-0.00292969 -82c-49.333 -2.66699 -86.666 -8.66699 -111.999 -18c-53.333 -20 -80 -41 -80 -63c0 -18.667 4.66699 -34 14 -46c8 -10.667 34.667 -19.334 80 -26.001c68 -10 102 -44.333 102 -103c0 -73.333 -29.333 -124 -88 -152
c-54.667 -26 -108 -39 -160 -39c-44 0 -84.667 3.66699 -122 11v88c45.333 -6.66699 83 -10 113 -10c40 0 79 8.66699 117 26c40 17.333 60 36 60 56c0 25.333 -26 43.666 -78 54.999c-49.333 10.667 -80 25.334 -92 44.001c-21.333 31.333 -31.666 62.333 -30.999 93
c1.33301 54 27 93.667 77 119c56.667 28.667 123.334 44.334 200.001 47.001zM998.997 -37c-72.667 -13.333 -157.332 -19.332 -253.999 -17.999c-138 1.33301 -240.667 12 -308 32c-195.333 58.667 -293 153 -293 283c0 50 5.33301 92.667 16 128h184
c-9.33301 -38.667 -14 -72.667 -14 -102c1.33301 -61.333 55.333 -107.333 162 -138c80.667 -23.333 163.334 -35 248.001 -35c93.333 0 169.666 9 228.999 27c101.333 31.333 184.666 78.333 249.999 141c50.667 48.667 76 158.667 76 330v945h184v-1173
c0 -70.667 16.333 -122.334 49 -155.001c29.333 -29.333 77 -44 143 -44h75v-184h-130c-102 0 -190.667 41 -266 123c-105.333 -84 -222.333 -137.333 -351 -160zM749.999 1750h150v-150h-150v150zM874.999 1500h150v-150h-150v150zM624.999 1500h150v-150h-150v150z" />
    <glyph glyph-name="uniFBD5" unicode="&#x6ad;" horiz-adv-x="975" arabic-form="initial" 
d="M310 0l-330 -0.00195312v184h310c98.667 0 163 34.667 193 104c10.667 24 16 48 16 72c0 46 -18 91 -54 135l-310 380c-33.333 40.667 -50 88 -50 142c0 23.333 3.33301 46 10 68c20.667 78.667 65.667 132.334 135 161.001l745 310v-186l-595 -250
c-47.333 -20 -78 -43.333 -92 -70c-4 -7.33301 -6 -19.333 -6 -36c0 -21.333 10.333 -44.333 31 -69l275 -330c68 -82 102 -164 102 -246c0 -75.333 -20.667 -146.666 -62 -213.999c-63.333 -103.333 -169.333 -155 -318 -155zM200 1900h150v-150h-150v150zM325 1650h150
v-150h-150v150zM75 1650h150v-150h-150v150z" />
    <glyph glyph-name="uniFBD6" unicode="&#x6ad;" horiz-adv-x="1131" arabic-form="medial" 
d="M310 0l-330.001 -0.00195312v184h310c98.667 0 163 34.667 193 104c10.667 24 16 48 16 72c0 46 -18 91 -54 135l-310 380c-33.333 40.667 -50 88 -50 142c0 23.333 3.33301 46 10 68c20.667 78.667 65.667 132.334 135 161.001l745 310v-186l-595 -250
c-47.333 -20 -78 -43.333 -92 -70c-4 -7.33301 -6 -19.333 -6 -36c0 -21.333 10.333 -44.333 31 -69l583 -705c14.667 -17.333 34.667 -30.666 60 -39.999c28.667 -10.667 64.334 -16 107.001 -16h88v-184h-132c-43.333 0 -84.333 8 -123 24
c-68.667 28.667 -114 56.667 -136 84l-97 120c-14 -30.667 -26.667 -55 -38 -73c-63.333 -103.333 -168.333 -155 -315 -155zM199.999 1900h150v-150h-150v150zM324.999 1650h150v-150h-150v150zM74.999 1650h150v-150h-150v150z" />
    <glyph glyph-name="uniFBD9" unicode="&#x6c6;" horiz-adv-x="989" arabic-form="isolated" 
d="M426 812l-195 326h139l130 -195l130 195h139l-195 -326h-148zM494 452c-42 0 -77.667 -19 -107 -57c-16 -22 -24 -45 -24 -69c0 -34 17 -66.667 51 -98c31.333 -29.333 111 -44 239 -44c0 122.667 -28.667 203.667 -86 243c-24.667 16.667 -49 25 -73 25zM832 184
c0 -205.333 -57.332 -361.332 -171.999 -467.999c-63.333 -58.667 -126 -102 -188 -130c-128 -57.333 -313.667 -86 -557 -86v184c239.333 0 403.666 25.333 492.999 76c112 63.333 188.667 144.333 230 243c-78.667 0 -133 3.33301 -163 10
c-100 22 -163.333 44.333 -190 67c-77.333 65.333 -116 143.666 -116 234.999c0 94 29.667 170 89 228c69.333 68.667 149.666 103 240.999 103c59.333 0 113 -17 161 -51c86.667 -60 138.334 -137.667 155.001 -233c11.333 -68 17 -127.333 17 -178z" />
    <glyph glyph-name="uniFBDA" unicode="&#x6c6;" horiz-adv-x="1058" arabic-form="final" 
d="M426 812l-195 326h139l130 -195l130 195h139l-195 -326h-148zM653 184c0 50.667 -5.33301 95 -16 133c-16 53.333 -39.333 90 -70 110c-40 27.333 -80 32.333 -120 15c-44.667 -19.333 -71.334 -47.666 -80.001 -84.999c-11.333 -50 4.33398 -93 47.001 -129
c31.333 -26.667 111 -41.334 239 -44.001zM832 184l245.999 -0.00195312v-184h-194l-70 1c-16.667 -104 -68 -199 -154 -285c-55.333 -55.333 -118 -98.666 -188 -129.999c-128 -57.333 -313.667 -86 -557 -86v184c240.667 0 405 25.333 493 76
c112 63.333 188.667 144.333 230 243c-78.667 2 -133 5.33301 -163 10c-92.667 16 -156 38.333 -190 67c-70.667 59.333 -109.334 134 -116.001 224c-1.33301 20.667 1.33398 50 8.00098 88c18 103.333 85.667 180 203 230c39.333 16.667 80.666 24.667 123.999 24
c58 -1.33301 110 -18.333 156 -51c88.667 -61.333 140.334 -139 155.001 -233c8.66699 -55.333 14.334 -114.666 17.001 -177.999z" />
    <glyph glyph-name="uniFBE8" unicode="&#x649;" horiz-adv-x="570" arabic-form="initial" 
d="M299 86c-48 -57.333 -124.333 -86.001 -229 -86.001h-90v184h35c66 0 113.667 14.667 143 44c32.667 32.667 49 84.334 49 155.001v217h184v-217c0 -124.667 -30.667 -223.667 -92 -297z" />
    <glyph glyph-name="uniFBE9" unicode="&#x649;" horiz-adv-x="618" arabic-form="medial" 
d="M299 86c-51.333 -57.333 -127.667 -86 -229 -86h-90v184h35c66 0 113.667 14.667 143 44c32.667 32.667 49 84.334 49 155.001v217h184v-217c0 -70.667 16.333 -122.334 49 -155.001c29.333 -29.333 77 -44 143 -44h55v-184h-110c-100 0 -176.333 28.667 -229 86z" />
    <glyph glyph-name="uniFBFC" unicode="&#x6cc;" horiz-adv-x="1603" arabic-form="isolated" 
d="M1366 12c-68 -113.333 -216.33 -194.33 -444.997 -242.997c-118 -25.333 -217 -38 -297 -38c-86 0 -153 8.66699 -201 26c-195.333 69.333 -293 191 -293 365c0 78 21 154.667 63 230h184c-44 -87.333 -65.667 -164 -65 -230c1.33301 -98 56.666 -162 165.999 -192
c64.667 -17.333 117.334 -24 158.001 -20c84 7.33301 169 19 255 35c118 22 205 59.667 261 113c39.333 37.333 59 73.666 59 108.999c0 49.333 -42 83.666 -126 102.999c-44 10 -104 30.333 -180 61c-44.667 18 -86.334 44 -125.001 78
c-42.667 38 -64.334 95.333 -65.001 172c0 100 63.333 174.667 190 224c63.333 24.667 129.666 37 198.999 37s136 -14 200 -42c94 -40.667 150 -118.667 168 -234h-184c-8.66699 40.667 -35 72 -79 94c-26.667 13.333 -63 20.666 -109 21.999
c-52 1.33301 -98.667 -11 -140 -37c-40 -25.333 -60 -49.333 -60 -72c0 -36.667 41.667 -69 125 -97c165.333 -55.333 267 -104.333 305 -147c51.333 -56.667 77.666 -114.667 78.999 -174c0.666992 -45.333 -13.666 -93 -42.999 -143z" />
    <glyph glyph-name="uniFBFD" unicode="&#x6cc;" horiz-adv-x="1707" arabic-form="final" 
d="M1100 -33c60.667 34 90.999 61.9961 90.999 83.9961c-0.666992 28.667 -16.667 47.334 -48 56.001c-19.333 5.33301 -39 21.333 -59 48c-29.333 39.333 -44 79.333 -44 120c0 43.333 17.333 85 52 125c53.333 62.667 108 98.667 164 108c20 4 44 6 72 6
c78 0 146 -44.667 204 -134c85.333 -130.667 138.666 -196 159.999 -196h35v-184h-35c-76 0 -151.333 57.333 -226 172c-72 110 -116.667 165 -134 165c-24 0 -41 -2 -51 -6c-30 -11.333 -45 -28.666 -45 -51.999c0 -32 21.667 -57 65 -75c48.667 -20 74 -71 76 -153
c2 -65.333 -34.667 -126.666 -110 -183.999c-85.333 -64 -200.666 -106.333 -345.999 -127c-59.333 -8 -123.666 -12 -192.999 -12c-125.333 0 -227 13.667 -305 41c-195.333 68.667 -293 190.334 -293 365.001c0 102 21 183 63 243h184c-43.333 -60 -65 -141 -65 -243
c0 -76 55.333 -140 166 -192c44 -20.667 125.667 -31 245 -31c60.667 0 116.667 2.66699 168 8c99.333 10 169 26 209 48z" />
    </font>
</defs>
</svg>
